<?xml version="1.0" encoding="utf-8"?>
<!-- Generator: Adobe Illustrator 26.1.0, SVG Export Plug-In . SVG Version: 6.00 Build 0)  -->
<svg version="1.1" id="Layer_1" xmlns="http://www.w3.org/2000/svg" xmlns:xlink="http://www.w3.org/1999/xlink" x="0px" y="0px"
	 viewBox="0 0 4647.1 4647.1" style="enable-background:new 0 0 4647.1 4647.1;" xml:space="preserve">
<style type="text/css">
	.st0{filter:url(#Adobe_OpacityMaskFilter);}
	.st1{fill:#FFFFFF;}
	.st2{mask:url(#qrmask_00000151523046022872230460000005052265886703934080_);fill:#595A5A;}
	.st3{fill:#595A5A;}
</style>
<defs>
	<filter id="Adobe_OpacityMaskFilter" filterUnits="userSpaceOnUse" x="0" y="0" width="4647.1" height="4647.1">
		<feColorMatrix  type="matrix" values="1 0 0 0 0  0 1 0 0 0  0 0 1 0 0  0 0 0 1 0"/>
	</filter>
</defs>
<mask maskUnits="userSpaceOnUse" x="0" y="0" width="4647.1" height="4647.1" id="qrmask_00000151523046022872230460000005052265886703934080_">
	<g class="st0">
		<g>
			<g transform="translate(310,62) scale(5.3216666666667)">
				<path class="st1" d="M233.6,68.5h-27.3V54.9c0-7.7,5.9-13.6,13.6-13.6l0,0c7.7,0,13.6,5.9,13.6,13.6V68.5z"/>
			</g>
			<g transform="translate(372,62) scale(5.3216666666667)">
				<path class="st1" d="M274.9,68.5h-27.3V54.9c0-7.7,5.9-13.6,13.6-13.6l0,0c7.7,0,13.6,5.9,13.6,13.6V68.5z"/>
			</g>
			<g transform="translate(496,62) scale(5.3216666666667)">
				<path class="st1" d="M357.4,68.5h-27.3V54.9c0-7.7,5.9-13.6,13.6-13.6l0,0c7.7,0,13.6,5.9,13.6,13.6V68.5z"/>
			</g>
			<g transform="translate(589,62) scale(5.3216666666667)">
				<path class="st1" d="M419.3,68.5h-27.3V54.9c0-7.7,5.9-13.6,13.6-13.6h13.6V68.5z"/>
			</g>
			<g transform="translate(620,62) scale(5.3216666666667)">
				<path class="st1" d="M426.4,68.5h-13.6V41.3h13.6c7.7,0,13.6,5.9,13.6,13.6l0,0C440,62.6,434.1,68.5,426.4,68.5z"/>
			</g>
			<g transform="translate(682,62) scale(5.3216666666667)">
				<circle class="st1" cx="467.6" cy="54.9" r="13.6"/>
			</g>
			<g transform="translate(310,93) scale(5.3216666666667)">
				<rect x="206.4" y="61.9" class="st1" width="27.3" height="27.3"/>
			</g>
			<g transform="translate(341,93) scale(5.3216666666667)">
				<rect x="227" y="61.9" class="st1" width="27.3" height="27.3"/>
			</g>
			<g transform="translate(372,93) scale(5.3216666666667)">
				<rect x="247.6" y="61.9" class="st1" width="27.3" height="27.3"/>
			</g>
			<g transform="translate(403,93) scale(5.3216666666667)">
				<rect x="268.3" y="61.9" class="st1" width="27.3" height="27.3"/>
			</g>
			<g transform="translate(434,93) scale(5.3216666666667)">
				<path class="st1" d="M316.2,89.2h-27.3V61.9h13.6c7.7,0,13.6,5.9,13.6,13.6V89.2z"/>
			</g>
			<g transform="translate(496,93) scale(5.3216666666667)">
				<path class="st1" d="M357.4,89.2h-13.6c-7.7,0-13.6-5.9-13.6-13.6V61.9h27.3V89.2z"/>
			</g>
			<g transform="translate(527,93) scale(5.3216666666667)">
				<path class="st1" d="M378.1,89.2h-27.3V61.9h13.6c7.7,0,13.6,5.9,13.6,13.6V89.2z"/>
			</g>
			<g transform="translate(589,93) scale(5.3216666666667)">
				<path class="st1" d="M405.7,89.2L405.7,89.2c-7.7,0-13.6-5.9-13.6-13.6V61.9h27.3v13.6C419.3,83.3,413.4,89.2,405.7,89.2z"/>
			</g>
			<g transform="translate(651,93) scale(5.3216666666667)">
				<path class="st1" d="M460.6,89.2h-27.3V75.5c0-7.7,5.9-13.6,13.6-13.6l0,0c7.7,0,13.6,5.9,13.6,13.6V89.2z"/>
			</g>
			<g transform="translate(310,124) scale(5.3216666666667)">
				<path class="st1" d="M220,109.8L220,109.8c-7.7,0-13.6-5.9-13.6-13.6V82.5h27.3v13.6C233.6,103.9,227.7,109.8,220,109.8z"/>
			</g>
			<g transform="translate(434,124) scale(5.3216666666667)">
				<path class="st1" d="M302.5,109.8L302.5,109.8c-7.7,0-13.6-5.9-13.6-13.6V82.5h27.3v13.6C316.2,103.9,310.3,109.8,302.5,109.8z"
					/>
			</g>
			<g transform="translate(527,124) scale(5.3216666666667)">
				<rect x="350.8" y="82.5" class="st1" width="27.3" height="27.3"/>
			</g>
			<g transform="translate(620,124) scale(5.3216666666667)">
				<path class="st1" d="M440,109.8h-13.6c-7.7,0-13.6-5.9-13.6-13.6l0,0c0-7.7,5.9-13.6,13.6-13.6H440V109.8z"/>
			</g>
			<g transform="translate(651,124) scale(5.3216666666667)">
				<rect x="433.4" y="82.5" class="st1" width="27.3" height="27.3"/>
			</g>
			<g transform="translate(682,124) scale(5.3216666666667)">
				<path class="st1" d="M467.6,109.8H454V82.5h13.6c7.7,0,13.6,5.9,13.6,13.6l0,0C481.3,103.9,475.4,109.8,467.6,109.8z"/>
			</g>
			<g transform="translate(372,155) scale(5.3216666666667)">
				<path class="st1" d="M274.9,130.4h-27.3v-13.6c0-7.7,5.9-13.6,13.6-13.6l0,0c7.7,0,13.6,5.9,13.6,13.6V130.4z"/>
			</g>
			<g transform="translate(465,155) scale(5.3216666666667)">
				<path class="st1" d="M336.8,130.4h-13.6c-7.7,0-13.6-5.9-13.6-13.6l0,0c0-7.7,5.9-13.6,13.6-13.6h13.6V130.4z"/>
			</g>
			<g transform="translate(496,155) scale(5.3216666666667)">
				<rect x="330.2" y="103.2" class="st1" width="27.3" height="27.3"/>
			</g>
			<g transform="translate(527,155) scale(5.3216666666667)">
				<rect x="350.8" y="103.2" class="st1" width="27.3" height="27.3"/>
			</g>
			<g transform="translate(558,155) scale(5.3216666666667)">
				<rect x="371.5" y="103.2" class="st1" width="27.3" height="27.3"/>
			</g>
			<g transform="translate(589,155) scale(5.3216666666667)">
				<path class="st1" d="M405.7,130.4h-13.6v-27.3h13.6c7.7,0,13.6,5.9,13.6,13.6l0,0C419.3,124.5,413.4,130.4,405.7,130.4z"/>
			</g>
			<g transform="translate(651,155) scale(5.3216666666667)">
				<rect x="433.4" y="103.2" class="st1" width="27.3" height="27.3"/>
			</g>
			<g transform="translate(372,186) scale(5.3216666666667)">
				<rect x="247.6" y="123.8" class="st1" width="27.3" height="27.3"/>
			</g>
			<g transform="translate(403,186) scale(5.3216666666667)">
				<rect x="268.3" y="123.8" class="st1" width="27.3" height="27.3"/>
			</g>
			<g transform="translate(434,186) scale(5.3216666666667)">
				<path class="st1" d="M316.2,151.1h-27.3v-27.3h13.6c7.7,0,13.6,5.9,13.6,13.6V151.1z"/>
			</g>
			<g transform="translate(558,186) scale(5.3216666666667)">
				<rect x="371.5" y="123.8" class="st1" width="27.3" height="27.3"/>
			</g>
			<g transform="translate(620,186) scale(5.3216666666667)">
				<path class="st1" d="M440,151.1h-27.3v-13.6c0-7.7,5.9-13.6,13.6-13.6H440V151.1z"/>
			</g>
			<g transform="translate(651,186) scale(5.3216666666667)">
				<path class="st1" d="M447,151.1h-13.6v-27.3h27.3v13.6C460.6,145.2,454.7,151.1,447,151.1z"/>
			</g>
			<g transform="translate(310,217) scale(5.3216666666667)">
				<path class="st1" d="M233.6,171.7h-27.3v-13.6c0-7.7,5.9-13.6,13.6-13.6h13.6V171.7z"/>
			</g>
			<g transform="translate(341,217) scale(5.3216666666667)">
				<rect x="227" y="144.5" class="st1" width="27.3" height="27.3"/>
			</g>
			<g transform="translate(372,217) scale(5.3216666666667)">
				<rect x="247.6" y="144.5" class="st1" width="27.3" height="27.3"/>
			</g>
			<g transform="translate(434,217) scale(5.3216666666667)">
				<rect x="288.9" y="144.5" class="st1" width="27.3" height="27.3"/>
			</g>
			<g transform="translate(465,217) scale(5.3216666666667)">
				<rect x="309.5" y="144.5" class="st1" width="27.3" height="27.3"/>
			</g>
			<g transform="translate(496,217) scale(5.3216666666667)">
				<rect x="330.2" y="144.5" class="st1" width="27.3" height="27.3"/>
			</g>
			<g transform="translate(527,217) scale(5.3216666666667)">
				<rect x="350.8" y="144.5" class="st1" width="27.3" height="27.3"/>
			</g>
			<g transform="translate(558,217) scale(5.3216666666667)">
				<rect x="371.5" y="144.5" class="st1" width="27.3" height="27.3"/>
			</g>
			<g transform="translate(620,217) scale(5.3216666666667)">
				<rect x="412.7" y="144.5" class="st1" width="27.3" height="27.3"/>
			</g>
			<g transform="translate(310,248) scale(5.3216666666667)">
				<rect x="206.4" y="165.1" class="st1" width="27.3" height="27.3"/>
			</g>
			<g transform="translate(372,248) scale(5.3216666666667)">
				<rect x="247.6" y="165.1" class="st1" width="27.3" height="27.3"/>
			</g>
			<g transform="translate(434,248) scale(5.3216666666667)">
				<rect x="288.9" y="165.1" class="st1" width="27.3" height="27.3"/>
			</g>
			<g transform="translate(496,248) scale(5.3216666666667)">
				<rect x="330.2" y="165.1" class="st1" width="27.3" height="27.3"/>
			</g>
			<g transform="translate(558,248) scale(5.3216666666667)">
				<rect x="371.5" y="165.1" class="st1" width="27.3" height="27.3"/>
			</g>
			<g transform="translate(620,248) scale(5.3216666666667)">
				<path class="st1" d="M426.4,192.3L426.4,192.3c-7.7,0-13.6-5.9-13.6-13.6v-13.6H440v13.6C440,186.4,434.1,192.3,426.4,192.3z"/>
			</g>
			<g transform="translate(682,248) scale(5.3216666666667)">
				<circle class="st1" cx="467.6" cy="178.7" r="13.6"/>
			</g>
			<g transform="translate(310,279) scale(5.3216666666667)">
				<rect x="206.4" y="185.7" class="st1" width="27.3" height="27.3"/>
			</g>
			<g transform="translate(372,279) scale(5.3216666666667)">
				<path class="st1" d="M274.9,213h-13.6c-7.7,0-13.6-5.9-13.6-13.6v-13.6h27.3V213z"/>
			</g>
			<g transform="translate(403,279) scale(5.3216666666667)">
				<rect x="268.3" y="185.7" class="st1" width="27.3" height="27.3"/>
			</g>
			<g transform="translate(434,279) scale(5.3216666666667)">
				<path class="st1" d="M302.5,213h-13.6v-27.3h27.3v13.6C316.2,207.1,310.3,213,302.5,213z"/>
			</g>
			<g transform="translate(496,279) scale(5.3216666666667)">
				<path class="st1" d="M357.4,213h-13.6c-7.7,0-13.6-5.9-13.6-13.6v-13.6h27.3V213z"/>
			</g>
			<g transform="translate(527,279) scale(5.3216666666667)">
				<rect x="350.8" y="185.7" class="st1" width="27.3" height="27.3"/>
			</g>
			<g transform="translate(558,279) scale(5.3216666666667)">
				<path class="st1" d="M385.1,213h-13.6v-27.3h27.3v13.6C398.7,207.1,392.8,213,385.1,213z"/>
			</g>
			<g transform="translate(651,279) scale(5.3216666666667)">
				<circle class="st1" cx="447" cy="199.4" r="13.6"/>
			</g>
			<g transform="translate(124,310) scale(5.3216666666667)">
				<path class="st1" d="M109.8,233.6H96.2c-7.7,0-13.6-5.9-13.6-13.6l0,0c0-7.7,5.9-13.6,13.6-13.6h13.6V233.6z"/>
			</g>
			<g transform="translate(155,310) scale(5.3216666666667)">
				<rect x="103.2" y="206.4" class="st1" width="27.3" height="27.3"/>
			</g>
			<g transform="translate(186,310) scale(5.3216666666667)">
				<path class="st1" d="M137.4,233.6h-13.6v-27.3h13.6c7.7,0,13.6,5.9,13.6,13.6l0,0C151.1,227.7,145.2,233.6,137.4,233.6z"/>
			</g>
			<g transform="translate(248,310) scale(5.3216666666667)">
				<circle class="st1" cx="178.7" cy="220" r="13.6"/>
			</g>
			<g transform="translate(310,310) scale(5.3216666666667)">
				<rect x="206.4" y="206.4" class="st1" width="27.3" height="27.3"/>
			</g>
			<g transform="translate(341,310) scale(5.3216666666667)">
				<path class="st1" d="M254.3,233.6H227v-27.3h13.6c7.7,0,13.6,5.9,13.6,13.6V233.6z"/>
			</g>
			<g transform="translate(465,310) scale(5.3216666666667)">
				<circle class="st1" cx="323.2" cy="220" r="13.6"/>
			</g>
			<g transform="translate(527,310) scale(5.3216666666667)">
				<rect x="350.8" y="206.4" class="st1" width="27.3" height="27.3"/>
			</g>
			<g transform="translate(620,310) scale(5.3216666666667)">
				<circle class="st1" cx="426.4" cy="220" r="13.6"/>
			</g>
			<g transform="translate(713,310) scale(5.3216666666667)">
				<path class="st1" d="M501.9,233.6h-27.3V220c0-7.7,5.9-13.6,13.6-13.6h13.6V233.6z"/>
			</g>
			<g transform="translate(744,310) scale(5.3216666666667)">
				<rect x="495.3" y="206.4" class="st1" width="27.3" height="27.3"/>
			</g>
			<g transform="translate(775,310) scale(5.3216666666667)">
				<path class="st1" d="M543.2,233.6h-27.3v-27.3h13.6c7.7,0,13.6,5.9,13.6,13.6V233.6z"/>
			</g>
			<g transform="translate(868,310) scale(5.3216666666667)">
				<path class="st1" d="M605.1,233.6h-27.3V220c0-7.7,5.9-13.6,13.6-13.6h13.6V233.6z"/>
			</g>
			<g transform="translate(899,310) scale(5.3216666666667)">
				<rect x="598.5" y="206.4" class="st1" width="27.3" height="27.3"/>
			</g>
			<g transform="translate(930,310) scale(5.3216666666667)">
				<path class="st1" d="M646.3,233.6h-27.3v-27.3h13.6c7.7,0,13.6,5.9,13.6,13.6V233.6z"/>
			</g>
			<g transform="translate(93,341) scale(5.3216666666667)">
				<path class="st1" d="M89.2,254.3H61.9v-13.6c0-7.7,5.9-13.6,13.6-13.6l0,0c7.7,0,13.6,5.9,13.6,13.6V254.3z"/>
			</g>
			<g transform="translate(155,341) scale(5.3216666666667)">
				<rect x="103.2" y="227" class="st1" width="27.3" height="27.3"/>
			</g>
			<g transform="translate(310,341) scale(5.3216666666667)">
				<rect x="206.4" y="227" class="st1" width="27.3" height="27.3"/>
			</g>
			<g transform="translate(341,341) scale(5.3216666666667)">
				<path class="st1" d="M240.6,254.3H227V227h27.3v13.6C254.3,248.4,248.4,254.3,240.6,254.3z"/>
			</g>
			<g transform="translate(496,341) scale(5.3216666666667)">
				<path class="st1" d="M357.4,254.3h-27.3v-13.6c0-7.7,5.9-13.6,13.6-13.6h13.6V254.3z"/>
			</g>
			<g transform="translate(527,341) scale(5.3216666666667)">
				<rect x="350.8" y="227" class="st1" width="27.3" height="27.3"/>
			</g>
			<g transform="translate(558,341) scale(5.3216666666667)">
				<rect x="371.5" y="227" class="st1" width="27.3" height="27.3"/>
			</g>
			<g transform="translate(589,341) scale(5.3216666666667)">
				<path class="st1" d="M405.7,254.3h-13.6V227h13.6c7.7,0,13.6,5.9,13.6,13.6l0,0C419.3,248.4,413.4,254.3,405.7,254.3z"/>
			</g>
			<g transform="translate(713,341) scale(5.3216666666667)">
				<rect x="474.6" y="227" class="st1" width="27.3" height="27.3"/>
			</g>
			<g transform="translate(775,341) scale(5.3216666666667)">
				<rect x="515.9" y="227" class="st1" width="27.3" height="27.3"/>
			</g>
			<g transform="translate(806,341) scale(5.3216666666667)">
				<rect x="536.5" y="227" class="st1" width="27.3" height="27.3"/>
			</g>
			<g transform="translate(837,341) scale(5.3216666666667)">
				<rect x="557.2" y="227" class="st1" width="27.3" height="27.3"/>
			</g>
			<g transform="translate(868,341) scale(5.3216666666667)">
				<rect x="577.8" y="227" class="st1" width="27.3" height="27.3"/>
			</g>
			<g transform="translate(930,341) scale(5.3216666666667)">
				<path class="st1" d="M632.7,254.3L632.7,254.3c-7.7,0-13.6-5.9-13.6-13.6V227h27.3v13.6C646.3,248.4,640.4,254.3,632.7,254.3z"
					/>
			</g>
			<g transform="translate(93,372) scale(5.3216666666667)">
				<path class="st1" d="M89.2,274.9H75.5c-7.7,0-13.6-5.9-13.6-13.6v-13.6h27.3V274.9z"/>
			</g>
			<g transform="translate(124,372) scale(5.3216666666667)">
				<rect x="82.5" y="247.6" class="st1" width="27.3" height="27.3"/>
			</g>
			<g transform="translate(155,372) scale(5.3216666666667)">
				<rect x="103.2" y="247.6" class="st1" width="27.3" height="27.3"/>
			</g>
			<g transform="translate(186,372) scale(5.3216666666667)">
				<rect x="123.8" y="247.6" class="st1" width="27.3" height="27.3"/>
			</g>
			<g transform="translate(217,372) scale(5.3216666666667)">
				<rect x="144.5" y="247.6" class="st1" width="27.3" height="27.3"/>
			</g>
			<g transform="translate(248,372) scale(5.3216666666667)">
				<path class="st1" d="M178.7,274.9h-13.6v-27.3h13.6c7.7,0,13.6,5.9,13.6,13.6l0,0C192.3,269,186.4,274.9,178.7,274.9z"/>
			</g>
			<g transform="translate(310,372) scale(5.3216666666667)">
				<path class="st1" d="M220,274.9L220,274.9c-7.7,0-13.6-5.9-13.6-13.6v-13.6h27.3v13.6C233.6,269,227.7,274.9,220,274.9z"/>
			</g>
			<g transform="translate(372,372) scale(5.3216666666667)">
				<path class="st1" d="M274.9,274.9h-27.3v-13.6c0-7.7,5.9-13.6,13.6-13.6h13.6V274.9z"/>
			</g>
			<g transform="translate(403,372) scale(5.3216666666667)">
				<rect x="268.3" y="247.6" class="st1" width="27.3" height="27.3"/>
			</g>
			<g transform="translate(434,372) scale(5.3216666666667)">
				<rect x="288.9" y="247.6" class="st1" width="27.3" height="27.3"/>
			</g>
			<g transform="translate(465,372) scale(5.3216666666667)">
				<rect x="309.5" y="247.6" class="st1" width="27.3" height="27.3"/>
			</g>
			<g transform="translate(496,372) scale(5.3216666666667)">
				<path class="st1" d="M343.8,274.9h-13.6v-27.3h27.3v13.6C357.4,269,351.5,274.9,343.8,274.9z"/>
			</g>
			<g transform="translate(558,372) scale(5.3216666666667)">
				<path class="st1" d="M385.1,274.9L385.1,274.9c-7.7,0-13.6-5.9-13.6-13.6v-13.6h27.3v13.6C398.7,269,392.8,274.9,385.1,274.9z"
					/>
			</g>
			<g transform="translate(682,372) scale(5.3216666666667)">
				<path class="st1" d="M481.3,274.9H454v-13.6c0-7.7,5.9-13.6,13.6-13.6h13.6V274.9z"/>
			</g>
			<g transform="translate(713,372) scale(5.3216666666667)">
				<rect x="474.6" y="247.6" class="st1" width="27.3" height="27.3"/>
			</g>
			<g transform="translate(744,372) scale(5.3216666666667)">
				<rect x="495.3" y="247.6" class="st1" width="27.3" height="27.3"/>
			</g>
			<g transform="translate(775,372) scale(5.3216666666667)">
				<rect x="515.9" y="247.6" class="st1" width="27.3" height="27.3"/>
			</g>
			<g transform="translate(806,372) scale(5.3216666666667)">
				<rect x="536.5" y="247.6" class="st1" width="27.3" height="27.3"/>
			</g>
			<g transform="translate(837,372) scale(5.3216666666667)">
				<rect x="557.2" y="247.6" class="st1" width="27.3" height="27.3"/>
			</g>
			<g transform="translate(868,372) scale(5.3216666666667)">
				<path class="st1" d="M591.4,274.9h-13.6v-27.3h27.3v13.6C605.1,269,599.2,274.9,591.4,274.9z"/>
			</g>
			<g transform="translate(124,403) scale(5.3216666666667)">
				<path class="st1" d="M109.8,295.5H96.2c-7.7,0-13.6-5.9-13.6-13.6v-13.6h27.3V295.5z"/>
			</g>
			<g transform="translate(155,403) scale(5.3216666666667)">
				<rect x="103.2" y="268.3" class="st1" width="27.3" height="27.3"/>
			</g>
			<g transform="translate(279,403) scale(5.3216666666667)">
				<path class="st1" d="M213,295.5h-27.3v-13.6c0-7.7,5.9-13.6,13.6-13.6l0,0c7.7,0,13.6,5.9,13.6,13.6V295.5z"/>
			</g>
			<g transform="translate(341,403) scale(5.3216666666667)">
				<path class="st1" d="M254.3,295.5h-13.6c-7.7,0-13.6-5.9-13.6-13.6l0,0c0-7.7,5.9-13.6,13.6-13.6h13.6V295.5z"/>
			</g>
			<g transform="translate(372,403) scale(5.3216666666667)">
				<path class="st1" d="M261.3,295.5h-13.6v-27.3h27.3v13.6C274.9,289.6,269,295.5,261.3,295.5z"/>
			</g>
			<g transform="translate(589,403) scale(5.3216666666667)">
				<circle class="st1" cx="405.7" cy="281.9" r="13.6"/>
			</g>
			<g transform="translate(682,403) scale(5.3216666666667)">
				<rect x="454" y="268.3" class="st1" width="27.3" height="27.3"/>
			</g>
			<g transform="translate(713,403) scale(5.3216666666667)">
				<rect x="474.6" y="268.3" class="st1" width="27.3" height="27.3"/>
			</g>
			<g transform="translate(744,403) scale(5.3216666666667)">
				<path class="st1" d="M508.9,295.5h-13.6v-27.3h27.3v13.6C522.5,289.6,516.6,295.5,508.9,295.5z"/>
			</g>
			<g transform="translate(806,403) scale(5.3216666666667)">
				<path class="st1" d="M563.8,295.5h-13.6c-7.7,0-13.6-5.9-13.6-13.6v-13.6h27.3V295.5z"/>
			</g>
			<g transform="translate(837,403) scale(5.3216666666667)">
				<rect x="557.2" y="268.3" class="st1" width="27.3" height="27.3"/>
			</g>
			<g transform="translate(899,403) scale(5.3216666666667)">
				<path class="st1" d="M625.7,295.5h-27.3v-13.6c0-7.7,5.9-13.6,13.6-13.6l0,0c7.7,0,13.6,5.9,13.6,13.6V295.5z"/>
			</g>
			<g transform="translate(93,434) scale(5.3216666666667)">
				<circle class="st1" cx="75.5" cy="302.5" r="13.6"/>
			</g>
			<g transform="translate(155,434) scale(5.3216666666667)">
				<rect x="103.2" y="288.9" class="st1" width="27.3" height="27.3"/>
			</g>
			<g transform="translate(186,434) scale(5.3216666666667)">
				<rect x="123.8" y="288.9" class="st1" width="27.3" height="27.3"/>
			</g>
			<g transform="translate(217,434) scale(5.3216666666667)">
				<rect x="144.5" y="288.9" class="st1" width="27.3" height="27.3"/>
			</g>
			<g transform="translate(248,434) scale(5.3216666666667)">
				<rect x="165.1" y="288.9" class="st1" width="27.3" height="27.3"/>
			</g>
			<g transform="translate(279,434) scale(5.3216666666667)">
				<rect x="185.7" y="288.9" class="st1" width="27.3" height="27.3"/>
			</g>
			<g transform="translate(310,434) scale(5.3216666666667)">
				<path class="st1" d="M220,316.2h-13.6v-27.3H220c7.7,0,13.6,5.9,13.6,13.6l0,0C233.6,310.3,227.7,316.2,220,316.2z"/>
			</g>
			<g transform="translate(465,434) scale(5.3216666666667)">
				<path class="st1" d="M336.8,316.2h-13.6c-7.7,0-13.6-5.9-13.6-13.6l0,0c0-7.7,5.9-13.6,13.6-13.6h13.6V316.2z"/>
			</g>
			<g transform="translate(496,434) scale(5.3216666666667)">
				<rect x="330.2" y="288.9" class="st1" width="27.3" height="27.3"/>
			</g>
			<g transform="translate(527,434) scale(5.3216666666667)">
				<rect x="350.8" y="288.9" class="st1" width="27.3" height="27.3"/>
			</g>
			<g transform="translate(558,434) scale(5.3216666666667)">
				<path class="st1" d="M385.1,316.2h-13.6v-27.3h13.6c7.7,0,13.6,5.9,13.6,13.6l0,0C398.7,310.3,392.8,316.2,385.1,316.2z"/>
			</g>
			<g transform="translate(682,434) scale(5.3216666666667)">
				<rect x="454" y="288.9" class="st1" width="27.3" height="27.3"/>
			</g>
			<g transform="translate(713,434) scale(5.3216666666667)">
				<rect x="474.6" y="288.9" class="st1" width="27.3" height="27.3"/>
			</g>
			<g transform="translate(775,434) scale(5.3216666666667)">
				<circle class="st1" cx="529.5" cy="302.5" r="13.6"/>
			</g>
			<g transform="translate(837,434) scale(5.3216666666667)">
				<rect x="557.2" y="288.9" class="st1" width="27.3" height="27.3"/>
			</g>
			<g transform="translate(868,434) scale(5.3216666666667)">
				<rect x="577.8" y="288.9" class="st1" width="27.3" height="27.3"/>
			</g>
			<g transform="translate(899,434) scale(5.3216666666667)">
				<rect x="598.5" y="288.9" class="st1" width="27.3" height="27.3"/>
			</g>
			<g transform="translate(930,434) scale(5.3216666666667)">
				<path class="st1" d="M646.3,316.2h-27.3v-27.3h13.6c7.7,0,13.6,5.9,13.6,13.6V316.2z"/>
			</g>
			<g transform="translate(124,465) scale(5.3216666666667)">
				<path class="st1" d="M109.8,336.8H96.2c-7.7,0-13.6-5.9-13.6-13.6l0,0c0-7.7,5.9-13.6,13.6-13.6h13.6V336.8z"/>
			</g>
			<g transform="translate(155,465) scale(5.3216666666667)">
				<path class="st1" d="M116.8,336.8h-13.6v-27.3h27.3v13.6C130.4,330.9,124.5,336.8,116.8,336.8z"/>
			</g>
			<g transform="translate(217,465) scale(5.3216666666667)">
				<path class="st1" d="M158.1,336.8L158.1,336.8c-7.7,0-13.6-5.9-13.6-13.6v-13.6h27.3v13.6C171.7,330.9,165.8,336.8,158.1,336.8z
					"/>
			</g>
			<g transform="translate(279,465) scale(5.3216666666667)">
				<path class="st1" d="M199.4,336.8L199.4,336.8c-7.7,0-13.6-5.9-13.6-13.6v-13.6H213v13.6C213,330.9,207.1,336.8,199.4,336.8z"/>
			</g>
			<g transform="translate(341,465) scale(5.3216666666667)">
				<path class="st1" d="M254.3,336.8H227v-13.6c0-7.7,5.9-13.6,13.6-13.6h13.6V336.8z"/>
			</g>
			<g transform="translate(372,465) scale(5.3216666666667)">
				<path class="st1" d="M274.9,336.8h-27.3v-27.3h13.6c7.7,0,13.6,5.9,13.6,13.6V336.8z"/>
			</g>
			<g transform="translate(434,465) scale(5.3216666666667)">
				<path class="st1" d="M316.2,336.8h-27.3v-13.6c0-7.7,5.9-13.6,13.6-13.6l0,0c7.7,0,13.6,5.9,13.6,13.6V336.8z"/>
			</g>
			<g transform="translate(527,465) scale(5.3216666666667)">
				<path class="st1" d="M364.4,336.8L364.4,336.8c-7.7,0-13.6-5.9-13.6-13.6v-13.6h27.3v13.6C378.1,330.9,372.2,336.8,364.4,336.8z
					"/>
			</g>
			<g transform="translate(620,465) scale(5.3216666666667)">
				<path class="st1" d="M440,336.8h-27.3v-13.6c0-7.7,5.9-13.6,13.6-13.6H440V336.8z"/>
			</g>
			<g transform="translate(651,465) scale(5.3216666666667)">
				<rect x="433.4" y="309.5" class="st1" width="27.3" height="27.3"/>
			</g>
			<g transform="translate(682,465) scale(5.3216666666667)">
				<rect x="454" y="309.5" class="st1" width="27.3" height="27.3"/>
			</g>
			<g transform="translate(713,465) scale(5.3216666666667)">
				<rect x="474.6" y="309.5" class="st1" width="27.3" height="27.3"/>
			</g>
			<g transform="translate(744,465) scale(5.3216666666667)">
				<path class="st1" d="M508.9,336.8h-13.6v-27.3h13.6c7.7,0,13.6,5.9,13.6,13.6l0,0C522.5,330.9,516.6,336.8,508.9,336.8z"/>
			</g>
			<g transform="translate(806,465) scale(5.3216666666667)">
				<path class="st1" d="M563.8,336.8h-13.6c-7.7,0-13.6-5.9-13.6-13.6l0,0c0-7.7,5.9-13.6,13.6-13.6h13.6V336.8z"/>
			</g>
			<g transform="translate(837,465) scale(5.3216666666667)">
				<path class="st1" d="M570.8,336.8h-13.6v-27.3h27.3v13.6C584.4,330.9,578.5,336.8,570.8,336.8z"/>
			</g>
			<g transform="translate(899,465) scale(5.3216666666667)">
				<rect x="598.5" y="309.5" class="st1" width="27.3" height="27.3"/>
			</g>
			<g transform="translate(930,465) scale(5.3216666666667)">
				<path class="st1" d="M632.7,336.8h-13.6v-27.3h27.3v13.6C646.3,330.9,640.4,336.8,632.7,336.8z"/>
			</g>
			<g transform="translate(62,496) scale(5.3216666666667)">
				<circle class="st1" cx="54.9" cy="343.8" r="13.6"/>
			</g>
			<g transform="translate(248,496) scale(5.3216666666667)">
				<circle class="st1" cx="178.7" cy="343.8" r="13.6"/>
			</g>
			<g transform="translate(310,496) scale(5.3216666666667)">
				<path class="st1" d="M233.6,357.4h-27.3v-13.6c0-7.7,5.9-13.6,13.6-13.6h13.6V357.4z"/>
			</g>
			<g transform="translate(341,496) scale(5.3216666666667)">
				<rect x="227" y="330.2" class="st1" width="27.3" height="27.3"/>
			</g>
			<g transform="translate(372,496) scale(5.3216666666667)">
				<path class="st1" d="M261.3,357.4h-13.6v-27.3h27.3v13.6C274.9,351.5,269,357.4,261.3,357.4z"/>
			</g>
			<g transform="translate(434,496) scale(5.3216666666667)">
				<rect x="288.9" y="330.2" class="st1" width="27.3" height="27.3"/>
			</g>
			<g transform="translate(496,496) scale(5.3216666666667)">
				<circle class="st1" cx="343.8" cy="343.8" r="13.6"/>
			</g>
			<g transform="translate(620,496) scale(5.3216666666667)">
				<rect x="412.7" y="330.2" class="st1" width="27.3" height="27.3"/>
			</g>
			<g transform="translate(682,496) scale(5.3216666666667)">
				<path class="st1" d="M481.3,357.4h-13.6c-7.7,0-13.6-5.9-13.6-13.6v-13.6h27.3V357.4z"/>
			</g>
			<g transform="translate(713,496) scale(5.3216666666667)">
				<path class="st1" d="M488.3,357.4h-13.6v-27.3h27.3v13.6C501.9,351.5,496,357.4,488.3,357.4z"/>
			</g>
			<g transform="translate(775,496) scale(5.3216666666667)">
				<circle class="st1" cx="529.5" cy="343.8" r="13.6"/>
			</g>
			<g transform="translate(899,496) scale(5.3216666666667)">
				<path class="st1" d="M612.1,357.4L612.1,357.4c-7.7,0-13.6-5.9-13.6-13.6v-13.6h27.3v13.6C625.7,351.5,619.8,357.4,612.1,357.4z
					"/>
			</g>
			<g transform="translate(124,527) scale(5.3216666666667)">
				<path class="st1" d="M109.8,378.1H82.5v-13.6c0-7.7,5.9-13.6,13.6-13.6l0,0c7.7,0,13.6,5.9,13.6,13.6V378.1z"/>
			</g>
			<g transform="translate(279,527) scale(5.3216666666667)">
				<path class="st1" d="M213,378.1h-27.3v-13.6c0-7.7,5.9-13.6,13.6-13.6H213V378.1z"/>
			</g>
			<g transform="translate(310,527) scale(5.3216666666667)">
				<rect x="206.4" y="350.8" class="st1" width="27.3" height="27.3"/>
			</g>
			<g transform="translate(341,527) scale(5.3216666666667)">
				<path class="st1" d="M240.6,378.1H227v-27.3h27.3v13.6C254.3,372.2,248.4,378.1,240.6,378.1z"/>
			</g>
			<g transform="translate(434,527) scale(5.3216666666667)">
				<rect x="288.9" y="350.8" class="st1" width="27.3" height="27.3"/>
			</g>
			<g transform="translate(465,527) scale(5.3216666666667)">
				<path class="st1" d="M336.8,378.1h-27.3v-27.3h13.6c7.7,0,13.6,5.9,13.6,13.6V378.1z"/>
			</g>
			<g transform="translate(527,527) scale(5.3216666666667)">
				<circle class="st1" cx="364.4" cy="364.4" r="13.6"/>
			</g>
			<g transform="translate(620,527) scale(5.3216666666667)">
				<rect x="412.7" y="350.8" class="st1" width="27.3" height="27.3"/>
			</g>
			<g transform="translate(806,527) scale(5.3216666666667)">
				<path class="st1" d="M563.8,378.1h-13.6c-7.7,0-13.6-5.9-13.6-13.6l0,0c0-7.7,5.9-13.6,13.6-13.6h13.6V378.1z"/>
			</g>
			<g transform="translate(837,527) scale(5.3216666666667)">
				<path class="st1" d="M584.4,378.1h-27.3v-27.3h13.6c7.7,0,13.6,5.9,13.6,13.6V378.1z"/>
			</g>
			<g transform="translate(930,527) scale(5.3216666666667)">
				<path class="st1" d="M646.3,378.1h-27.3v-13.6c0-7.7,5.9-13.6,13.6-13.6l0,0c7.7,0,13.6,5.9,13.6,13.6V378.1z"/>
			</g>
			<g transform="translate(93,558) scale(5.3216666666667)">
				<path class="st1" d="M89.2,398.7H75.5c-7.7,0-13.6-5.9-13.6-13.6l0,0c0-7.7,5.9-13.6,13.6-13.6h13.6V398.7z"/>
			</g>
			<g transform="translate(124,558) scale(5.3216666666667)">
				<rect x="82.5" y="371.5" class="st1" width="27.3" height="27.3"/>
			</g>
			<g transform="translate(155,558) scale(5.3216666666667)">
				<path class="st1" d="M116.8,398.7h-13.6v-27.3h13.6c7.7,0,13.6,5.9,13.6,13.6l0,0C130.4,392.8,124.5,398.7,116.8,398.7z"/>
			</g>
			<g transform="translate(248,558) scale(5.3216666666667)">
				<path class="st1" d="M192.3,398.7h-13.6c-7.7,0-13.6-5.9-13.6-13.6l0,0c0-7.7,5.9-13.6,13.6-13.6h13.6V398.7z"/>
			</g>
			<g transform="translate(279,558) scale(5.3216666666667)">
				<rect x="185.7" y="371.5" class="st1" width="27.3" height="27.3"/>
			</g>
			<g transform="translate(310,558) scale(5.3216666666667)">
				<rect x="206.4" y="371.5" class="st1" width="27.3" height="27.3"/>
			</g>
			<g transform="translate(372,558) scale(5.3216666666667)">
				<path class="st1" d="M274.9,398.7h-27.3v-13.6c0-7.7,5.9-13.6,13.6-13.6h13.6V398.7z"/>
			</g>
			<g transform="translate(403,558) scale(5.3216666666667)">
				<rect x="268.3" y="371.5" class="st1" width="27.3" height="27.3"/>
			</g>
			<g transform="translate(434,558) scale(5.3216666666667)">
				<rect x="288.9" y="371.5" class="st1" width="27.3" height="27.3"/>
			</g>
			<g transform="translate(465,558) scale(5.3216666666667)">
				<rect x="309.5" y="371.5" class="st1" width="27.3" height="27.3"/>
			</g>
			<g transform="translate(496,558) scale(5.3216666666667)">
				<path class="st1" d="M357.4,398.7h-27.3v-27.3h13.6c7.7,0,13.6,5.9,13.6,13.6V398.7z"/>
			</g>
			<g transform="translate(620,558) scale(5.3216666666667)">
				<path class="st1" d="M426.4,398.7L426.4,398.7c-7.7,0-13.6-5.9-13.6-13.6v-13.6H440v13.6C440,392.8,434.1,398.7,426.4,398.7z"/>
			</g>
			<g transform="translate(682,558) scale(5.3216666666667)">
				<path class="st1" d="M481.3,398.7H454v-13.6c0-7.7,5.9-13.6,13.6-13.6l0,0c7.7,0,13.6,5.9,13.6,13.6V398.7z"/>
			</g>
			<g transform="translate(837,558) scale(5.3216666666667)">
				<path class="st1" d="M584.4,398.7h-13.6c-7.7,0-13.6-5.9-13.6-13.6v-13.6h27.3V398.7z"/>
			</g>
			<g transform="translate(868,558) scale(5.3216666666667)">
				<path class="st1" d="M591.4,398.7h-13.6v-27.3h13.6c7.7,0,13.6,5.9,13.6,13.6l0,0C605.1,392.8,599.2,398.7,591.4,398.7z"/>
			</g>
			<g transform="translate(930,558) scale(5.3216666666667)">
				<rect x="619.1" y="371.5" class="st1" width="27.3" height="27.3"/>
			</g>
			<g transform="translate(62,589) scale(5.3216666666667)">
				<path class="st1" d="M68.5,419.3H41.3v-13.6c0-7.7,5.9-13.6,13.6-13.6l0,0c7.7,0,13.6,5.9,13.6,13.6V419.3z"/>
			</g>
			<g transform="translate(186,589) scale(5.3216666666667)">
				<path class="st1" d="M151.1,419.3h-27.3v-13.6c0-7.7,5.9-13.6,13.6-13.6l0,0c7.7,0,13.6,5.9,13.6,13.6V419.3z"/>
			</g>
			<g transform="translate(310,589) scale(5.3216666666667)">
				<path class="st1" d="M220,419.3L220,419.3c-7.7,0-13.6-5.9-13.6-13.6v-13.6h27.3v13.6C233.6,413.4,227.7,419.3,220,419.3z"/>
			</g>
			<g transform="translate(372,589) scale(5.3216666666667)">
				<path class="st1" d="M261.3,419.3L261.3,419.3c-7.7,0-13.6-5.9-13.6-13.6v-13.6h27.3v13.6C274.9,413.4,269,419.3,261.3,419.3z"
					/>
			</g>
			<g transform="translate(434,589) scale(5.3216666666667)">
				<rect x="288.9" y="392.1" class="st1" width="27.3" height="27.3"/>
			</g>
			<g transform="translate(496,589) scale(5.3216666666667)">
				<path class="st1" d="M357.4,419.3h-13.6c-7.7,0-13.6-5.9-13.6-13.6v-13.6h27.3V419.3z"/>
			</g>
			<g transform="translate(527,589) scale(5.3216666666667)">
				<rect x="350.8" y="392.1" class="st1" width="27.3" height="27.3"/>
			</g>
			<g transform="translate(558,589) scale(5.3216666666667)">
				<path class="st1" d="M398.7,419.3h-27.3v-27.3h13.6c7.7,0,13.6,5.9,13.6,13.6V419.3z"/>
			</g>
			<g transform="translate(651,589) scale(5.3216666666667)">
				<path class="st1" d="M460.6,419.3H447c-7.7,0-13.6-5.9-13.6-13.6l0,0c0-7.7,5.9-13.6,13.6-13.6h13.6V419.3z"/>
			</g>
			<g transform="translate(682,589) scale(5.3216666666667)">
				<rect x="454" y="392.1" class="st1" width="27.3" height="27.3"/>
			</g>
			<g transform="translate(744,589) scale(5.3216666666667)">
				<path class="st1" d="M522.5,419.3h-27.3v-13.6c0-7.7,5.9-13.6,13.6-13.6h13.6V419.3z"/>
			</g>
			<g transform="translate(775,589) scale(5.3216666666667)">
				<rect x="515.9" y="392.1" class="st1" width="27.3" height="27.3"/>
			</g>
			<g transform="translate(806,589) scale(5.3216666666667)">
				<path class="st1" d="M563.8,419.3h-27.3v-27.3h13.6c7.7,0,13.6,5.9,13.6,13.6V419.3z"/>
			</g>
			<g transform="translate(899,589) scale(5.3216666666667)">
				<path class="st1" d="M625.7,419.3h-13.6c-7.7,0-13.6-5.9-13.6-13.6l0,0c0-7.7,5.9-13.6,13.6-13.6h13.6V419.3z"/>
			</g>
			<g transform="translate(930,589) scale(5.3216666666667)">
				<path class="st1" d="M632.7,419.3h-13.6v-27.3h27.3v13.6C646.3,413.4,640.4,419.3,632.7,419.3z"/>
			</g>
			<g transform="translate(62,620) scale(5.3216666666667)">
				<rect x="41.3" y="412.7" class="st1" width="27.3" height="27.3"/>
			</g>
			<g transform="translate(124,620) scale(5.3216666666667)">
				<path class="st1" d="M109.8,440H96.2c-7.7,0-13.6-5.9-13.6-13.6l0,0c0-7.7,5.9-13.6,13.6-13.6h13.6V440z"/>
			</g>
			<g transform="translate(155,620) scale(5.3216666666667)">
				<rect x="103.2" y="412.7" class="st1" width="27.3" height="27.3"/>
			</g>
			<g transform="translate(186,620) scale(5.3216666666667)">
				<rect x="123.8" y="412.7" class="st1" width="27.3" height="27.3"/>
			</g>
			<g transform="translate(217,620) scale(5.3216666666667)">
				<rect x="144.5" y="412.7" class="st1" width="27.3" height="27.3"/>
			</g>
			<g transform="translate(248,620) scale(5.3216666666667)">
				<rect x="165.1" y="412.7" class="st1" width="27.3" height="27.3"/>
			</g>
			<g transform="translate(279,620) scale(5.3216666666667)">
				<path class="st1" d="M213,440h-27.3v-27.3h13.6c7.7,0,13.6,5.9,13.6,13.6V440z"/>
			</g>
			<g transform="translate(341,620) scale(5.3216666666667)">
				<circle class="st1" cx="240.6" cy="426.4" r="13.6"/>
			</g>
			<g transform="translate(403,620) scale(5.3216666666667)">
				<path class="st1" d="M295.5,440h-13.6c-7.7,0-13.6-5.9-13.6-13.6l0,0c0-7.7,5.9-13.6,13.6-13.6h13.6V440z"/>
			</g>
			<g transform="translate(434,620) scale(5.3216666666667)">
				<rect x="288.9" y="412.7" class="st1" width="27.3" height="27.3"/>
			</g>
			<g transform="translate(465,620) scale(5.3216666666667)">
				<path class="st1" d="M336.8,440h-27.3v-27.3h13.6c7.7,0,13.6,5.9,13.6,13.6V440z"/>
			</g>
			<g transform="translate(527,620) scale(5.3216666666667)">
				<rect x="350.8" y="412.7" class="st1" width="27.3" height="27.3"/>
			</g>
			<g transform="translate(558,620) scale(5.3216666666667)">
				<path class="st1" d="M385.1,440h-13.6v-27.3h27.3v13.6C398.7,434.1,392.8,440,385.1,440z"/>
			</g>
			<g transform="translate(620,620) scale(5.3216666666667)">
				<circle class="st1" cx="426.4" cy="426.4" r="13.6"/>
			</g>
			<g transform="translate(682,620) scale(5.3216666666667)">
				<rect x="454" y="412.7" class="st1" width="27.3" height="27.3"/>
			</g>
			<g transform="translate(744,620) scale(5.3216666666667)">
				<rect x="495.3" y="412.7" class="st1" width="27.3" height="27.3"/>
			</g>
			<g transform="translate(806,620) scale(5.3216666666667)">
				<path class="st1" d="M550.2,440L550.2,440c-7.7,0-13.6-5.9-13.6-13.6v-13.6h27.3v13.6C563.8,434.1,557.9,440,550.2,440z"/>
			</g>
			<g transform="translate(868,620) scale(5.3216666666667)">
				<circle class="st1" cx="591.4" cy="426.4" r="13.6"/>
			</g>
			<g transform="translate(62,651) scale(5.3216666666667)">
				<rect x="41.3" y="433.4" class="st1" width="27.3" height="27.3"/>
			</g>
			<g transform="translate(186,651) scale(5.3216666666667)">
				<path class="st1" d="M137.4,460.6L137.4,460.6c-7.7,0-13.6-5.9-13.6-13.6v-13.6h27.3V447C151.1,454.7,145.2,460.6,137.4,460.6z"
					/>
			</g>
			<g transform="translate(279,651) scale(5.3216666666667)">
				<rect x="185.7" y="433.4" class="st1" width="27.3" height="27.3"/>
			</g>
			<g transform="translate(372,651) scale(5.3216666666667)">
				<circle class="st1" cx="261.3" cy="447" r="13.6"/>
			</g>
			<g transform="translate(465,651) scale(5.3216666666667)">
				<path class="st1" d="M336.8,460.6h-13.6c-7.7,0-13.6-5.9-13.6-13.6v-13.6h27.3V460.6z"/>
			</g>
			<g transform="translate(496,651) scale(5.3216666666667)">
				<rect x="330.2" y="433.4" class="st1" width="27.3" height="27.3"/>
			</g>
			<g transform="translate(527,651) scale(5.3216666666667)">
				<rect x="350.8" y="433.4" class="st1" width="27.3" height="27.3"/>
			</g>
			<g transform="translate(682,651) scale(5.3216666666667)">
				<rect x="454" y="433.4" class="st1" width="27.3" height="27.3"/>
			</g>
			<g transform="translate(744,651) scale(5.3216666666667)">
				<rect x="495.3" y="433.4" class="st1" width="27.3" height="27.3"/>
			</g>
			<g transform="translate(775,651) scale(5.3216666666667)">
				<path class="st1" d="M543.2,460.6h-27.3v-27.3h13.6c7.7,0,13.6,5.9,13.6,13.6V460.6z"/>
			</g>
			<g transform="translate(899,651) scale(5.3216666666667)">
				<path class="st1" d="M625.7,460.6h-13.6c-7.7,0-13.6-5.9-13.6-13.6l0,0c0-7.7,5.9-13.6,13.6-13.6h13.6V460.6z"/>
			</g>
			<g transform="translate(930,651) scale(5.3216666666667)">
				<path class="st1" d="M632.7,460.6h-13.6v-27.3h13.6c7.7,0,13.6,5.9,13.6,13.6l0,0C646.3,454.7,640.4,460.6,632.7,460.6z"/>
			</g>
			<g transform="translate(62,682) scale(5.3216666666667)">
				<path class="st1" d="M54.9,481.3L54.9,481.3c-7.7,0-13.6-5.9-13.6-13.6V454h27.3v13.6C68.5,475.4,62.6,481.3,54.9,481.3z"/>
			</g>
			<g transform="translate(124,682) scale(5.3216666666667)">
				<path class="st1" d="M109.8,481.3H96.2c-7.7,0-13.6-5.9-13.6-13.6l0,0c0-7.7,5.9-13.6,13.6-13.6h13.6V481.3z"/>
			</g>
			<g transform="translate(155,682) scale(5.3216666666667)">
				<path class="st1" d="M116.8,481.3h-13.6V454h13.6c7.7,0,13.6,5.9,13.6,13.6l0,0C130.4,475.4,124.5,481.3,116.8,481.3z"/>
			</g>
			<g transform="translate(217,682) scale(5.3216666666667)">
				<path class="st1" d="M171.7,481.3h-13.6c-7.7,0-13.6-5.9-13.6-13.6l0,0c0-7.7,5.9-13.6,13.6-13.6h13.6V481.3z"/>
			</g>
			<g transform="translate(248,682) scale(5.3216666666667)">
				<rect x="165.1" y="454" class="st1" width="27.3" height="27.3"/>
			</g>
			<g transform="translate(279,682) scale(5.3216666666667)">
				<rect x="185.7" y="454" class="st1" width="27.3" height="27.3"/>
			</g>
			<g transform="translate(310,682) scale(5.3216666666667)">
				<path class="st1" d="M233.6,481.3h-27.3V454H220c7.7,0,13.6,5.9,13.6,13.6V481.3z"/>
			</g>
			<g transform="translate(403,682) scale(5.3216666666667)">
				<path class="st1" d="M295.5,481.3h-27.3v-13.6c0-7.7,5.9-13.6,13.6-13.6h13.6V481.3z"/>
			</g>
			<g transform="translate(434,682) scale(5.3216666666667)">
				<path class="st1" d="M316.2,481.3h-27.3V454h13.6c7.7,0,13.6,5.9,13.6,13.6V481.3z"/>
			</g>
			<g transform="translate(496,682) scale(5.3216666666667)">
				<rect x="330.2" y="454" class="st1" width="27.3" height="27.3"/>
			</g>
			<g transform="translate(527,682) scale(5.3216666666667)">
				<rect x="350.8" y="454" class="st1" width="27.3" height="27.3"/>
			</g>
			<g transform="translate(558,682) scale(5.3216666666667)">
				<path class="st1" d="M385.1,481.3h-13.6V454h13.6c7.7,0,13.6,5.9,13.6,13.6l0,0C398.7,475.4,392.8,481.3,385.1,481.3z"/>
			</g>
			<g transform="translate(651,682) scale(5.3216666666667)">
				<path class="st1" d="M460.6,481.3h-27.3v-13.6c0-7.7,5.9-13.6,13.6-13.6h13.6V481.3z"/>
			</g>
			<g transform="translate(682,682) scale(5.3216666666667)">
				<rect x="454" y="454" class="st1" width="27.3" height="27.3"/>
			</g>
			<g transform="translate(713,682) scale(5.3216666666667)">
				<rect x="474.6" y="454" class="st1" width="27.3" height="27.3"/>
			</g>
			<g transform="translate(744,682) scale(5.3216666666667)">
				<rect x="495.3" y="454" class="st1" width="27.3" height="27.3"/>
			</g>
			<g transform="translate(775,682) scale(5.3216666666667)">
				<rect x="515.9" y="454" class="st1" width="27.3" height="27.3"/>
			</g>
			<g transform="translate(806,682) scale(5.3216666666667)">
				<path class="st1" d="M563.8,481.3h-27.3V454h13.6c7.7,0,13.6,5.9,13.6,13.6V481.3z"/>
			</g>
			<g transform="translate(868,682) scale(5.3216666666667)">
				<circle class="st1" cx="591.4" cy="467.6" r="13.6"/>
			</g>
			<g transform="translate(310,713) scale(5.3216666666667)">
				<path class="st1" d="M233.6,501.9H220c-7.7,0-13.6-5.9-13.6-13.6v-13.6h27.3V501.9z"/>
			</g>
			<g transform="translate(341,713) scale(5.3216666666667)">
				<rect x="227" y="474.6" class="st1" width="27.3" height="27.3"/>
			</g>
			<g transform="translate(372,713) scale(5.3216666666667)">
				<rect x="247.6" y="474.6" class="st1" width="27.3" height="27.3"/>
			</g>
			<g transform="translate(403,713) scale(5.3216666666667)">
				<rect x="268.3" y="474.6" class="st1" width="27.3" height="27.3"/>
			</g>
			<g transform="translate(434,713) scale(5.3216666666667)">
				<rect x="288.9" y="474.6" class="st1" width="27.3" height="27.3"/>
			</g>
			<g transform="translate(465,713) scale(5.3216666666667)">
				<rect x="309.5" y="474.6" class="st1" width="27.3" height="27.3"/>
			</g>
			<g transform="translate(496,713) scale(5.3216666666667)">
				<rect x="330.2" y="474.6" class="st1" width="27.3" height="27.3"/>
			</g>
			<g transform="translate(527,713) scale(5.3216666666667)">
				<rect x="350.8" y="474.6" class="st1" width="27.3" height="27.3"/>
			</g>
			<g transform="translate(589,713) scale(5.3216666666667)">
				<path class="st1" d="M419.3,501.9h-27.3v-13.6c0-7.7,5.9-13.6,13.6-13.6h13.6V501.9z"/>
			</g>
			<g transform="translate(620,713) scale(5.3216666666667)">
				<rect x="412.7" y="474.6" class="st1" width="27.3" height="27.3"/>
			</g>
			<g transform="translate(651,713) scale(5.3216666666667)">
				<rect x="433.4" y="474.6" class="st1" width="27.3" height="27.3"/>
			</g>
			<g transform="translate(682,713) scale(5.3216666666667)">
				<rect x="454" y="474.6" class="st1" width="27.3" height="27.3"/>
			</g>
			<g transform="translate(806,713) scale(5.3216666666667)">
				<rect x="536.5" y="474.6" class="st1" width="27.3" height="27.3"/>
			</g>
			<g transform="translate(837,713) scale(5.3216666666667)">
				<path class="st1" d="M570.8,501.9h-13.6v-27.3h13.6c7.7,0,13.6,5.9,13.6,13.6l0,0C584.4,496,578.5,501.9,570.8,501.9z"/>
			</g>
			<g transform="translate(899,713) scale(5.3216666666667)">
				<path class="st1" d="M625.7,501.9h-13.6c-7.7,0-13.6-5.9-13.6-13.6l0,0c0-7.7,5.9-13.6,13.6-13.6h13.6V501.9z"/>
			</g>
			<g transform="translate(930,713) scale(5.3216666666667)">
				<path class="st1" d="M632.7,501.9h-13.6v-27.3h13.6c7.7,0,13.6,5.9,13.6,13.6l0,0C646.3,496,640.4,501.9,632.7,501.9z"/>
			</g>
			<g transform="translate(403,744) scale(5.3216666666667)">
				<path class="st1" d="M281.9,522.5L281.9,522.5c-7.7,0-13.6-5.9-13.6-13.6v-13.6h27.3v13.6C295.5,516.6,289.6,522.5,281.9,522.5z
					"/>
			</g>
			<g transform="translate(496,744) scale(5.3216666666667)">
				<path class="st1" d="M357.4,522.5h-13.6c-7.7,0-13.6-5.9-13.6-13.6v-13.6h27.3V522.5z"/>
			</g>
			<g transform="translate(527,744) scale(5.3216666666667)">
				<rect x="350.8" y="495.3" class="st1" width="27.3" height="27.3"/>
			</g>
			<g transform="translate(589,744) scale(5.3216666666667)">
				<rect x="392.1" y="495.3" class="st1" width="27.3" height="27.3"/>
			</g>
			<g transform="translate(651,744) scale(5.3216666666667)">
				<rect x="433.4" y="495.3" class="st1" width="27.3" height="27.3"/>
			</g>
			<g transform="translate(682,744) scale(5.3216666666667)">
				<rect x="454" y="495.3" class="st1" width="27.3" height="27.3"/>
			</g>
			<g transform="translate(744,744) scale(5.3216666666667)">
				<circle class="st1" cx="508.9" cy="508.9" r="13.6"/>
			</g>
			<g transform="translate(806,744) scale(5.3216666666667)">
				<rect x="536.5" y="495.3" class="st1" width="27.3" height="27.3"/>
			</g>
			<g transform="translate(527,775) scale(5.3216666666667)">
				<rect x="350.8" y="515.9" class="st1" width="27.3" height="27.3"/>
			</g>
			<g transform="translate(589,775) scale(5.3216666666667)">
				<rect x="392.1" y="515.9" class="st1" width="27.3" height="27.3"/>
			</g>
			<g transform="translate(620,775) scale(5.3216666666667)">
				<rect x="412.7" y="515.9" class="st1" width="27.3" height="27.3"/>
			</g>
			<g transform="translate(651,775) scale(5.3216666666667)">
				<rect x="433.4" y="515.9" class="st1" width="27.3" height="27.3"/>
			</g>
			<g transform="translate(682,775) scale(5.3216666666667)">
				<rect x="454" y="515.9" class="st1" width="27.3" height="27.3"/>
			</g>
			<g transform="translate(806,775) scale(5.3216666666667)">
				<rect x="536.5" y="515.9" class="st1" width="27.3" height="27.3"/>
			</g>
			<g transform="translate(837,775) scale(5.3216666666667)">
				<path class="st1" d="M584.4,543.2h-27.3v-27.3h13.6c7.7,0,13.6,5.9,13.6,13.6V543.2z"/>
			</g>
			<g transform="translate(310,806) scale(5.3216666666667)">
				<path class="st1" d="M233.6,563.8h-27.3v-13.6c0-7.7,5.9-13.6,13.6-13.6h13.6V563.8z"/>
			</g>
			<g transform="translate(341,806) scale(5.3216666666667)">
				<rect x="227" y="536.5" class="st1" width="27.3" height="27.3"/>
			</g>
			<g transform="translate(372,806) scale(5.3216666666667)">
				<path class="st1" d="M261.3,563.8h-13.6v-27.3h13.6c7.7,0,13.6,5.9,13.6,13.6l0,0C274.9,557.9,269,563.8,261.3,563.8z"/>
			</g>
			<g transform="translate(465,806) scale(5.3216666666667)">
				<path class="st1" d="M336.8,563.8h-13.6c-7.7,0-13.6-5.9-13.6-13.6l0,0c0-7.7,5.9-13.6,13.6-13.6h13.6V563.8z"/>
			</g>
			<g transform="translate(496,806) scale(5.3216666666667)">
				<rect x="330.2" y="536.5" class="st1" width="27.3" height="27.3"/>
			</g>
			<g transform="translate(527,806) scale(5.3216666666667)">
				<rect x="350.8" y="536.5" class="st1" width="27.3" height="27.3"/>
			</g>
			<g transform="translate(558,806) scale(5.3216666666667)">
				<rect x="371.5" y="536.5" class="st1" width="27.3" height="27.3"/>
			</g>
			<g transform="translate(589,806) scale(5.3216666666667)">
				<rect x="392.1" y="536.5" class="st1" width="27.3" height="27.3"/>
			</g>
			<g transform="translate(620,806) scale(5.3216666666667)">
				<rect x="412.7" y="536.5" class="st1" width="27.3" height="27.3"/>
			</g>
			<g transform="translate(682,806) scale(5.3216666666667)">
				<rect x="454" y="536.5" class="st1" width="27.3" height="27.3"/>
			</g>
			<g transform="translate(713,806) scale(5.3216666666667)">
				<rect x="474.6" y="536.5" class="st1" width="27.3" height="27.3"/>
			</g>
			<g transform="translate(744,806) scale(5.3216666666667)">
				<rect x="495.3" y="536.5" class="st1" width="27.3" height="27.3"/>
			</g>
			<g transform="translate(775,806) scale(5.3216666666667)">
				<rect x="515.9" y="536.5" class="st1" width="27.3" height="27.3"/>
			</g>
			<g transform="translate(806,806) scale(5.3216666666667)">
				<rect x="536.5" y="536.5" class="st1" width="27.3" height="27.3"/>
			</g>
			<g transform="translate(837,806) scale(5.3216666666667)">
				<rect x="557.2" y="536.5" class="st1" width="27.3" height="27.3"/>
			</g>
			<g transform="translate(868,806) scale(5.3216666666667)">
				<rect x="577.8" y="536.5" class="st1" width="27.3" height="27.3"/>
			</g>
			<g transform="translate(899,806) scale(5.3216666666667)">
				<rect x="598.5" y="536.5" class="st1" width="27.3" height="27.3"/>
			</g>
			<g transform="translate(930,806) scale(5.3216666666667)">
				<path class="st1" d="M632.7,563.8h-13.6v-27.3h13.6c7.7,0,13.6,5.9,13.6,13.6l0,0C646.3,557.9,640.4,563.8,632.7,563.8z"/>
			</g>
			<g transform="translate(310,837) scale(5.3216666666667)">
				<rect x="206.4" y="557.2" class="st1" width="27.3" height="27.3"/>
			</g>
			<g transform="translate(341,837) scale(5.3216666666667)">
				<rect x="227" y="557.2" class="st1" width="27.3" height="27.3"/>
			</g>
			<g transform="translate(434,837) scale(5.3216666666667)">
				<path class="st1" d="M316.2,584.4h-27.3v-13.6c0-7.7,5.9-13.6,13.6-13.6l0,0c7.7,0,13.6,5.9,13.6,13.6V584.4z"/>
			</g>
			<g transform="translate(496,837) scale(5.3216666666667)">
				<rect x="330.2" y="557.2" class="st1" width="27.3" height="27.3"/>
			</g>
			<g transform="translate(527,837) scale(5.3216666666667)">
				<rect x="350.8" y="557.2" class="st1" width="27.3" height="27.3"/>
			</g>
			<g transform="translate(558,837) scale(5.3216666666667)">
				<rect x="371.5" y="557.2" class="st1" width="27.3" height="27.3"/>
			</g>
			<g transform="translate(620,837) scale(5.3216666666667)">
				<rect x="412.7" y="557.2" class="st1" width="27.3" height="27.3"/>
			</g>
			<g transform="translate(651,837) scale(5.3216666666667)">
				<rect x="433.4" y="557.2" class="st1" width="27.3" height="27.3"/>
			</g>
			<g transform="translate(682,837) scale(5.3216666666667)">
				<rect x="454" y="557.2" class="st1" width="27.3" height="27.3"/>
			</g>
			<g transform="translate(713,837) scale(5.3216666666667)">
				<rect x="474.6" y="557.2" class="st1" width="27.3" height="27.3"/>
			</g>
			<g transform="translate(775,837) scale(5.3216666666667)">
				<rect x="515.9" y="557.2" class="st1" width="27.3" height="27.3"/>
			</g>
			<g transform="translate(837,837) scale(5.3216666666667)">
				<rect x="557.2" y="557.2" class="st1" width="27.3" height="27.3"/>
			</g>
			<g transform="translate(868,837) scale(5.3216666666667)">
				<rect x="577.8" y="557.2" class="st1" width="27.3" height="27.3"/>
			</g>
			<g transform="translate(310,868) scale(5.3216666666667)">
				<path class="st1" d="M233.6,605.1H220c-7.7,0-13.6-5.9-13.6-13.6v-13.6h27.3V605.1z"/>
			</g>
			<g transform="translate(341,868) scale(5.3216666666667)">
				<path class="st1" d="M240.6,605.1H227v-27.3h27.3v13.6C254.3,599.2,248.4,605.1,240.6,605.1z"/>
			</g>
			<g transform="translate(403,868) scale(5.3216666666667)">
				<path class="st1" d="M295.5,605.1h-13.6c-7.7,0-13.6-5.9-13.6-13.6l0,0c0-7.7,5.9-13.6,13.6-13.6h13.6V605.1z"/>
			</g>
			<g transform="translate(434,868) scale(5.3216666666667)">
				<rect x="288.9" y="577.8" class="st1" width="27.3" height="27.3"/>
			</g>
			<g transform="translate(496,868) scale(5.3216666666667)">
				<rect x="330.2" y="577.8" class="st1" width="27.3" height="27.3"/>
			</g>
			<g transform="translate(527,868) scale(5.3216666666667)">
				<rect x="350.8" y="577.8" class="st1" width="27.3" height="27.3"/>
			</g>
			<g transform="translate(558,868) scale(5.3216666666667)">
				<path class="st1" d="M385.1,605.1h-13.6v-27.3h27.3v13.6C398.7,599.2,392.8,605.1,385.1,605.1z"/>
			</g>
			<g transform="translate(620,868) scale(5.3216666666667)">
				<path class="st1" d="M440,605.1h-13.6c-7.7,0-13.6-5.9-13.6-13.6v-13.6H440V605.1z"/>
			</g>
			<g transform="translate(651,868) scale(5.3216666666667)">
				<rect x="433.4" y="577.8" class="st1" width="27.3" height="27.3"/>
			</g>
			<g transform="translate(682,868) scale(5.3216666666667)">
				<rect x="454" y="577.8" class="st1" width="27.3" height="27.3"/>
			</g>
			<g transform="translate(713,868) scale(5.3216666666667)">
				<rect x="474.6" y="577.8" class="st1" width="27.3" height="27.3"/>
			</g>
			<g transform="translate(744,868) scale(5.3216666666667)">
				<rect x="495.3" y="577.8" class="st1" width="27.3" height="27.3"/>
			</g>
			<g transform="translate(775,868) scale(5.3216666666667)">
				<rect x="515.9" y="577.8" class="st1" width="27.3" height="27.3"/>
			</g>
			<g transform="translate(806,868) scale(5.3216666666667)">
				<rect x="536.5" y="577.8" class="st1" width="27.3" height="27.3"/>
			</g>
			<g transform="translate(837,868) scale(5.3216666666667)">
				<rect x="557.2" y="577.8" class="st1" width="27.3" height="27.3"/>
			</g>
			<g transform="translate(868,868) scale(5.3216666666667)">
				<rect x="577.8" y="577.8" class="st1" width="27.3" height="27.3"/>
			</g>
			<g transform="translate(899,868) scale(5.3216666666667)">
				<path class="st1" d="M625.7,605.1h-27.3v-27.3h13.6c7.7,0,13.6,5.9,13.6,13.6V605.1z"/>
			</g>
			<g transform="translate(372,899) scale(5.3216666666667)">
				<path class="st1" d="M274.9,625.7h-27.3v-13.6c0-7.7,5.9-13.6,13.6-13.6l0,0c7.7,0,13.6,5.9,13.6,13.6V625.7z"/>
			</g>
			<g transform="translate(434,899) scale(5.3216666666667)">
				<path class="st1" d="M316.2,625.7h-13.6c-7.7,0-13.6-5.9-13.6-13.6v-13.6h27.3V625.7z"/>
			</g>
			<g transform="translate(465,899) scale(5.3216666666667)">
				<rect x="309.5" y="598.5" class="st1" width="27.3" height="27.3"/>
			</g>
			<g transform="translate(496,899) scale(5.3216666666667)">
				<rect x="330.2" y="598.5" class="st1" width="27.3" height="27.3"/>
			</g>
			<g transform="translate(527,899) scale(5.3216666666667)">
				<rect x="350.8" y="598.5" class="st1" width="27.3" height="27.3"/>
			</g>
			<g transform="translate(682,899) scale(5.3216666666667)">
				<path class="st1" d="M481.3,625.7h-13.6c-7.7,0-13.6-5.9-13.6-13.6v-13.6h27.3V625.7z"/>
			</g>
			<g transform="translate(713,899) scale(5.3216666666667)">
				<rect x="474.6" y="598.5" class="st1" width="27.3" height="27.3"/>
			</g>
			<g transform="translate(744,899) scale(5.3216666666667)">
				<path class="st1" d="M508.9,625.7h-13.6v-27.3h27.3v13.6C522.5,619.8,516.6,625.7,508.9,625.7z"/>
			</g>
			<g transform="translate(806,899) scale(5.3216666666667)">
				<rect x="536.5" y="598.5" class="st1" width="27.3" height="27.3"/>
			</g>
			<g transform="translate(837,899) scale(5.3216666666667)">
				<path class="st1" d="M570.8,625.7h-13.6v-27.3h27.3v13.6C584.4,619.8,578.5,625.7,570.8,625.7z"/>
			</g>
			<g transform="translate(899,899) scale(5.3216666666667)">
				<path class="st1" d="M612.1,625.7L612.1,625.7c-7.7,0-13.6-5.9-13.6-13.6v-13.6h27.3v13.6C625.7,619.8,619.8,625.7,612.1,625.7z
					"/>
			</g>
			<g transform="translate(372,930) scale(5.3216666666667)">
				<path class="st1" d="M261.3,646.3L261.3,646.3c-7.7,0-13.6-5.9-13.6-13.6v-13.6h27.3v13.6C274.9,640.4,269,646.3,261.3,646.3z"
					/>
			</g>
			<g transform="translate(527,930) scale(5.3216666666667)">
				<path class="st1" d="M378.1,646.3h-13.6c-7.7,0-13.6-5.9-13.6-13.6v-13.6h27.3V646.3z"/>
			</g>
			<g transform="translate(558,930) scale(5.3216666666667)">
				<rect x="371.5" y="619.1" class="st1" width="27.3" height="27.3"/>
			</g>
			<g transform="translate(589,930) scale(5.3216666666667)">
				<path class="st1" d="M405.7,646.3h-13.6v-27.3h13.6c7.7,0,13.6,5.9,13.6,13.6l0,0C419.3,640.4,413.4,646.3,405.7,646.3z"/>
			</g>
			<g transform="translate(651,930) scale(5.3216666666667)">
				<circle class="st1" cx="447" cy="632.7" r="13.6"/>
			</g>
			<g transform="translate(806,930) scale(5.3216666666667)">
				<path class="st1" d="M550.2,646.3L550.2,646.3c-7.7,0-13.6-5.9-13.6-13.6v-13.6h27.3v13.6C563.8,640.4,557.9,646.3,550.2,646.3z
					"/>
			</g>
			<g transform="translate(868,930) scale(5.3216666666667)">
				<circle class="st1" cx="591.4" cy="632.7" r="13.6"/>
			</g>
		</g>
	</g>
</mask>
<rect x="0" y="0" class="st2" width="4647.1" height="4647.1"/>
<g transform="translate(62,62)">
	<g transform="scale(15.5)">
		<path class="st3" d="M34.6,77.8h23.2c10.9,0,20-9.1,20-20V34.6c0-11.4-9.1-20.4-20.4-20.4H34.2c-10.9,0-20,9.1-20,20v23.2
			C14.2,68.7,23.3,77.8,34.6,77.8z M68.7,36v20c0,6.8-5.9,12.7-12.7,12.7H36c-7.3,0-12.7-5.5-12.7-12.7V36c0-6.8,5.9-12.7,12.7-12.7
			h20C63.2,23.3,68.7,28.7,68.7,36z"/>
	</g>
</g>
<g transform="translate(124,124)">
	<g transform="scale(15.5)">
		<circle class="st3" cx="42" cy="42" r="13.6"/>
	</g>
</g>
<g transform="translate(744,62)">
	<g transform="scale(15.5)">
		<path class="st3" d="M190.5,77.8h23.2c10.9,0,20-9.1,20-20V34.6c0-11.4-9.1-20.4-20.4-20.4H190c-10.9,0-20,9.1-20,20v23.2
			C170,68.7,179.1,77.8,190.5,77.8z M224.6,36v20c0,6.8-5.9,12.7-12.7,12.7h-20c-7.3,0-12.7-5.5-12.7-12.7V36
			c0-6.8,5.9-12.7,12.7-12.7h20C219.1,23.3,224.6,28.7,224.6,36z"/>
	</g>
</g>
<g transform="translate(806,124)">
	<g transform="scale(15.5)">
		<circle class="st3" cx="197.8" cy="42" r="13.6"/>
	</g>
</g>
<g transform="translate(62,744)">
	<g transform="scale(15.5)">
		<path class="st3" d="M34.6,233.6h23.2c10.9,0,20-9.1,20-20v-23.2c0-11.4-9.1-20.4-20.4-20.4H34.2c-10.9,0-20,9.1-20,20v23.2
			C14.2,224.6,23.3,233.6,34.6,233.6z M68.7,191.8v20c0,6.8-5.9,12.7-12.7,12.7H36c-7.3,0-12.7-5.5-12.7-12.7v-20
			c0-6.8,5.9-12.7,12.7-12.7h20C63.2,179.1,68.7,184.6,68.7,191.8z"/>
	</g>
</g>
<g transform="translate(124,806)">
	<g transform="scale(15.5)">
		<circle class="st3" cx="42" cy="197.8" r="13.6"/>
	</g>
</g>
<g>
	<path class="st1" d="M1759.5,3107.8c-58.8,0-114.1-22.9-155.7-64.5c-41.6-41.6-64.5-96.9-64.5-155.7V1759.5
		c0-58.8,22.9-114.1,64.5-155.7c41.6-41.6,96.9-64.5,155.7-64.5h1128.1c58.8,0,114.1,22.9,155.7,64.5
		c41.6,41.6,64.5,96.9,64.5,155.7v1128.1c0,58.8-22.9,114.1-64.5,155.7c-41.6,41.6-96.9,64.5-155.7,64.5H1759.5z"/>
	<path class="st3" d="M2887.6,3007.8H1759.5c-66.4,0-120.2-53.8-120.2-120.2V1759.5c0-66.4,53.8-120.2,120.2-120.2h1128.1
		c66.4,0,120.2,53.8,120.2,120.2v1128.1C3007.8,2954,2954,3007.8,2887.6,3007.8z"/>
	<g>
		<g>
			<path class="st1" d="M2409.6,2584.9c-10,0-18.4-2.2-25.3-6.6c-6.8-4.4-12-11.3-15.4-20.7c-3.4-9.5-5.1-21.7-5.1-36.8
				c0-15.9,1.5-28.7,4.5-38.5c3-9.8,8.1-16.9,15.1-21.5c7.1-4.5,16.6-6.8,28.5-6.8c6.4,0,12.6,0.6,18.8,1.9c2.7,0.5,5.2,1.1,7.6,1.8
				c4.4,1.2,8.6-2.1,8.6-6.6v-42.7c0-3.8,3.1-6.9,6.9-6.9h15.8c3.8,0,6.9,3.1,6.9,6.9v168.2c0,3.8-3.1,6.9-6.9,6.9h-13.1
				c-2.8,0-5.3-1.7-6.4-4.3l0,0c-1.6-3.9-6.2-5.5-9.8-3.3c-1.1,0.7-2.3,1.3-3.6,1.9c-4.2,2.1-8.7,3.8-13.4,5.1
				C2418.9,2584.2,2414.2,2584.9,2409.6,2584.9z M2419.6,2561.1c5.7,0,10.9-0.9,15.5-2.7c3-1.2,5.7-2.4,8.1-3.6
				c2.3-1.2,3.8-3.5,3.8-6.1v-62c0-3-1.9-5.6-4.7-6.5c-2.4-0.8-4.9-1.5-7.4-2.2c-4.1-1.1-8.7-1.7-13.6-1.7c-6.7,0-12.1,1.2-16.2,3.7
				c-4.1,2.5-7.1,6.8-8.9,13c-1.8,6.2-2.7,15-2.7,26.5c0,10.6,0.9,19,2.6,25.2c1.7,6.1,4.6,10.4,8.5,12.9
				C2408.4,2559.8,2413.4,2561.1,2419.6,2561.1z"/>
			<path class="st1" d="M2565.5,2584.7c-13.8,0-24.8-1.9-33-5.7c-8.2-3.8-14.1-10.4-17.8-19.9c-3.7-9.5-5.5-22.6-5.5-39.5
				c0-17.2,1.7-30.5,5.2-39.9c3.5-9.5,9.3-16.1,17.4-19.9c8.1-3.8,19.1-5.7,32.9-5.7c12.2,0,22.1,1.2,29.4,3.7
				c7.4,2.5,12.8,6.8,16.2,13.1c3.4,6.3,5.1,15.1,5.1,26.6c0,8.1-1.6,14.6-4.8,19.4c-3.2,4.9-7.7,8.3-13.7,10.4
				c-6,2.1-13,3.1-21.1,3.1l-30,0c-4.1,0-7.3,3.6-6.8,7.8c0.6,4.4,1.4,8.2,2.6,11.2c1.8,4.7,5.2,8.1,10,10.1
				c4.8,2.1,12,3.1,21.3,3.1h31.8c3.8,0,6.9,3.1,6.9,6.9v4.8c0,3.3-2.4,6.2-5.6,6.8c-4.8,0.8-9.8,1.6-15,2.3
				C2583.9,2584.2,2575.4,2584.7,2565.5,2584.7z M2538.5,2505.2c-0.2,3.9,2.9,7.2,6.9,7.2h27.8c5.6,0,9.7-1.1,12.3-3.2
				c2.6-2.1,3.9-6.1,3.9-11.8c0-5.6-0.8-9.9-2.4-13.1c-1.6-3.2-4.2-5.4-7.9-6.8c-3.7-1.3-8.4-2-14.3-2c-6.7,0-11.9,1-15.7,3.1
				c-3.8,2.1-6.6,5.8-8.2,11.1C2539.6,2493.6,2538.8,2498.8,2538.5,2505.2z"/>
			<path class="st1" d="M2678.1,2578.9l-39.8-114.1c-1.6-4.5,1.8-9.1,6.5-9.1h15.6c3,0,5.6,1.9,6.5,4.8l24,75.3c2,6.3,11,6.4,13.1,0
				l24.5-75.4c0.9-2.8,3.6-4.7,6.5-4.7h15.3c4.8,0,8.1,4.7,6.4,9.2l-41.5,114.1c-1,2.7-3.6,4.5-6.4,4.5h-24.2
				C2681.7,2583.5,2679.1,2581.6,2678.1,2578.9z"/>
			<path class="st1" d="M2774.6,2583.7c-3,0-4.5-1.4-4.5-4.3v-15.8c0-6.3,5.1-11.4,11.4-11.4h3.2c6.3,0,11.4,5.1,11.4,11.4v15.8
				c0,1.6-0.4,2.7-1.3,3.3c-0.9,0.6-1.9,1-3.2,1H2774.6z"/>
			<path class="st1" d="M2230.1,2799.6c-13.8,0-24.8-1.9-33-5.7c-8.2-3.8-14.1-10.4-17.8-19.9c-3.7-9.5-5.5-22.6-5.5-39.5
				c0-17.2,1.7-30.5,5.2-39.9c3.5-9.5,9.3-16.1,17.4-19.9c8.1-3.8,19.1-5.7,32.9-5.7c12.2,0,22.1,1.2,29.4,3.7
				c7.4,2.5,12.8,6.8,16.2,13.1c3.4,6.3,5.1,15.1,5.1,26.6c0,8.1-1.6,14.6-4.8,19.4c-3.2,4.9-7.7,8.3-13.7,10.4
				c-6,2.1-13,3.1-21.1,3.1h-30c-4.1,0-7.3,3.6-6.8,7.8c0.6,4.4,1.4,8.2,2.6,11.2c1.8,4.7,5.2,8.1,10,10.1c4.8,2.1,12,3.1,21.3,3.1
				h31.8c3.8,0,6.9,3.1,6.9,6.9v4.8c0,3.3-2.4,6.2-5.6,6.8c-4.8,0.8-9.8,1.6-15,2.3C2248.5,2799.2,2239.9,2799.6,2230.1,2799.6z
				 M2203.1,2720.2c-0.2,3.9,2.9,7.2,6.9,7.2h27.8c5.6,0,9.7-1.1,12.3-3.2c2.6-2.1,3.9-6.1,3.9-11.8c0-5.6-0.8-9.9-2.4-13.1
				c-1.6-3.2-4.2-5.4-7.9-6.8c-3.7-1.3-8.4-2-14.3-2c-6.7,0-11.9,1-15.7,3.1c-3.8,2.1-6.6,5.8-8.2,11.1
				C2204.2,2708.6,2203.4,2713.8,2203.1,2720.2z"/>
			<path class="st1" d="M2360,2798.4c-9.2,0-16.8-1.4-22.6-4.2c-5.9-2.8-10.1-7.4-12.8-13.9c-2.6-6.5-3.9-15.1-3.7-25.7l0.8-53.1
				c0.1-3.8-3-7-6.9-7h-6.2c-3.8,0-6.9-3.1-6.9-6.9v-6.7c0-3.2,2.2-6,5.3-6.7l10.9-2.5c2.8-0.6,4.9-3,5.3-5.9l3-24.9
				c0.4-3.4,3.3-6,6.8-6h10.2c3.8,0,6.9,3.1,6.9,6.9v22c0,3.8,3.1,6.9,6.9,6.9h18.7c3.8,0,6.9,3.1,6.9,6.9v10.1
				c0,3.8-3.1,6.9-6.9,6.9h-18.7c-3.8,0-6.9,3.1-6.9,6.9v53c0,4.1,0.4,7.5,1.2,10.1c0.8,2.6,1.9,4.7,3.5,6.2
				c1.5,1.5,3.1,2.6,4.9,3.2c1.7,0.6,3.6,1,5.5,1.2l9.8,1c3.5,0.4,6.1,3.3,6.1,6.8v8.7c0,3.8-3.1,6.9-6.9,6.9H2360z"/>
			<path class="st1" d="M2411.5,2791.6v-167.9c0-3.8,3.1-6.9,6.9-6.9h15.8c3.8,0,6.9,3.1,6.9,6.9v48c0,5.2,5.5,8.5,10.1,6
				c2.8-1.5,5.8-2.9,9.1-4.3c7.7-3.3,15.6-4.9,23.7-4.9c9.4,0,17,1.9,22.8,5.7c5.8,3.8,10,9.1,12.6,15.9c2.6,6.8,3.9,14.4,3.9,23
				v78.5c0,3.8-3.1,6.9-6.9,6.9h-15.8c-3.8,0-6.9-3.1-6.9-6.9v-74.9c0-4.4-0.9-8.3-2.6-11.6c-1.8-3.3-4.2-5.7-7.4-7.4
				c-3.2-1.7-6.9-2.5-11.2-2.5c-4.1,0-7.9,0.4-11.4,1.3c-3.5,0.9-6.9,2.1-10.1,3.7c-2.1,1-4.3,2.2-6.5,3.4c-2.1,1.2-3.4,3.5-3.4,5.9
				v82c0,3.8-3.1,6.9-6.9,6.9h-15.8C2414.6,2798.4,2411.5,2795.4,2411.5,2791.6z"/>
			<path class="st1" d="M2613.4,2799.6c-10,0-18.7-1-26-3.1c-7.3-2.1-13.3-5.6-17.9-10.5c-4.6-4.9-8-11.6-10.3-20
				c-2.2-8.4-3.3-19-3.3-31.7c0-13.2,1.1-24,3.3-32.5c2.2-8.5,5.7-15.2,10.4-20c4.7-4.8,10.7-8.2,18-10c7.3-1.8,15.9-2.7,25.7-2.7
				c10.2,0,18.9,1,26.2,3c7.3,2,13.3,5.4,17.9,10.1c4.6,4.8,8,11.4,10.3,19.9c2.2,8.5,3.3,19.3,3.3,32.3c0,12.9-1.1,23.6-3.2,32.1
				c-2.1,8.5-5.5,15.2-10.1,20c-4.6,4.8-10.6,8.3-17.9,10.3C2632.6,2798.6,2623.8,2799.6,2613.4,2799.6z M2613.4,2776
				c4.9,0,9.1-0.4,12.6-1.3c3.5-0.9,6.4-2.7,8.7-5.5c2.3-2.8,4-7,5.1-12.6c1.1-5.6,1.7-13.1,1.7-22.5c0-9.2-0.6-16.6-1.7-22.2
				c-1.1-5.6-2.8-9.7-5.1-12.5c-2.3-2.8-5.2-4.6-8.7-5.5c-3.5-0.9-7.7-1.3-12.6-1.3c-4.8,0-8.9,0.4-12.4,1.3
				c-3.5,0.9-6.4,2.7-8.6,5.5c-2.2,2.8-3.9,7-5.1,12.5c-1.2,5.6-1.8,13-1.8,22.2c0,9.4,0.6,16.9,1.8,22.5c1.2,5.6,2.9,9.9,5.1,12.6
				c2.2,2.8,5.1,4.6,8.6,5.5C2604.5,2775.6,2608.7,2776,2613.4,2776z"/>
			<path class="st1" d="M2750.3,2799.9c-3.7,0-7.8-0.1-12.5-0.4c-4.7-0.2-9.4-0.6-14.1-1c-4.7-0.4-9-0.9-13-1.5
				c-1.6-0.2-3-0.5-4.3-0.8c-3.2-0.6-5.4-3.5-5.4-6.7v-5.2c0-3.8,3.1-6.9,6.9-6.9h48.2c4,0,7.3-0.3,10.1-1c2.8-0.6,4.9-1.9,6.3-3.8
				s2.1-4.8,2.1-8.6v-4.5c0-4-1.3-7.1-3.9-9.4c-2.6-2.3-7.2-3.5-13.7-3.5h-19.3c-7.5,0-14.1-1-19.9-3.1c-5.8-2.1-10.4-5.6-13.7-10.5
				c-3.3-4.9-5-11.6-5-20v-7.2c0-8.1,1.5-14.8,4.6-20.1c3.1-5.3,8.3-9.4,15.5-12.2c7.2-2.8,16.9-4.2,29-4.2c5.1,0,10.6,0.2,16.4,0.7
				c5.9,0.5,11.5,1.1,16.9,1.8c2.7,0.4,5.2,0.8,7.4,1.2c3.2,0.6,5.5,3.5,5.5,6.7l0,5.1c0,3.8-3.1,6.9-6.9,6.9h-45.1
				c-5.9,0-10.4,1-13.5,3c-3.1,2-4.6,5.7-4.6,11.1v4.5c0,3.5,0.7,6.1,2.1,7.9c1.4,1.8,3.6,2.9,6.4,3.6c2.9,0.6,6.3,1,10.3,1h19.8
				c12.6,0,21.9,2.9,27.9,8.6c6,5.7,9.1,13.8,9.1,24.3v10.5c0,8.6-2,15.3-6,20.3c-4,4.9-9.7,8.4-17,10.4
				C2769.5,2798.9,2760.6,2799.9,2750.3,2799.9z"/>
		</g>
		<path class="st1" d="M1847.2,1854.1v939c0,3.8,3.1,6.9,6.9,6.9h261.3c3.8,0,6.9-3.1,6.9-6.9v-31c0-3.8-3.1-6.9-6.9-6.9h-216.6
			c-3.8,0-6.9-3.1-6.9-6.9v-849.6c0-3.8,3.1-6.9,6.9-6.9h849.6c3.8,0,6.9,3.1,6.9,6.9v441.3c0,3.8,3.1,6.9,6.9,6.9h31
			c3.8,0,6.9-3.1,6.9-6.9v-486c0-3.8-3.1-6.9-6.9-6.9h-939C1850.3,1847.2,1847.2,1850.3,1847.2,1854.1z"/>
		<g>
			<g>
				<path class="st1" d="M2063.4,1990.7v25.5c0,2.9-1.8,5.5-4.6,6.5l-107.4,37.5c-4.5,1.6-9.1-1.8-9.1-6.5V2034c0-3.1,2-5.7,4.9-6.6
					l59.3-17.2c6.5-1.9,6.6-11.1,0.1-13.1l-59.5-18.6c-2.9-0.9-4.8-3.5-4.8-6.5v-19.8c0-4.7,4.7-8.1,9.2-6.5l107.4,38.6
					C2061.6,1985.2,2063.4,1987.8,2063.4,1990.7z"/>
			</g>
		</g>
	</g>
</g>
</svg>
