<?xml version="1.0" encoding="utf-8"?>
<!-- Generator: Adobe Illustrator 26.1.0, SVG Export Plug-In . SVG Version: 6.00 Build 0)  -->
<svg version="1.1" id="Layer_1" xmlns="http://www.w3.org/2000/svg" xmlns:xlink="http://www.w3.org/1999/xlink" x="0px" y="0px"
	 viewBox="0 0 525.1 512" style="enable-background:new 0 0 525.1 512;" xml:space="preserve">
<style type="text/css">
	.st0{fill:#08A4BD;}
</style>
<g>
	<path class="st0" d="M239.2,246.5c-2.2-6.8-4.2-13.3-6.3-20.1c-2.2-6.8-4.2-13.1-5.9-19.5c-1.8-6.1-3.3-11.8-4.8-17.1h-0.4
		c-2,9.4-4.4,18.8-7.4,28.2c-3.3,10.5-6.6,21.4-10.1,32.4c-3.1,11.2-6.3,21.4-9.6,30.6h55.6c-1.3-4.6-3.1-10.1-5-15.8
		C243.1,259.4,241.1,253,239.2,246.5z"/>
	<path class="st0" d="M432.1,0H93C41.6,0,0,41.6,0,93v326c0,51.4,41.6,93,93,93h339.1c51.4,0,93-41.6,93-93V93
		C525.1,41.6,483.6,0,432.1,0z M330.4,379.9h-45.7c-1.5,0.2-3.1-0.9-3.5-2.4l-17.9-52.1h-81.4l-16.6,51.4c-0.4,2-2.2,3.3-4.2,3.1
		h-41.1c-2.4,0-3.1-1.3-2.4-3.9L188,173.2c0.7-2.2,1.3-4.6,2.2-7.2c0.9-4.6,1.3-9.4,1.3-14.2c-0.2-1.1,0.7-2.2,1.8-2.4h56.7
		c1.8,0,2.6,0.7,2.8,1.8l79.9,225.4C333.2,378.9,332.6,379.9,330.4,379.9z M404.8,376.7c0,2.4-0.9,3.5-2.8,3.5h-42.9
		c-2.2,0-3.3-1.3-3.3-3.5V208.2c0-2.2,0.9-3.1,2.9-3.1h43.3c2,0,2.8,1.1,2.8,3.1V376.7z M400.2,179.1c-5,5.3-12.5,8.1-19.9,7.7
		c-7.2,0.2-14.2-2.6-19.5-7.7c-5-5.5-7.7-12.7-7.4-20.1c-0.2-7.4,2.6-14.4,7.9-19.5c5.3-5,12.2-7.7,19.5-7.7
		c8.5,0,15.1,2.6,19.9,7.7c4.8,5.3,7.4,12.3,7.2,19.5C408.1,166.4,405.4,173.6,400.2,179.1z"/>
</g>
</svg>
