<?xml version="1.0" encoding="utf-8"?>
<!-- Generator: Adobe Illustrator 26.1.0, SVG Export Plug-In . SVG Version: 6.00 Build 0)  -->
<svg version="1.1" id="Layer_1" xmlns="http://www.w3.org/2000/svg" xmlns:xlink="http://www.w3.org/1999/xlink" x="0px" y="0px"
	 viewBox="0 0 512 512" style="enable-background:new 0 0 512 512;" xml:space="preserve">
<style type="text/css">
	.st0{fill:#08A4BD;}
</style>
<g>
	<path class="st0" d="M498,389.1c-17.6,4.5-28.5,0.2-38.3-14.5l-69.5-96.1l-10-13.3L299.1,375c-9.3,13.2-19,19-36.3,14.3
		l103.9-139.5l-96.7-126c16.6-3.2,28.1-1.6,38.3,13.3l72.1,97.3l72.6-96.8c9.3-13.2,19.3-18.2,36-13.4L451.4,174l-50.8,66.2
		c-6.1,7.6-5.2,12.7,0.3,20L498,389.1z M14.1,247.4l8.5-41.8c23.1-82.7,118-117.1,183.4-66c38.2,30.1,47.7,72.6,45.8,120.3H36.4
		C33.1,345.6,94.9,397.4,173.6,371c27.6-9.3,43.9-30.9,52-57.9c4.1-13.6,11-15.7,23.7-11.8c-6.5,33.8-21.2,62.1-52.2,79.8
		c-46.3,26.5-112.5,17.9-147.3-18.9c-20.7-21.3-29.3-48.4-33.1-77.3c-0.6-4.8-1.8-9.3-2.7-13.9C14.1,263.1,14.1,255.3,14.1,247.4
		L14.1,247.4z M36.8,241.7h194.7c-1.3-62-39.9-106.1-92.7-106.4C80.9,134.8,39.3,177.8,36.8,241.7z"/>
</g>
<g>
	<g>
		<path class="st0" d="M-237.4,259.7c0,2.3-1.5,4.3-4.3,4.3c-2.6,0-4.3-1.9-4.3-4c0-2.3,1.7-4.5,4.3-4.5
			C-239.1,255.4-237.4,257.3-237.4,259.7z"/>
	</g>
	<g>
		<rect x="-245.9" y="266" class="st0" width="8.5" height="27.7"/>
	</g>
	<g>
		<path class="st0" d="M-217,266.5c-4.5,0-7,2.6-8.1,4.3h-0.2l-0.4-3.6h-7.7c0,2.3,0.2,5.1,0.2,8.3v18.3h8.5v-15.1
			c0-0.9,0-1.5,0.2-2.1c0.6-1.5,1.7-3.4,4-3.4c3,0,4.3,2.6,4.3,6v14.7h8.5V278C-207.6,270.1-211.6,266.5-217,266.5z"/>
	</g>
</g>
</svg>
