<?xml version="1.0" encoding="utf-8"?>
<!-- Generator: Adobe Illustrator 26.1.0, SVG Export Plug-In . SVG Version: 6.00 Build 0)  -->
<svg version="1.1" id="Layer_1" xmlns="http://www.w3.org/2000/svg" xmlns:xlink="http://www.w3.org/1999/xlink" x="0px" y="0px"
	 viewBox="0 0 448 512" style="enable-background:new 0 0 448 512;" xml:space="preserve">
<style type="text/css">
	.st0{fill:#08A4BD;}
</style>
<path class="st0" d="M439.5,236.1L244,40.5c-11.3-11.3-29.5-11.3-40.8,0l-40.7,40.6l51.5,51.5c27.1-9.1,52.7,16.8,43.4,43.7
	l49.7,49.7c34.2-11.8,61.2,31,35.5,56.7c-26.5,26.5-70.2-2.9-56-37.3L240.2,199v121.9c25.3,12.5,22.3,41.9,9.1,55
	c-13.4,13.4-35.1,13.4-48.6,0c-17.6-17.6-11.1-46.9,11.2-56v-123c-20.8-8.5-24.6-30.7-18.6-45L142.6,101L8.4,235.1
	c-11.3,11.3-11.3,29.5,0,40.8L204,471.5c11.3,11.3,29.5,11.3,40.8,0l194.7-194.7C450.8,265.6,450.8,247.3,439.5,236.1L439.5,236.1z"
	/>
</svg>
