<?xml version="1.0" encoding="utf-8"?>
<!-- Generator: Adobe Illustrator 26.1.0, SVG Export Plug-In . SVG Version: 6.00 Build 0)  -->
<svg version="1.1" id="Layer_1" xmlns="http://www.w3.org/2000/svg" xmlns:xlink="http://www.w3.org/1999/xlink" x="0px" y="0px"
	 viewBox="0 0 2028.7 512" style="enable-background:new 0 0 2028.7 512;" xml:space="preserve">
<style type="text/css">
	.st0{fill:#FFFFFF;}
</style>
<g>
	<path class="st0" d="M214.9,67.6c-18.5-21.8-34.4-44.1-37.6-48.6c-0.2-0.3-0.6-0.4-1.1-0.2c-0.1,0-0.1,0.1-0.2,0.2
		c-3.2,4.6-19.1,26.8-37.6,48.6c-157.9,201.4,25.1,337.2,25.1,337.2l1.5,1.1c1.4,21,4.9,51.3,4.9,51.3h13.8c0,0,3.4-30.1,4.9-51.1
		l1.5-1.2C189.9,404.7,373,268.9,214.9,67.6z M176.7,401.8L176.7,401.8c0,0-8.2-7-10.4-10.5v-0.4l10-219.3c0-0.3,0.2-0.5,0.5-0.5
		s0.5,0.2,0.5,0.5l10,219.3v0.4C185,394.8,176.7,401.8,176.7,401.8z"/>
	<path class="st0" d="M518.5,356.8l-75.9-185.2l-0.2-0.5h-59.2v12.4h9.5c5.9,0,10.8,4.9,10.8,10.8v0.1l-1.8,186.4
		c0,5.8-4.8,10.6-10.6,10.7l-9.7,0.1v12.5H439v-12.3l-5.9-0.1c-5.8-0.1-10.6-5-10.6-10.8V205.3L505.4,404c1.6,3.9,6.1,5.7,10,4.1
		c1.9-0.7,3.4-2.2,4.1-4.1l81-194.4l1.2,171.3c0,5.9-4.8,10.8-10.7,10.9l-6,0.1v12.3h67.5v-12.3l-9.2-0.1
		c-5.9-0.1-10.6-4.9-10.7-10.8l-0.6-186.4c0-5.9,4.8-10.7,10.6-10.8l9.9-0.1v-12.4h-57.6L518.5,356.8z"/>
	<path class="st0" d="M1049.7,388.8c-2-2-3-4.7-2.9-7.5v-91.4c0-17.4-5.2-31-15.3-40.8c-10.2-9.6-24-14.6-41.4-14.6
		c-24.5,0-43.6,9.9-57.1,29.3c-0.3,0.5-1.1,0.6-1.6,0.3c-0.2-0.1-0.4-0.4-0.4-0.6l-6.4-24.4h-10.6l-27,15.7v8.6h7
		c2.9-0.1,5.6,0.7,7.8,2.5c2,2,3.1,4.9,2.9,7.8v107.6c0.3,5.5-3.9,10.1-9.4,10.4c-0.3,0-0.6,0-1,0h-6.8v12.4h62.5v-12.4h-6.8
		c-5.5,0.3-10.1-3.9-10.4-9.4c0-0.3,0-0.6,0-1v-71.2c0-9.3,2-18.4,5.8-26.9c3.8-8.6,9.7-16.1,17.4-21.6c7.9-5.7,17.6-8.7,27.4-8.5
		c12,0,21,3.8,26.6,11.2c5.7,7.5,8.6,17.3,8.6,28.9v88c0.3,5.5-3.9,10.1-9.4,10.4c-0.3,0-0.6,0-1,0h-6.8v12.4h62.5v-12.4h-6.9
		C1054.5,391.9,1051.8,390.8,1049.7,388.8z"/>
	<path class="st0" d="M1622.3,185.2c-17.8-9.3-37.7-14.2-57.8-14h-81.9v12.4h7.9c6.6,0.5,11.9,5.7,12.4,12.4v183.4
		c-0.1,3.3-1.5,6.4-3.9,8.5c-2.1,2.4-5.2,3.8-8.5,3.9h-7.9v12.4h81.9c20.1,0.2,40-4.6,57.8-14c17.5-9.2,31.9-23.2,41.7-40.3
		c10.3-17.5,15.5-38.3,15.5-62.2c0-23.8-5.2-44.7-15.5-62.2C1654.2,208.4,1639.6,194.5,1622.3,185.2z M1646.7,287.7
		c0,21.8-3.9,40.4-11.7,55.1c-7.7,14.7-18,25.8-30.5,33c-12.6,7.2-27,10.9-41.5,10.8h-16.5c-3.3-0.1-6.4-1.5-8.5-3.9
		c-2.4-2.2-3.8-5.2-3.9-8.5V201.1c0.1-3.3,1.5-6.4,3.9-8.5c2.2-2.4,5.3-3.8,8.5-3.9h16.5c14.5-0.1,28.9,3.6,41.5,10.8
		c12.6,7.2,22.9,18.2,30.5,33C1642.8,247.4,1646.7,266,1646.7,287.7z"/>
	<path class="st0" d="M1872.5,300.1c-7.4-8.6-21.9-16-39.1-19.9c23.6-11.8,35.6-28.4,35.6-49.6c0.2-11-3.1-21.8-9.2-30.8
		c-6.6-9.2-15.6-16.5-26-21c-12.2-5.2-25.4-7.7-38.7-7.5h-91.9v12.4h7.3c6.6,0.5,11.9,5.7,12.4,12.4v183.4c-0.1,3.3-1.5,6.2-3.9,8.5
		c-2.1,2.4-5.2,3.8-8.5,3.9h-7.9v12.4h99.8c14.4,0.1,28.7-2.4,42.1-7.6c12.1-4.6,22.6-12.4,30.4-22.6c7.4-10,11.2-22,11.2-36
		C1886.4,324,1881.5,310.6,1872.5,300.1z M1758.2,382.7c-2.4-2.2-3.8-5.2-3.9-8.5v-82.3h47.3c16.6,0,29.6,4.3,38.3,12.8
		c8.8,8.5,13.2,19.7,13.2,33.3c0,8.3-2,16.3-5.8,23.5c-4,7.6-10.1,13.9-17.5,18.1c-7.7,4.7-17.3,7-28.3,7h-35.1
		C1763.4,386.5,1760.3,385.1,1758.2,382.7L1758.2,382.7z M1754.3,274.3v-73.1c0.1-3.3,1.5-6.4,3.9-8.5c2.2-2.4,5.2-3.8,8.5-3.9h22.6
		c16.2,0,28.2,4,35.7,12c7.5,7.9,11.3,18.3,11.3,30.8c0,12.9-3.5,23.4-10.5,31.1s-17.6,11.7-31.6,11.7h-39.9V274.3z"/>
	<path class="st0" d="M811.9,245.5c-27.3-14.4-60.1-14.4-87.4,0c-13,7.2-23.8,17.8-31.2,30.7c-15.4,28.4-15.4,62.6,0,91
		c7.4,12.9,18.2,23.5,31.2,30.7c27.3,14.4,60.1,14.4,87.4,0c13-7.2,23.8-17.8,31.2-30.7c15.4-28.4,15.4-62.6,0-91
		C835.8,263.3,825,252.7,811.9,245.5z M824.5,321.7c0,21.1-5.2,38-15.4,50.3c-10.2,12.3-23.9,18.5-41,18.5s-30.8-6.2-41-18.5
		c-10.1-12.3-15.3-29.2-15.3-50.3s5.2-38,15.4-50.3s23.9-18.5,41-18.5c17.1,0,30.8,6.2,41,18.5C819.3,283.8,824.5,300.7,824.5,321.7
		z"/>
	<path class="st0" d="M1413.7,245.5c-27.3-14.4-60.1-14.4-87.4,0c-13,7.2-23.8,17.8-31.2,30.7c-15.4,28.4-15.4,62.6,0,91
		c7.4,12.9,18.2,23.5,31.2,30.7c27.3,14.4,60.1,14.4,87.4,0c13-7.2,23.8-17.8,31.2-30.7c15.4-28.4,15.4-62.6,0-91
		C1437.5,263.3,1426.7,252.7,1413.7,245.5z M1426.3,321.7c0,21.1-5.2,38-15.4,50.3c-10.2,12.3-23.9,18.5-41,18.5s-30.8-6.2-41-18.5
		s-15.4-29.2-15.4-50.3s5.2-38,15.4-50.3s23.9-18.5,41-18.5s30.8,6.2,41,18.5C1421.1,283.8,1426.3,300.7,1426.3,321.7z"/>
	<path class="st0" d="M1170.8,234.7c-12.9-0.1-25.7,2.9-37.3,8.7c-10.8,5.4-19.9,13.6-26.4,23.6c-6.2,9.7-9.6,21.1-9.5,32.7
		c-0.1,10.1,2.4,20.1,7.3,28.9c4.8,8.4,11.4,15.6,19.5,21.1l-24.3,33c-4.4,5.9-3.1,14.4,2.9,18.9c2.3,1.7,5.1,2.6,7.9,2.6h7
		c-6.5,4.2-12,9.9-16,16.5c-4.2,6.9-6.6,14.8-6.7,22.9c0,14.6,6.5,26.7,19.3,35.9c12.7,9.1,30.4,13.8,52.6,13.8
		c14.9,0.1,29.8-2.4,43.9-7.4c12.7-4.3,24-11.9,32.9-21.8c8.3-9.5,12.8-21.7,12.6-34.4c0-14-5.1-23.9-17.2-33.4
		c-10.3-8.1-26.3-12.4-46.2-12.4h-68.2c-0.2,0-0.4-0.2-0.4-0.4c0-0.1,0-0.2,0.1-0.2l17.7-23.9c4.2,1.9,8.6,3.4,13.1,4.4
		c4.6,0.8,9.1,1.3,13.8,1.3c13.3,0.2,26.5-2.8,38.5-8.7c10.8-5.4,20.1-13.6,26.8-23.6c6.4-9.7,9.7-21.1,9.7-32.7
		c0-12.6-6-35.7-22.8-47.5c0-0.1,0.1-0.1,0.1-0.1l36.8,4.1v-16.8h-58.7C1190.2,236.3,1180.6,234.6,1170.8,234.7z M1191.4,341.4
		L1191.4,341.4c-6.4,3.4-13.3,5.2-20.5,5.2c-11.2,0.1-21.9-4.2-30-12.1c-8.5-8.1-12.8-19.7-12.8-34.7s4.3-26.7,12.8-34.7
		c7.9-7.8,18.7-12.2,30-12.1c7.2,0,14.2,1.8,20.5,5.2c6.7,3.6,12.2,9.1,16,15.7c4.1,6.9,6.2,15.7,6.2,26c0,10.3-2.1,19.1-6.2,26
		C1203.5,332.3,1198,337.7,1191.4,341.4z M1145,404.2h46.2c12.8,0,21,2.5,26.5,8.1c5.5,5.7,8.5,13.5,8.2,21.4
		c0.3,12-5.2,23.2-14.8,30.4c-9.9,7.7-23.2,11.7-39.6,11.7c-14.4,0-26.2-3.2-35.1-9.4c-8.8-6.2-13.2-15.5-13.2-27.4
		c-0.1-7.3,2.1-14.5,6.2-20.7C1133.3,412.1,1138.7,407.4,1145,404.2z"/>
	<path class="st0" d="M1920.8,402.1c-3.3-1.9-6-4.6-7.9-7.9c-3.8-6.8-3.8-15.1,0-22c1.9-3.3,4.7-6,7.9-7.9c7.1-3.9,15.8-3.9,22.9,0
		c3.3,1.9,6,4.6,7.9,7.9c3.8,6.8,3.8,15.1,0,22c-1.9,3.3-4.7,6-7.9,7.9C1936.6,406,1928,406,1920.8,402.1z M1941.8,399.5
		c2.8-1.6,5.1-3.9,6.7-6.7c3.2-6,3.2-13.3,0-19.4c-1.6-2.8-3.8-5.1-6.7-6.7c-5.9-3.3-13-3.3-19,0c-2.8,1.6-5.1,3.9-6.7,6.7
		c-3.2,6-3.2,13.3,0,19.4c1.6,2.8,3.8,5.1,6.7,6.7C1928.7,402.8,1935.8,402.8,1941.8,399.5z M1923,393.6v-1.5l0.3-0.2h1.1
		c0.6,0,1.3-0.5,1.3-1.3v-15.8c0-0.6-0.5-1.3-1.3-1.3h-1.1l-0.3-0.2v-1.5l0.3-0.2h8.9c2.1-0.1,4.2,0.4,6,1.7c1.5,1.2,2.3,3,2.2,4.8
		c0,1.6-0.6,3.1-1.7,4.1c-1.2,1.2-2.6,1.9-4.3,2.1l2,0.6l3.9,6.2c0.2,0.4,0.6,0.7,1.2,0.7h1.1l0.2,0.2v1.5l-0.2,0.2h-5.2l-0.3-0.2
		l-5.5-9.2h-1.3v6.1c0,0.6,0.5,1.2,1.3,1.3h1.1l0.3,0.2v1.5l-0.3,0.2h-9L1923,393.6z M1931.6,382.5c1.2,0.1,2.3-0.3,3.3-1.2
		c0.8-0.8,1.3-2.1,1.2-3.3c0.1-1.2-0.3-2.3-1.1-3.3c-0.7-0.8-1.8-1.3-2.9-1.3h-0.6c-0.6,0-1.2,0.5-1.3,1.3v7.6h1.4V382.5z"/>
</g>
</svg>
