<?xml version="1.0" encoding="utf-8"?>
<!-- Generator: Adobe Illustrator 26.1.0, SVG Export Plug-In . SVG Version: 6.00 Build 0)  -->
<svg version="1.1" id="Layer_1" xmlns="http://www.w3.org/2000/svg" xmlns:xlink="http://www.w3.org/1999/xlink" x="0px" y="0px"
	 viewBox="0 0 1775.1 448" style="enable-background:new 0 0 1775.1 448;" xml:space="preserve">
<style type="text/css">
	.st0{fill:#FFFFFF;}
</style>
<path class="st0" d="M132.8,46.2C115.3,25.6,100.3,4.6,97.3,0.3c-0.2-0.3-0.6-0.4-1-0.2c-0.1,0-0.1,0.1-0.2,0.2
	c-3,4.3-18,25.3-35.5,45.9C-88.5,236.3,84.3,364.5,84.3,364.5l1.4,1c1.3,19.8,4.6,48.4,4.6,48.4h13c0,0,3.2-28.4,4.6-48.2l1.4-1.1
	C109.2,364.5,282,236.3,132.8,46.2z M96.7,361.7L96.7,361.7c0,0-7.7-6.6-9.8-9.9l0-0.4l9.4-207c0-0.3,0.2-0.5,0.5-0.5
	c0.3,0,0.5,0.2,0.5,0.5l9.4,207l0,0.4C104.5,355.1,96.7,361.7,96.7,361.7z"/>
<path class="st0" d="M419.4,319.3l-71.7-174.8l-0.2-0.5h-55.9v11.7l9,0c5.6,0,10.2,4.6,10.2,10.2c0,0,0,0.1,0,0.1l-1.7,176
	c0,5.5-4.5,10-10,10.1l-9.2,0.1V364h54.4v-11.6l-5.6-0.1c-5.5-0.1-10-4.7-10-10.2V176.2l78.3,187.6c1.5,3.7,5.8,5.4,9.4,3.9
	c1.8-0.7,3.2-2.1,3.9-3.9l76.5-183.5l1.1,161.7c0,5.6-4.5,10.2-10.1,10.3l-5.7,0.1V364h63.7v-11.6l-8.7-0.1
	c-5.6-0.1-10-4.6-10.1-10.2l-0.6-176c0-5.6,4.5-10.1,10-10.2l9.3-0.1v-11.7h-54.4L419.4,319.3z"/>
<path class="st0" d="M920.9,349.5c-1.9-1.9-2.8-4.4-2.7-7.1v-86.3c0-16.4-4.9-29.3-14.4-38.5c-9.6-9.1-22.7-13.8-39.1-13.8
	c-23.1,0-41.2,9.3-53.9,27.7c-0.3,0.5-1,0.6-1.5,0.3c-0.2-0.1-0.4-0.4-0.4-0.6l-6-23h-10L767.4,223l0,8.1h6.6
	c2.7-0.1,5.3,0.7,7.4,2.4c1.9,1.9,2.9,4.6,2.7,7.4v101.6c0.3,5.2-3.7,9.5-8.9,9.8c-0.3,0-0.6,0-0.9,0h-6.4V364h59v-11.7h-6.4
	c-5.2,0.3-9.5-3.7-9.8-8.9c0-0.3,0-0.6,0-0.9v-67.2c0-8.8,1.9-17.4,5.5-25.4c3.6-8.1,9.2-15.2,16.4-20.4c7.5-5.4,16.6-8.2,25.9-8
	c11.3,0,19.8,3.6,25.1,10.6c5.4,7.1,8.1,16.3,8.1,27.3v83.1c0.3,5.2-3.7,9.5-8.9,9.8c-0.3,0-0.6,0-0.9,0h-6.4V364h59v-11.7H928
	C925.4,352.4,922.8,351.4,920.9,349.5z"/>
<path class="st0" d="M1461.4,157.3c-16.8-8.8-35.6-13.4-54.6-13.2h-77.3v11.7h7.5c6.2,0.5,11.2,5.4,11.7,11.7v173.1
	c-0.1,3.1-1.4,6-3.7,8c-2,2.3-4.9,3.6-8,3.7h-7.5V364h77.3c19,0.2,37.8-4.3,54.6-13.2c16.5-8.7,30.1-21.9,39.4-38
	c9.7-16.5,14.6-36.2,14.6-58.7c0-22.5-4.9-42.2-14.6-58.7C1491.5,179.2,1477.8,166,1461.4,157.3z M1484.5,254c0,20.6-3.7,38.1-11,52
	c-7.3,13.9-17,24.4-28.8,31.2c-11.9,6.8-25.5,10.3-39.2,10.2h-15.6c-3.1-0.1-6-1.4-8-3.7c-2.3-2.1-3.6-4.9-3.7-8V172.3
	c0.1-3.1,1.4-6,3.7-8c2.1-2.3,5-3.6,8-3.7h15.6c13.7-0.1,27.3,3.4,39.2,10.2c11.9,6.8,21.6,17.2,28.8,31.2
	C1480.8,216,1484.5,233.5,1484.5,254z"/>
<path class="st0" d="M1697.6,265.7c-7-8.1-20.7-15.1-36.9-18.8c22.3-11.1,33.6-26.8,33.6-46.8c0.2-10.4-2.9-20.6-8.7-29.1
	c-6.2-8.7-14.7-15.6-24.5-19.8c-11.5-4.9-24-7.3-36.5-7.1h-86.8v11.7h6.9c6.2,0.5,11.2,5.4,11.7,11.7v173.1c-0.1,3.1-1.4,5.9-3.7,8
	c-2,2.3-4.9,3.6-8,3.7h-7.5V364h94.2c13.6,0.1,27.1-2.3,39.7-7.2c11.4-4.3,21.3-11.7,28.7-21.3c7-9.4,10.6-20.8,10.6-34
	C1710.7,288.3,1706.1,275.6,1697.6,265.7z M1589.7,343.7c-2.3-2.1-3.6-4.9-3.7-8V258h44.7c15.7,0,27.9,4.1,36.2,12.1
	c8.3,8,12.5,18.6,12.5,31.4c0,7.8-1.9,15.4-5.5,22.2c-3.8,7.2-9.5,13.1-16.5,17.1c-7.3,4.4-16.3,6.6-26.7,6.6h-33.1
	C1594.6,347.3,1591.7,346,1589.7,343.7L1589.7,343.7z M1586,241.4v-69c0.1-3.1,1.4-6,3.7-8c2.1-2.3,4.9-3.6,8-3.7h21.3
	c15.3,0,26.6,3.8,33.7,11.3c7.1,7.5,10.7,17.3,10.7,29.1c0,12.2-3.3,22.1-9.9,29.4c-6.6,7.3-16.6,11-29.8,11H1586z"/>
<path class="st0" d="M696.4,214.2c-25.8-13.6-56.7-13.6-82.5,0c-12.3,6.8-22.5,16.8-29.5,29c-14.5,26.8-14.5,59.1,0,85.9
	c7,12.2,17.2,22.2,29.5,29c25.8,13.6,56.7,13.6,82.5,0c12.3-6.8,22.5-16.8,29.5-29c14.5-26.8,14.5-59.1,0-85.9
	C718.9,231,708.7,221,696.4,214.2z M708.3,286.1c0,19.9-4.9,35.9-14.5,47.5c-9.6,11.6-22.6,17.5-38.7,17.5
	c-16.1,0-29.1-5.9-38.7-17.5C606.9,322,602,306,602,286.1s4.9-35.9,14.5-47.5c9.6-11.6,22.6-17.5,38.7-17.5
	c16.1,0,29.1,5.9,38.7,17.5C703.4,250.3,708.3,266.3,708.3,286.1z"/>
<path class="st0" d="M1264.5,214.2c-25.8-13.6-56.7-13.6-82.5,0c-12.3,6.8-22.5,16.8-29.5,29c-14.5,26.8-14.5,59.1,0,85.9
	c7,12.2,17.2,22.2,29.5,29c25.8,13.6,56.7,13.6,82.5,0c12.3-6.8,22.5-16.8,29.5-29c14.5-26.8,14.5-59.1,0-85.9
	C1287,231,1276.8,221,1264.5,214.2z M1276.4,286.1c0,19.9-4.9,35.9-14.5,47.5c-9.6,11.6-22.6,17.5-38.7,17.5
	c-16.1,0-29.1-5.9-38.7-17.5c-9.6-11.6-14.5-27.6-14.5-47.5c0-19.9,4.9-35.9,14.5-47.5c9.6-11.6,22.6-17.5,38.7-17.5
	c16.1,0,29.1,5.9,38.7,17.5C1271.5,250.3,1276.4,266.3,1276.4,286.1z"/>
<path class="st0" d="M1035.2,204c-12.2-0.1-24.3,2.7-35.2,8.2c-10.2,5.1-18.8,12.8-24.9,22.3c-5.9,9.2-9.1,19.9-9,30.9
	c-0.1,9.5,2.3,19,6.9,27.3c4.5,7.9,10.8,14.7,18.4,19.9l-22.9,31.2c-4.2,5.6-2.9,13.6,2.7,17.8c2.2,1.6,4.8,2.5,7.5,2.5h6.6
	c-6.1,4-11.3,9.3-15.1,15.6c-4,6.5-6.2,14-6.3,21.6c0,13.8,6.1,25.2,18.2,33.9c12,8.6,28.7,13,49.7,13c14.1,0.1,28.1-2.3,41.4-7
	c12-4.1,22.7-11.2,31.1-20.6c7.8-9,12.1-20.5,11.9-32.5c0-13.2-4.8-22.6-16.2-31.5c-9.7-7.6-24.8-11.7-43.6-11.7h-64.4
	c-0.2,0-0.4-0.2-0.4-0.4c0-0.1,0-0.2,0.1-0.2l16.7-22.6c4,1.8,8.1,3.2,12.4,4.2c4.3,0.8,8.6,1.2,13,1.2c12.6,0.2,25-2.6,36.3-8.2
	c10.2-5.1,19-12.8,25.3-22.3c6-9.2,9.2-19.9,9.2-30.9c0-11.9-5.7-33.7-21.5-44.8c0-0.1,0.1-0.1,0.1-0.1l34.7,3.9v-15.9h-55.4
	C1053.5,205.5,1044.4,203.9,1035.2,204z M1054.6,304.7L1054.6,304.7c-6,3.2-12.6,4.9-19.4,4.9c-10.6,0.1-20.7-4-28.3-11.4
	c-8-7.6-12.1-18.6-12.1-32.8c0-14.2,4.1-25.2,12.1-32.8c7.5-7.4,17.7-11.5,28.3-11.4c6.8,0,13.4,1.7,19.4,4.9
	c6.3,3.4,11.5,8.6,15.1,14.8c3.9,6.5,5.9,14.8,5.9,24.5c0,9.7-2,18-5.9,24.5C1066.1,296.1,1060.9,301.2,1054.6,304.7z M1010.8,364
	h43.6c12.1,0,19.8,2.4,25,7.6c5.2,5.4,8,12.7,7.7,20.2c0.3,11.3-4.9,21.9-14,28.7c-9.3,7.3-21.9,11-37.4,11c-13.6,0-24.7-3-33.1-8.9
	c-8.3-5.9-12.5-14.6-12.5-25.9c-0.1-6.9,2-13.7,5.9-19.5C999.8,371.5,1004.9,367,1010.8,364z"/>
<path class="st0" d="M1743.2,362c-3.1-1.8-5.7-4.3-7.5-7.5c-3.6-6.4-3.6-14.3,0-20.8c1.8-3.1,4.4-5.7,7.5-7.5
	c6.7-3.7,14.9-3.7,21.6,0c3.1,1.8,5.7,4.3,7.5,7.5c3.6,6.4,3.6,14.3,0,20.8c-1.8,3.1-4.4,5.7-7.5,7.5
	C1758.1,365.7,1750,365.7,1743.2,362z M1763,359.6c2.6-1.5,4.8-3.7,6.3-6.3c3-5.7,3-12.6,0-18.3c-1.5-2.6-3.6-4.8-6.3-6.3
	c-5.6-3.1-12.3-3.1-17.9,0c-2.6,1.5-4.8,3.7-6.3,6.3c-3,5.7-3,12.6,0,18.3c1.5,2.6,3.6,4.8,6.3,6.3
	C1750.7,362.7,1757.4,362.7,1763,359.6z M1745.3,354v-1.4l0.3-0.2h1c0.6,0,1.2-0.5,1.2-1.2v-14.9c0-0.6-0.5-1.2-1.2-1.2h-1l-0.3-0.2
	v-1.4l0.3-0.2h8.4c2-0.1,4,0.4,5.7,1.6c1.4,1.1,2.2,2.8,2.1,4.5c0,1.5-0.6,2.9-1.6,3.9c-1.1,1.1-2.5,1.8-4.1,2l1.9,0.6l3.7,5.9
	c0.2,0.4,0.6,0.7,1.1,0.7h1l0.2,0.2v1.4l-0.2,0.2h-4.9l-0.3-0.2l-5.2-8.7h-1.2v5.8c0,0.6,0.5,1.1,1.2,1.2h1l0.3,0.2v1.4l-0.3,0.2
	h-8.5L1745.3,354z M1753.4,343.5c1.1,0.1,2.2-0.3,3.1-1.1c0.8-0.8,1.2-2,1.1-3.1c0.1-1.1-0.3-2.2-1-3.1c-0.7-0.8-1.7-1.2-2.7-1.2
	h-0.6c-0.6,0-1.1,0.5-1.2,1.2v7.2H1753.4z"/>
</svg>
