<?xml version="1.0" encoding="utf-8"?>
<!-- Generator: Adobe Illustrator 26.1.0, SVG Export Plug-In . SVG Version: 6.00 Build 0)  -->
<svg version="1.1" id="Layer_1" xmlns="http://www.w3.org/2000/svg" xmlns:xlink="http://www.w3.org/1999/xlink" x="0px" y="0px"
	 viewBox="0 0 525.4 512" style="enable-background:new 0 0 525.4 512;" xml:space="preserve">
<style type="text/css">
	.st0{fill:#08A4BD;}
</style>
<g>
	<g>
		<path class="st0" d="M60.2,452.4l-23.7-57.7l-0.1-0.2H18.1v3.9h3c1.8,0,3.4,1.5,3.4,3.4v0l-0.6,58.1c0,1.8-1.5,3.3-3.3,3.3l-3,0
			v3.9h18v-3.8l-1.8,0c-1.8,0-3.3-1.6-3.3-3.4v-54.7l25.8,61.9c0.5,1.2,1.9,1.8,3.1,1.3c0.6-0.2,1.1-0.7,1.3-1.3l25.2-60.6l0.4,53.4
			c0,1.8-1.5,3.4-3.3,3.4l-1.9,0v3.8h21v-3.8l-2.9,0c-1.8,0-3.3-1.5-3.3-3.4l-0.2-58.1c0-1.8,1.5-3.3,3.3-3.4l3.1,0v-3.9h-18
			L60.2,452.4z"/>
		<path class="st0" d="M225.8,462.4c-0.6-0.6-0.9-1.5-0.9-2.3v-28.5c0-5.4-1.6-9.7-4.8-12.7c-3.2-3-7.5-4.6-12.9-4.6
			c-7.6,0-13.6,3.1-17.8,9.1c-0.1,0.2-0.3,0.2-0.5,0.1c-0.1,0-0.1-0.1-0.1-0.2l-2-7.6h-3.3l-8.4,4.9v2.7h2.2c0.9,0,1.7,0.2,2.4,0.8
			c0.6,0.6,1,1.5,0.9,2.4V460c0.1,1.7-1.2,3.1-2.9,3.2c-0.1,0-0.2,0-0.3,0h-2.1v3.9h19.5v-3.9h-2.1c-1.7,0.1-3.1-1.2-3.2-2.9
			c0-0.1,0-0.2,0-0.3v-22.2c0-2.9,0.6-5.7,1.8-8.4c1.2-2.7,3-5,5.4-6.7c2.5-1.8,5.5-2.7,8.5-2.6c3.7,0,6.5,1.2,8.3,3.5
			c1.8,2.3,2.7,5.4,2.7,9V460c0.1,1.7-1.2,3.1-2.9,3.2c-0.1,0-0.2,0-0.3,0h-2.1v3.9h19.5v-3.9h-2.2
			C227.3,463.3,226.5,463,225.8,462.4z"/>
		<path class="st0" d="M404.3,398.9c-5.5-2.9-11.8-4.4-18-4.4h-25.5v3.9h2.5c2.1,0.2,3.7,1.8,3.9,3.9v57.2c0,1-0.5,2-1.2,2.6
			c-0.7,0.7-1.6,1.2-2.6,1.2h-2.5v3.9h25.5c6.3,0.1,12.5-1.4,18-4.4c5.5-2.9,9.9-7.2,13-12.6c3.2-5.5,4.8-11.9,4.8-19.4
			c0-7.4-1.6-13.9-4.8-19.4C414.3,406.1,409.7,401.8,404.3,398.9z M411.9,430.9c0,6.8-1.2,12.6-3.6,17.2c-2.4,4.6-5.6,8-9.5,10.3
			c-3.9,2.2-8.4,3.4-12.9,3.4h-5.1c-1,0-2-0.5-2.6-1.2c-0.7-0.7-1.2-1.6-1.2-2.6v-54c0-1,0.5-2,1.2-2.6c0.7-0.7,1.7-1.2,2.6-1.2h5.1
			c4.5,0,9,1.1,12.9,3.4s7.1,5.7,9.5,10.3C410.7,418.3,411.9,424.1,411.9,430.9z"/>
		<path class="st0" d="M482.3,434.7c-2.3-2.7-6.8-5-12.2-6.2c7.4-3.7,11.1-8.9,11.1-15.5c0.1-3.4-1-6.8-2.9-9.6
			c-2.1-2.9-4.9-5.1-8.1-6.5c-3.8-1.6-7.9-2.4-12.1-2.3h-28.6v3.9h2.3c2.1,0.2,3.7,1.8,3.9,3.9v57.2c0,1-0.5,1.9-1.2,2.6
			c-0.7,0.7-1.6,1.2-2.6,1.2h-2.5v3.9h31.1c4.5,0,8.9-0.7,13.1-2.4c3.8-1.4,7-3.9,9.5-7c2.3-3.1,3.5-6.9,3.5-11.2
			C486.6,442.2,485.1,438,482.3,434.7z M446.7,460.5c-0.7-0.7-1.2-1.6-1.2-2.6v-25.7h14.7c5.2,0,9.2,1.3,11.9,4
			c2.7,2.6,4.1,6.1,4.1,10.4c0,2.6-0.6,5.1-1.8,7.3c-1.2,2.4-3.1,4.3-5.5,5.6c-2.4,1.5-5.4,2.2-8.8,2.2h-10.9
			C448.3,461.7,447.3,461.2,446.7,460.5L446.7,460.5z M445.5,426.7v-22.8c0-1,0.5-2,1.2-2.6c0.7-0.7,1.6-1.2,2.6-1.2h7
			c5,0,8.8,1.2,11.1,3.7c2.3,2.5,3.5,5.7,3.5,9.6c0,4-1.1,7.3-3.3,9.7c-2.2,2.4-5.5,3.6-9.9,3.6L445.5,426.7L445.5,426.7z"/>
		<path class="st0" d="M151.7,417.7c-8.5-4.5-18.7-4.5-27.2,0c-4.1,2.2-7.4,5.5-9.7,9.6c-4.8,8.9-4.8,19.5,0,28.4
			c2.3,4,5.7,7.3,9.7,9.6c8.5,4.5,18.7,4.5,27.2,0c4.1-2.2,7.4-5.5,9.7-9.6c4.8-8.9,4.8-19.5,0-28.4
			C159.1,423.2,155.8,419.9,151.7,417.7z M155.6,441.5c0,6.6-1.6,11.8-4.8,15.7s-7.5,5.8-12.8,5.8s-9.6-1.9-12.8-5.8
			c-3.1-3.8-4.8-9.1-4.8-15.7c0-6.6,1.6-11.8,4.8-15.7c3.2-3.8,7.5-5.8,12.8-5.8c5.3,0,9.6,1.9,12.8,5.8
			C154,429.6,155.6,434.9,155.6,441.5z"/>
		<path class="st0" d="M339.3,417.7c-8.5-4.5-18.7-4.5-27.2,0c-4.1,2.2-7.4,5.5-9.7,9.6c-4.8,8.9-4.8,19.5,0,28.4
			c2.3,4,5.7,7.3,9.7,9.6c8.5,4.5,18.7,4.5,27.2,0c4.1-2.2,7.4-5.5,9.7-9.6c4.8-8.9,4.8-19.5,0-28.4
			C346.7,423.2,343.3,419.9,339.3,417.7z M343.2,441.5c0,6.6-1.6,11.8-4.8,15.7c-3.2,3.8-7.5,5.8-12.8,5.8s-9.6-1.9-12.8-5.8
			s-4.8-9.1-4.8-15.7c0-6.6,1.6-11.8,4.8-15.7c3.2-3.8,7.5-5.8,12.8-5.8s9.6,1.9,12.8,5.8C341.6,429.6,343.2,434.9,343.2,441.5z"/>
		<path class="st0" d="M263.6,414.3c-4,0-8,0.9-11.6,2.7c-3.4,1.7-6.2,4.2-8.2,7.4c-1.9,3-3,6.6-3,10.2c0,3.1,0.7,6.3,2.3,9
			c1.5,2.6,3.6,4.9,6.1,6.6l-7.6,10.3c-1.4,1.8-1,4.5,0.9,5.9c0.7,0.5,1.6,0.8,2.5,0.8h2.2c-2,1.3-3.7,3.1-5,5.1
			c-1.3,2.2-2.1,4.6-2.1,7.1c0,4.6,2,8.3,6,11.2c4,2.8,9.5,4.3,16.4,4.3c4.6,0,9.3-0.7,13.7-2.3c4-1.3,7.5-3.7,10.3-6.8
			c2.6-3,4-6.8,3.9-10.7c0-4.4-1.6-7.5-5.4-10.4c-3.2-2.5-8.2-3.9-14.4-3.9h-21.3c-0.1,0-0.1-0.1-0.1-0.1c0,0,0-0.1,0-0.1l5.5-7.5
			c1.3,0.6,2.7,1.1,4.1,1.4c1.4,0.2,2.8,0.4,4.3,0.4c4.1,0.1,8.3-0.9,12-2.7c3.4-1.7,6.3-4.2,8.4-7.4c2-3,3-6.6,3-10.2
			c0-3.9-1.9-11.1-7.1-14.8c0,0,0,0,0,0l11.5,1.3v-5.2h-18.3C269.6,414.8,266.6,414.3,263.6,414.3z M270,447.6L270,447.6
			c-2,1.1-4.1,1.6-6.4,1.6c-3.5,0-6.8-1.3-9.4-3.8c-2.6-2.5-4-6.1-4-10.8c0-4.7,1.3-8.3,4-10.8c2.5-2.4,5.8-3.8,9.4-3.8
			c2.2,0,4.4,0.6,6.4,1.6c2.1,1.1,3.8,2.8,5,4.9c1.3,2.2,1.9,4.9,1.9,8.1s-0.7,6-1.9,8.1C273.8,444.8,272.1,446.4,270,447.6z
			 M255.5,467.2h14.4c4,0,6.5,0.8,8.3,2.5c1.7,1.8,2.6,4.2,2.6,6.7c0.1,3.7-1.6,7.2-4.6,9.5c-3.1,2.4-7.2,3.6-12.3,3.6
			c-4.5,0-8.2-1-10.9-2.9c-2.7-1.9-4.1-4.8-4.1-8.5c0-2.3,0.7-4.5,1.9-6.5C251.9,469.6,253.6,468.2,255.5,467.2z"/>
		<path class="st0" d="M497.4,466.5c-1-0.6-1.9-1.4-2.5-2.5c-1.2-2.1-1.2-4.7,0-6.9c0.6-1,1.5-1.9,2.5-2.5c2.2-1.2,4.9-1.2,7.1,0
			c1,0.6,1.9,1.4,2.5,2.5c1.2,2.1,1.2,4.7,0,6.9c-0.6,1-1.5,1.9-2.5,2.5C502.3,467.7,499.6,467.7,497.4,466.5z M503.9,465.7
			c0.9-0.5,1.6-1.2,2.1-2.1c1-1.9,1-4.1,0-6c-0.5-0.9-1.2-1.6-2.1-2.1c-1.8-1-4.1-1-5.9,0c-0.9,0.5-1.6,1.2-2.1,2.1
			c-1,1.9-1,4.1,0,6c0.5,0.9,1.2,1.6,2.1,2.1C499.8,466.7,502,466.7,503.9,465.7z M498,463.9v-0.5l0.1-0.1h0.3
			c0.2,0,0.4-0.2,0.4-0.4V458c0-0.2-0.2-0.4-0.4-0.4h-0.3l-0.1-0.1v-0.5l0.1-0.1h2.8c0.7,0,1.3,0.1,1.9,0.5c0.5,0.4,0.7,0.9,0.7,1.5
			c0,0.5-0.2,1-0.5,1.3c-0.4,0.4-0.8,0.6-1.3,0.7l0.6,0.2l1.2,1.9c0.1,0.1,0.2,0.2,0.4,0.2h0.3l0.1,0.1v0.5l-0.1,0.1h-1.6l-0.1-0.1
			l-1.7-2.9h-0.4v1.9c0,0.2,0.2,0.4,0.4,0.4h0.3l0.1,0.1v0.5l-0.1,0.1h-2.8L498,463.9z M500.7,460.4c0.4,0,0.7-0.1,1-0.4
			c0.2-0.2,0.4-0.7,0.4-1c0-0.4-0.1-0.7-0.3-1c-0.2-0.2-0.6-0.4-0.9-0.4h-0.2c-0.2,0-0.4,0.2-0.4,0.4v2.4L500.7,460.4L500.7,460.4z"
			/>
	</g>
	<path class="st0" d="M294.6,57.9c-15.4-18.2-28.7-36.8-31.4-40.6c-0.2-0.3-0.5-0.3-0.9-0.2c-0.1,0-0.1,0.1-0.2,0.2
		c-2.7,3.8-15.9,22.4-31.4,40.6c-131.8,168.1,20.9,281.4,20.9,281.4l1.3,0.9c1.2,17.5,4.1,42.8,4.1,42.8h11.5c0,0,2.8-25.1,4.1-42.6
		l1.3-1C273.7,339.1,426.5,225.8,294.6,57.9z M262.7,336.7L262.7,336.7c0,0-6.8-5.8-8.7-8.8v-0.3l8.3-183c0-0.3,0.2-0.4,0.4-0.4
		s0.4,0.2,0.4,0.4l8.3,183v0.3C269.6,330.9,262.7,336.7,262.7,336.7z"/>
</g>
</svg>
