<?xml version="1.0" encoding="utf-8"?>
<!-- Generator: Adobe Illustrator 26.1.0, SVG Export Plug-In . SVG Version: 6.00 Build 0)  -->
<svg version="1.1" id="Layer_1" xmlns="http://www.w3.org/2000/svg" xmlns:xlink="http://www.w3.org/1999/xlink" x="0px" y="0px"
	 viewBox="0 0 448 512" style="enable-background:new 0 0 448 512;" xml:space="preserve">
<style type="text/css">
	.st0{fill:#08A4BD;}
</style>
<path class="st0" d="M224,508c-6.7,0-13.5-1.8-19.4-5.2l-61.7-36.5c-9.2-5.2-4.7-7-1.7-8c12.3-4.3,14.8-5.2,27.9-12.7
	c1.4-0.8,3.2-0.5,4.6,0.4l47.4,28.1c1.7,1,4.1,1,5.7,0l184.7-106.6c1.7-1,2.8-3,2.8-5V149.3c0-2.1-1.1-4-2.9-5.1L226.8,37.7
	c-1.7-1-4-1-5.7,0L36.6,144.3c-1.8,1-2.9,3-2.9,5.1v213.1c0,2,1.1,4,2.9,4.9l50.6,29.2c27.5,13.7,44.3-2.4,44.3-18.7V167.5
	c0-3,2.4-5.3,5.4-5.3h23.4c2.9,0,5.4,2.3,5.4,5.3V378c0,36.6-20,57.6-54.7,57.6c-10.7,0-19.1,0-42.5-11.6l-48.4-27.9
	c-12-6.9-19.4-19.8-19.4-33.7V149.3c0-13.8,7.4-26.8,19.4-33.7L204.6,9c11.7-6.6,27.2-6.6,38.8,0l184.7,106.7
	c12,6.9,19.4,19.8,19.4,33.7v213.1c0,13.8-7.4,26.7-19.4,33.7L243.4,502.8C237.5,506.2,230.8,508,224,508z M373.1,297.9
	c0-39.9-27-50.5-83.7-58c-57.4-7.6-63.2-11.5-63.2-24.9c0-11.1,4.9-25.9,47.4-25.9c37.9,0,51.9,8.2,57.7,33.8
	c0.5,2.4,2.7,4.2,5.2,4.2h24c1.5,0,2.9-0.6,3.9-1.7s1.5-2.6,1.4-4.1c-3.7-44.1-33-64.6-92.2-64.6c-52.7,0-84.1,22.2-84.1,59.5
	c0,40.4,31.3,51.6,81.8,56.6c60.5,5.9,65.2,14.8,65.2,26.7c0,20.6-16.6,29.4-55.5,29.4c-48.9,0-59.6-12.3-63.2-36.6
	c-0.4-2.6-2.6-4.5-5.3-4.5h-23.9c-3,0-5.3,2.4-5.3,5.3c0,31.1,16.9,68.2,97.8,68.2C339.5,361.2,373.1,338.1,373.1,297.9L373.1,297.9
	z"/>
</svg>
