<?xml version="1.0" encoding="utf-8"?>
<!-- Generator: Adobe Illustrator 26.1.0, SVG Export Plug-In . SVG Version: 6.00 Build 0)  -->
<svg version="1.1" id="Layer_1" xmlns="http://www.w3.org/2000/svg" xmlns:xlink="http://www.w3.org/1999/xlink" x="0px" y="0px"
	 viewBox="0 0 472.1 484.6" style="enable-background:new 0 0 472.1 484.6;" xml:space="preserve">
<style type="text/css">
	.st0{fill:#CCCCCC;stroke:#CCCCCC;stroke-width:37.3953;}
	.st1{fill:#CCCCCC;}
	.st2{fill:none;stroke:#FFFFFF;stroke-width:12.4651;stroke-linecap:round;stroke-linejoin:round;}
	.st3{fill:none;stroke:#FFFFFF;stroke-width:12.4651;stroke-linecap:round;stroke-linejoin:bevel;}
	.st4{fill:#FFFFFF;stroke:#FFFFFF;stroke-width:4.155;}
	.st5{fill:#FFFFFF;stroke:#FFFFFF;stroke-width:2.0775;}
	.st6{fill:none;stroke:#FFFFFF;stroke-width:3;stroke-linecap:round;stroke-linejoin:round;}
</style>
<g id="orginal">
</g>
<g>
	<path class="st0" d="M354.2,353.6c3.1-25.9,2.2-29.7,21.4-25.5l4.9,0.4c14.8,0.7,34.2-2.4,45.6-7.7c24.5-11.4,39-30.4,14.9-25.4
		c-55.1,11.4-58.9-7.3-58.9-7.3c58.2-86.4,82.5-196,61.5-222.8C386.4-7.9,287.2,26.8,285.5,27.7l-0.5,0.1
		c-10.9-2.3-23.1-3.6-36.8-3.8c-24.9-0.4-43.9,6.5-58.2,17.4c0,0-176.9-72.9-168.7,91.7c1.8,35,50.2,264.9,107.9,195.4
		c21.1-25.4,41.5-46.9,41.5-46.9c10.1,6.7,22.3,10.2,35,8.9l1-0.8c-0.3,3.2-0.2,6.2,0.4,9.9c-14.9,16.6-10.5,19.5-40.2,25.7
		c-30.1,6.2-12.4,17.2-0.9,20.1c14,3.5,46.4,8.5,68.2-22.2l-0.9,3.5c5.8,4.7,5.4,33.6,6.3,54.2c0.8,20.6,2.2,39.9,6.4,51.3
		c4.2,11.4,9.2,40.6,48.3,32.2C327,457.4,352,447.3,354.2,353.6"/>
	<path class="st1" d="M441,295.5c-55.1,11.4-58.9-7.3-58.9-7.3c58.2-86.4,82.5-196,61.5-222.9C386.4-7.9,287.2,26.8,285.5,27.7
		l-0.5,0.1c-10.9-2.3-23.1-3.6-36.8-3.8c-24.9-0.4-43.9,6.5-58.2,17.4c0,0-176.9-72.9-168.7,91.7c1.8,35,50.2,264.9,107.9,195.4
		c21.1-25.4,41.5-46.9,41.5-46.9c10.1,6.7,22.3,10.2,35,8.9l1-0.8c-0.3,3.2-0.2,6.2,0.4,9.9c-14.9,16.6-10.5,19.5-40.2,25.7
		c-30.1,6.2-12.4,17.2-0.9,20.1c14,3.5,46.4,8.5,68.2-22.2l-0.9,3.5c5.8,4.7,9.9,30.4,9.2,53.7c-0.7,23.3-1.1,39.3,3.4,51.8
		c4.6,12.5,9.2,40.6,48.3,32.2c32.7-7,49.6-25.1,52-55.4c1.7-21.5,5.5-18.3,5.7-37.6l3-9.1c3.5-29.2,0.6-38.6,20.7-34.2l4.9,0.4
		c14.8,0.7,34.2-2.4,45.6-7.7C450.7,309.5,465.2,290.5,441,295.5L441,295.5z"/>
	<path class="st2" d="M236.6,312.2c-1.5,54.3,0.4,108.9,5.7,122.2c5.3,13.3,16.7,39.1,55.8,30.7c32.7-7,44.6-20.6,49.7-50.5
		c3.8-22,11.1-83.1,12.1-95.7"/>
	<path class="st2" d="M189.7,40.1c0,0-177-72.4-168.8,92.2c1.8,35,50.2,264.9,107.9,195.4c21.1-25.4,40.2-45.3,40.2-45.3"/>
	<path class="st2" d="M285.4,26.9c-6.1,1.9,98.5-38.2,157.9,37.7c21,26.8-3.3,136.5-61.5,222.9"/>
	<path class="st3" d="M381.7,287.5c0,0,3.8,18.7,58.9,7.3c24.2-5,9.6,14-14.9,25.4c-20.1,9.3-65.2,11.7-65.9-1.2
		C358,285.7,383.6,295.8,381.7,287.5c-1.7-7.5-13.1-14.9-20.7-33.3c-6.6-16-90.7-139,23.3-120.8c4.2-0.9-29.8-108.5-136.5-110.3
		c-106.7-1.8-103.2,131.3-103.2,131.3"/>
	<path class="st2" d="M206.7,298.9c-14.9,16.6-10.5,19.5-40.2,25.7c-30.1,6.2-12.4,17.2-0.9,20.1c14,3.5,46.4,8.5,68.2-22.2
		c6.7-9.3,0-24.2-9.2-28C220.2,292.7,214.3,290.4,206.7,298.9L206.7,298.9z"/>
	<path class="st2" d="M205.7,298.6c-1.5-9.8,3.2-21.4,8.3-35c7.6-20.4,25.1-40.8,11.1-105.6c-10.4-48.3-80.4-10-80.5-3.5
		c0,6.5,3.2,33.2-1.2,64.2c-5.7,40.5,25.7,74.7,61.9,71.2"/>
	<path class="st4" d="M189.1,153.5c-0.3,2.2,4.1,8.2,9.8,9c5.7,0.8,10.6-3.9,11-6.1c0.3-2.2-4.1-4.7-9.8-5.5
		C194.3,150.1,189.4,151.3,189.1,153.5L189.1,153.5z"/>
	<path class="st5" d="M363.8,149c0.3,2.2-4.1,8.2-9.8,9c-5.7,0.8-10.7-3.9-11-6.1c-0.3-2.2,4.1-4.7,9.8-5.5S363.5,146.7,363.8,149
		L363.8,149z"/>
	<path class="st2" d="M384.4,133.5c0.9,17.5-3.8,29.5-4.4,48.1c-0.9,27.1,12.9,58.2-7.9,89.3"/>
	<path class="st6" d="M0,64.2"/>
</g>
</svg>
