<?xml version="1.0" encoding="utf-8"?>
<!-- Generator: Adobe Illustrator 26.1.0, SVG Export Plug-In . SVG Version: 6.00 Build 0)  -->
<svg version="1.1" id="Layer_1" xmlns="http://www.w3.org/2000/svg" xmlns:xlink="http://www.w3.org/1999/xlink" x="0px" y="0px"
	 viewBox="0 0 498.8 512" style="enable-background:new 0 0 498.8 512;" xml:space="preserve">
<style type="text/css">
	.st0{fill:#08A4BD;}
</style>
<g id="orginal">
</g>
<g>
	<path class="st0" d="M288.8,500.5c0-0.5-0.5-0.4-0.8-0.5c-10.1-0.9-19.3-4.3-27.1-10.8c-6.6-5.5-11.4-12.4-14.8-20.3
		c-3.3-7.7-5.9-15.6-8-23.7c-1.1-4.5-1.8-9.1-2.4-13.7c-0.6-5-1.1-10-1.5-15.1c-0.3-4.1-0.6-8.3-0.7-12.4c-0.2-4.1-0.3-8.1-0.5-12.2
		c-0.2-4.9-0.4-9.8-0.5-14.7c0-0.3,0-0.6-0.1-1c-0.1-0.8-0.4-1-1.2-0.6c-6.9,3.3-14.3,5.2-21.9,6.3c-5.2,0.7-10.5,0.9-15.8,0.6
		c-8.6-0.5-17.2-1.8-25.4-4.8c-6.9-2.5-13.2-5.9-18.1-11.4c-0.2-0.2-0.3-0.3-0.5-0.5c-1.4-1.6-1.3-1.5-3-0.1
		c-6.5,5.4-13.8,9-22.2,10.2c-7.4,1-14.5-0.3-21.2-3.3c-7.9-3.5-14.2-9-19.9-15.4c-6.2-7-11.2-14.9-15.8-23.1
		c-4.8-8.6-8.8-17.5-12.6-26.6c-4.6-11-8.6-22.2-12.3-33.6c-3.5-10.7-6.6-21.4-9.5-32.2c-2.2-8.1-4.2-16.2-6.2-24.3
		c-2.5-10.7-4.9-21.4-6.9-32.2c-1.5-7.9-2.9-15.8-3.9-23.8c-0.5-4.3-1.2-8.5-1.2-12.8c0-0.3,0.1-0.8-0.5-0.8c0-1.2,0-2.4,0-3.6
		c0.4-1,0.4-2.1,0-3.1c0-1.8,0-3.7,0-5.5c0.4-1,0.4-2.1,0-3.1c0-1,0-2.1,0-3.1c0.6-0.1,0.5-0.6,0.5-0.9c0-1.4,0.1-2.7,0.2-4.1
		c0.3-6,1.1-11.9,2.2-17.8c1.7-9.9,4.5-19.5,8.7-28.6c5.9-13,14.2-24.2,25.3-33.2c8.2-6.6,17.2-11.5,27.1-15
		c11.8-4.2,23.9-6.3,36.4-6.9c7.1-0.3,14.3-0.3,21.4,0.3c5.2,0.4,10.4,1,15.5,1.7c7.1,1,14.2,2.4,21.2,4c8.7,2,17.3,4.5,25.7,7.3
		c0.6,0.2,1.2,0.3,1.8-0.1c2.7-1.6,5.4-3,8.2-4.4c5.9-2.8,12-5,18.3-6.6c8.7-2.3,17.5-3.4,26.4-3.8c4-0.2,8.1-0.1,12.1,0.1
		c5.2,0.2,10.4,0.5,15.6,1c3.6,0.3,7.2,0.8,10.8,1.4c2.5,0.4,5,0.9,7.5-0.3c0.1-0.1,0.2-0.1,0.3-0.1c6.5-1.8,13.1-3.3,19.8-4.4
		c4.4-0.7,8.9-1.4,13.3-1.9c2.9-0.3,5.8-0.6,8.7-0.7c0.3,0,0.7,0,0.7-0.5c0.7,0,1.4,0,2.2,0c0.5,0.4,1,0.4,1.4,0c0.4,0,0.8,0,1.2,0
		c0.1,0.2,0.2,0.2,0.2,0c4.5,0,9,0,13.4,0c0.1,0.2,0.2,0.2,0.2,0c0.4,0,0.8,0,1.2,0c0.5,0.4,1,0.4,1.4,0c0.6,0,1.3,0,1.9,0
		c0,0.5,0.4,0.5,0.7,0.5c2.8,0.1,5.6,0.4,8.3,0.7c5.5,0.6,10.9,1.5,16.2,2.7c11.1,2.4,21.7,6,31.9,11c8.4,4.1,16.3,9,23.7,14.8
		c4.5,3.5,8.7,7.2,12.6,11.1c3.1,3.1,6.1,6.4,8.9,9.8c2.5,3,4.9,6.1,6.7,9.6c5,9.6,6.7,20.1,7.2,30.7c0.3,6.5,0.2,13.1-0.4,19.6
		c-0.3,3.5-0.6,7.1-1.1,10.6c-0.8,6.1-1.8,12.2-3,18.2c-2.7,14-6.4,27.8-10.7,41.4c-2.6,8.3-5.6,16.6-8.7,24.7
		c-5.1,13.2-10.7,26.2-16.9,39c-2.5,5.1-5.1,10.2-7.8,15.2c-3.5,6.6-7.2,13.1-11.1,19.6c-0.2,0.3-0.5,0.6-0.3,0.9
		c0.2,0.3,0.6,0.1,0.9,0.1c3.8,0.1,7.5-0.3,11.2-0.7c5.3-0.6,10.5-1.5,15.8-2.6c5.5-1.1,10.9-1.5,16.5-0.6
		c8.7,1.5,15.7,8.2,17.6,16.8c0.1,0.3,0,0.7,0.5,0.7c0,0.2,0,0.3,0,0.5c-0.3,0.2-0.3,0.3,0,0.5c0,1.9,0,3.8,0,5.8
		c-0.3,0.2-0.3,0.3,0,0.5c0,0.2,0,0.5,0,0.7c-0.5,0-0.4,0.4-0.5,0.7c-0.5,2.4-1.4,4.7-2.5,6.8c-3.2,6.1-8,10.8-13.3,15
		c-4.3,3.5-9.1,6.5-13.9,9.3c-6.6,3.8-13.6,6.7-20.9,8.7c-6.1,1.6-12.3,2.9-18.6,3.7c-4.4,0.5-8.9,1-13.3,1.1
		c-4.6,0.1-9.3,0.2-13.9-0.4c-0.7-0.1-1.3,0-1.4,1c-0.5,4.7-1,9.4-1,14.2c0,2.2-0.1,4.5-0.3,6.7c-0.4,4.9-0.7,9.8-1.2,14.8
		c-0.4,4-0.7,7.9-1.3,11.9c-0.9,6.2-1.9,12.3-3.3,18.4c-2.4,10.7-5.7,21.1-10.9,30.8c-3.9,7.1-8.6,13.5-14.6,19
		c-6.2,5.6-13.2,9.9-21,12.9c-10.6,4.1-21.6,6.8-33,7.9c-0.3,0-0.7,0-0.7,0.5c-0.6,0-1.3,0-1.9,0c-0.6-0.4-1.1-0.4-1.7,0
		c-1,0-2.1,0-3.1,0c-0.6-0.4-1.1-0.4-1.7,0C289.9,500.5,289.3,500.5,288.8,500.5z M242.2,352.4c0,0.4,0,0.6,0,0.8
		c0.1,11-0.2,21.9,0.2,32.9c0.2,5.3,0.3,10.6,0.5,15.9c0.2,6.6,0.7,13.1,1,19.7c0.1,2.1,0.3,4.2,0.5,6.3c0.4,3.1,0.7,6.2,1.1,9.4
		c0.5,3.6,0.9,7.1,1.9,10.6c2.3,8,5.8,15.5,10.7,22.2c4.2,5.8,9.4,10.4,15.8,13.7c6.1,3.1,12.7,4.6,19.6,4.9
		c5.3,0.3,10.5-0.2,15.7-1.2c7.9-1.5,15.6-3.6,23-6.8c7.3-3.2,13.8-7.4,19.1-13.4c4.3-4.8,7.4-10.2,9.7-16.1
		c4.1-10.3,5.6-21.2,7.2-32.1c0.6-3.8,1.1-7.6,1.6-11.5c0.6-4.3,1.2-8.7,1.8-13c0.4-3.4,0.9-6.9,1.3-10.3c0.5-4.2,1.1-8.4,1.6-12.7
		c0.5-3.8,0.8-7.6,1.3-11.4c0.5-4,1-8,1.4-12c0.1-0.7,0.2-0.8,0.9-0.6c6.1,1.9,12.4,2.3,18.7,2.3c2.8,0,5.6-0.1,8.5-0.3
		c4.2-0.3,8.3-0.8,12.4-1.5c10.5-1.7,20.5-4.5,29.8-9.9c7.2-4.2,14.2-8.8,19.7-15.2c1.7-2,3.2-4.2,4-6.8c1.4-4.5,0-8.7-3.7-11
		c-3.2-1.9-6.7-2.2-10.2-1.7c-5.8,0.8-11.5,2-17.3,2.9c-3.8,0.6-7.7,1.1-11.6,1.2c-3.4,0.2-6.8,0.4-10.2,0.1c-2.7-0.3-5.5-0.5-8.2-1
		c-2.5-0.5-4.9-1.3-7-2.6c-0.6-0.4-1.4-0.7-0.7-1.7c5.6-8.6,10.9-17.3,15.8-26.2c5.2-9.3,10.1-18.7,14.6-28.3
		c5.3-11.3,10.1-22.7,14.5-34.4c4.4-11.8,8.4-23.8,11.8-36c3.8-13.9,7-27.9,8.8-42.2c0.7-5.4,1.3-10.8,1.5-16.2
		c0.3-8.8,0.3-17.6-1.6-26.2c-1.1-5.1-2.6-10.2-5.6-14.5c-4.2-6-9.2-11.4-14.6-16.4c-4.6-4.4-9.5-8.4-14.8-11.9
		c-10.3-7-21.4-12.3-33.3-16c-12.9-4-26-6-39.5-6.5c-4.6-0.2-9.2-0.1-13.8,0.1c-5,0.3-10,0.6-15,1.2c-5.8,0.7-11.7,1.6-17.4,2.9
		c-6.2,1.4-12.4,2.9-18.4,5.1c-0.3,0.1-0.6,0.1-0.9,0c-5.4-1.3-10.9-2.3-16.4-3.1c-5.4-0.7-10.8-1.1-16.2-1.3
		c-5.4-0.2-10.8,0.1-16.1,0.6c-4.6,0.5-9.2,1.2-13.8,2.3c-10.6,2.6-20.4,6.7-29.5,12.8c-0.6,0.4-1.2,0.5-1.9,0.2
		c-5-1.9-10-3.5-15.1-5c-6.6-1.9-13.3-3.6-20-5.1c-7.5-1.6-15.1-2.8-22.7-3.7c-4.9-0.5-9.8-0.9-14.8-1.1c-3.9-0.1-7.9-0.1-11.9,0.1
		c-4.7,0.2-9.3,0.6-13.9,1.3c-7,1.1-13.8,2.8-20.5,5.2c-9.9,3.6-18.8,9-26.5,16.1c-4.1,3.8-7.7,8.1-10.9,12.7
		C37.9,78.3,33.8,88.4,31,99c-2.7,10.3-3.9,20.7-4.3,31.3c-0.3,6.7-0.2,13.5,0.4,20.2c0.4,4.8,1.1,9.7,1.8,14.4
		c1,6.3,2.1,12.6,3.3,18.9c2.1,10.8,4.5,21.6,7.1,32.3c2.4,10,5,20,7.8,29.9c2.5,9,5.3,17.9,8.2,26.7c2.1,6.4,4.4,12.8,6.8,19.2
		c4.2,10.9,8.7,21.7,14.3,32c4.5,8.4,9.4,16.6,15.8,23.8c4.5,5.1,9.6,9.6,15.9,12.4c4.7,2.1,9.7,3,14.8,2.2c6.7-1.1,12.3-4.4,17.3-9
		c3.4-3.1,6.2-6.7,9.2-10.2c3.6-4.2,7.2-8.5,10.9-12.7c2.7-3.1,5.5-6.1,8.2-9.2c4.6-5.2,9.3-10.3,14-15.4c0.9-1,1.6-1,2.8-0.4
		c7.9,4.1,16.3,6.3,25.2,6.6c0.9,0,1.1,0.4,1,1.2c0,0.5-0.3,0.9-0.6,1.3c-1.6,1.9-3.2,3.9-4.7,5.9c-1.8,2.3-3.6,4.6-5.9,6.4
		c-3.3,2.5-7.3,3.7-11.3,4.8c-5.4,1.5-11,2.4-16.4,3.9c-4.3,1.1-8.4,2.5-12,5.3c-5.2,4.1-6.3,10.3-2.2,15.6c2.9,3.8,6.9,6,11.1,7.8
		c7.5,3.2,15.5,4.5,23.6,5c6.2,0.4,12.4,0.1,18.6-1.1c6.6-1.4,12.8-3.5,18.7-6.9C234.6,358.7,238.4,355.8,242.2,352.4z"/>
	<path class="st0" d="M14.5,132.1c0.4,1,0.4,2.1,0,3.1C14.5,134.2,14.5,133.1,14.5,132.1z"/>
	<path class="st0" d="M14.5,140.7c0.4,1,0.4,2.1,0,3.1C14.5,142.8,14.5,141.8,14.5,140.7z"/>
	<path class="st0" d="M290.4,500.5c0.6-0.4,1.1-0.4,1.7,0C291.6,500.5,291,500.5,290.4,500.5z"/>
	<path class="st0" d="M295.2,500.5c0.6-0.4,1.1-0.4,1.7,0C296.4,500.5,295.8,500.5,295.2,500.5z"/>
	<path class="st0" d="M345.9,15.7c-0.5,0.4-1,0.4-1.4,0C344.9,15.7,345.4,15.7,345.9,15.7z"/>
	<path class="st0" d="M363.6,15.7c-0.5,0.4-1,0.4-1.4,0C362.7,15.7,363.1,15.7,363.6,15.7z"/>
	<path class="st0" d="M484.3,310.6c-0.3-0.2-0.3-0.3,0-0.5C484.3,310.3,484.3,310.5,484.3,310.6z"/>
	<path class="st0" d="M484.3,316.9c-0.3-0.2-0.3-0.3,0-0.5C484.3,316.6,484.3,316.7,484.3,316.9z"/>
	<path class="st0" d="M347.3,15.7c-0.1,0.2-0.2,0.2-0.2,0C347.2,15.7,347.2,15.7,347.3,15.7z"/>
	<path class="st0" d="M361,15.7c-0.1,0.2-0.2,0.2-0.2,0C360.8,15.7,360.9,15.7,361,15.7z"/>
	<path class="st0" d="M254.7,363.1c0-5.4-0.2-10.7,0-16.1c0.2-4.4,0-8.9,0.2-13.3c0.1-1.3,0.2-2.5,0.2-3.8
		c-0.1-8.5-3.3-15.8-9.6-21.5c-4.6-4.1-10-6.3-16.3-6.2c-1.2,0-2.3,0.2-3.4,0.6c-0.8,0.2-0.9,0-0.7-0.7c1-4.4,2.6-8.6,4.1-12.9
		c3.3-9.5,7.8-18.5,11.5-27.9c3.1-7.7,5.3-15.7,6.7-23.9c0.7-4.3,1.1-8.6,1.3-12.9c0.2-4.3,0.3-8.6,0.1-12.8
		c-0.2-4.6-0.6-9.2-1.1-13.8c-1-9.2-2.5-18.3-4.7-27.3c-2.6-10.6-8.2-19-18.4-23.8c-4.1-1.9-8.6-3-13.1-3.3
		c-12.1-0.9-23.5,2.1-34.6,6.5c-4.2,1.6-8.3,3.6-12.2,5.8c-0.9,0.5-1.2,0.3-1.1-0.7c0.3-3.1,0.6-6.3,1-9.4c0.6-4.2,1.2-8.4,2-12.6
		c1-5,2.1-10,3.5-14.9c2.5-9,5.8-17.7,10.1-26c3.8-7.3,8.3-14.2,13.8-20.4c6.9-7.9,15.1-14.1,24.5-18.7c7.1-3.5,14.6-5.7,22.4-6.9
		c4.6-0.7,9.2-1,13.8-1.3c3.6-0.2,7.3,0,10.9,0.2c8.1,0.4,16.1,1.5,24,3.4c11.3,2.6,22,6.7,32.1,12.2c7.2,3.9,13.9,8.5,20.3,13.7
		c5.1,4.2,9.9,8.7,14.4,13.5c4.7,5,9.1,10.4,13,16c5.4,7.6,10.1,15.5,14.1,23.9c1.9,4,3.6,8.2,5.1,12.4c0.4,1.3,0.4,1.4-0.9,1.2
		c-4.9-0.6-9.8-0.9-14.7-0.7c-8.3,0.3-16.4,1.5-23.9,5.3c-9.9,5.1-15.5,13.2-17.4,24.2c-0.7,3.9-0.8,7.8-0.6,11.7
		c0.4,6.3,1.6,12.4,3.2,18.4c2.8,10.1,6.7,19.9,11.1,29.4c4.5,9.8,9.6,19.4,14.9,28.8c3.5,6.2,6.8,12.6,9.8,19
		c3,6.4,7.1,12.1,11.6,17.6c1.4,1.7,2.7,3.5,4.1,5.3c0.8,1,0.8,1.1-0.5,1.4c-3.3,0.9-6.4,2.3-9.2,4.2c-4.4,3.1-7,7.4-8.6,12.3
		c-1.4,4.4-1.9,9-1.7,13.6c0.1,4.1-0.5,8.2-0.9,12.3c-0.4,3.9-0.8,7.8-1.2,11.6c-0.4,3.7-0.9,7.3-1.4,11c-0.4,3.7-0.8,7.4-1.3,11
		c-0.4,3.4-0.8,6.7-1.3,10.1c-0.4,3.5-0.9,7-1.4,10.5c-0.5,3.8-1,7.6-1.6,11.5c-0.6,4.1-1.2,8.2-1.8,12.3c-1.5,9.6-3,19.2-7.5,28
		c-3.7,7.4-9.4,12.9-16.7,16.7c-7.9,4.1-16.4,6.4-25.1,7.9c-3.4,0.6-6.9,1-10.3,0.9c-7.9-0.2-15.2-2.1-21.4-7.3
		c-3.3-2.7-5.9-6-8.1-9.7c-2.2-3.7-4-7.6-5.5-11.6c-1.1-3-1.6-6.2-2.1-9.3c-0.8-5.4-1.4-10.8-1.7-16.3c-0.3-3.7-0.5-7.3-0.7-11
		c-0.3-6.1-0.6-12.3-0.8-18.4c-0.1-2.9-0.1-5.7-0.2-8.6C254.6,377.1,254.7,370.1,254.7,363.1z"/>
	<path class="st0" d="M39.2,137.3c-0.1-4.6,0.2-9.1,0.5-13.6c0.8-10.4,2.6-20.6,6.2-30.5c2.9-8,6.8-15.4,12.3-21.9
		c6.7-8,15.1-13.9,24.8-18c6.5-2.7,13.3-4.5,20.2-5.6c4.7-0.7,9.5-1.2,14.3-1.3c2.7-0.1,5.3-0.2,8-0.1c4.6,0.2,9.2,0.4,13.8,0.9
		c12.4,1.2,24.5,3.6,36.6,6.8c4.5,1.2,9.1,2.5,13.5,4c1,0.3,0.3,0.7,0,0.9c-2,1.9-3.8,4-5.6,6.1c-4.2,4.9-7.9,10.2-11.2,15.8
		c-5.2,8.8-9.2,18.2-12.4,28c-3,9.3-5.3,18.9-6.8,28.6c-0.8,5-1.5,10.1-1.9,15.1c-0.4,4.4-0.5,8.8-0.8,13.1
		c-0.3,4.6,0.2,9.1,0.4,13.6c0.1,3.4,0.3,6.8,0.5,10.3c0.3,6.2,0.3,12.4,0.1,18.6c-0.1,5.4-0.5,10.9-1.1,16.3
		c-0.5,4.9-1.4,9.7-1.7,14.6c-0.2,3.7-0.2,7.3,0.1,11c0.4,4.9,1.3,9.7,2.7,14.4c2.2,7.5,5.6,14.5,10.2,20.9c2.9,4,6.2,7.6,9.8,11
		c1.6,1.5,1.5,1.5,0,3c-5.3,5.7-10.6,11.4-15.7,17.3c-3.1,3.5-6.2,7-9.2,10.5c-3.8,4.4-7.4,8.9-11.2,13.2c-3.2,3.6-6.6,7-11.3,8.9
		c-4.5,1.8-8.8,1.2-12.9-1.2c-5.7-3.3-10-8.1-13.8-13.4c-6-8.2-10.8-17.2-15.1-26.5c-6.5-14-11.8-28.4-16.5-43
		c-3.4-10.5-6.5-21-9.3-31.6c-1.9-7-3.6-14-5.3-21c-2.5-10.3-4.8-20.7-6.8-31.1c-1.5-7.8-2.9-15.7-4-23.6c-0.6-4.5-1.1-9-1.2-13.5
		C39.3,141.8,39.2,139.6,39.2,137.3z"/>
	<path class="st0" d="M315.8,44.1c3.2-0.8,6.2-1.3,9.2-1.8c4.2-0.7,8.4-1.2,12.7-1.6c2.1-0.2,4.2-0.4,6.3-0.5
		c4.6-0.1,9.2-0.5,13.8-0.3c8,0.4,15.9,1.1,23.7,2.5c12.2,2.3,23.7,6.3,34.6,12.1c6.2,3.4,12.1,7.3,17.5,11.9c3.5,2.9,6.9,6,10,9.3
		c2.9,3.1,5.9,6.2,8.2,9.8c2.2,3.4,3.2,7.3,3.9,11.2c1.3,6.9,1.5,13.9,1.2,20.9c-0.5,10.1-1.8,20-3.7,29.9
		c-2.3,12-5.3,23.9-8.8,35.6c-4.1,13.7-9,27.1-14.5,40.3c-3,7.2-6.2,14.3-9.5,21.3c-7.2,15.2-15.2,29.9-24.2,44.1
		c-0.2,0.3-0.4,0.7-0.6,1c-0.9,1.4-0.9,1.4-1.9,0.1c-2-2.5-2-2.5-0.4-5.4c4-7.4,6.8-15.2,8.1-23.5c0.5-3.3,0.8-6.7,1-10.1
		c0.1-2.4,0.3-4.7,0.1-7.1c-0.2-4.2-0.3-8.4-0.9-12.6c-0.5-3.9-0.8-7.8-1.3-11.7c-0.5-4.3-1.1-8.5-1.3-12.8
		c-0.2-3.2-0.5-6.4-0.2-9.7c0.3-2.6,0.3-5.2,0.5-7.9c0.3-3.5,0.8-6.9,1.3-10.3c0.6-4.3,1.3-8.6,1.8-12.9c0.6-4.9,0.4-9.9,0.8-14.8
		c0.5-6.8-1.8-12.9-4.1-19c-4.5-11.8-10.6-22.8-17.7-33.2c-4-5.8-8.2-11.3-12.9-16.5c-3.2-3.6-6.5-7.1-10.1-10.4
		c-5.7-5.3-11.7-10.2-18.1-14.6c-6.3-4.3-13-8.1-19.9-11.4C318.9,45.5,317.5,44.9,315.8,44.1z"/>
	<path class="st0" d="M236.4,216.3c-0.1,13.1-1.6,25-5.8,36.5c-1.8,5.1-4,10.1-6.3,15c-2.5,5.5-4.6,11.2-6.7,16.9
		c-1.7,4.6-3.4,9.3-4.5,14.1c-0.2,0.8-0.6,0.9-1.3,0.9c-6.2-0.2-12.1-1.4-17.8-3.8c-6.3-2.7-11.8-6.5-16.6-11.4
		c-7.8-8-12.7-17.6-15-28.5c-1-5-1.4-10-1.1-15.1c0.2-3,0.6-5.9,1-8.9c0.3-2.5,0.7-5,0.9-7.5c0.4-5.2,0.8-10.3,0.9-15.5
		c0.2-6.5,0.2-13,0-19.4c-0.2-5.2-0.3-10.4-0.9-15.6c-0.1-1.2,0.1-2.2,1.2-3c6.2-4.5,13-7.7,20.2-10.4c4.6-1.7,9.4-3.1,14.3-3.9
		c5.7-0.9,11.3-1.2,16.9,0.3c6.6,1.8,11.1,5.9,13.6,12.2c1.8,4.4,2.5,9,3.3,13.5c0.7,3.7,1.3,7.4,1.8,11.2c0.5,3.3,0.8,6.7,1.1,10.1
		C236.2,208.4,236.3,212.8,236.4,216.3z M209.6,164.2c-3.1,0-5.6,0.3-7.9,1.5c-2.3,1.2-3,3.3-2,5.7c1,2.4,2.7,4.3,4.6,5.9
		c2.2,1.8,4.7,2.9,7.5,3c4.4,0.2,7.9-1.6,10.8-4.8c0.8-0.9,1.5-1.9,1.6-3.3c0.2-2.2-1.1-3.6-2.7-4.6
		C217.8,165.1,213.4,164.5,209.6,164.2z"/>
	<path class="st0" d="M343.4,179.6c0.1-4.4,0.5-8.1,1.8-11.7c2.1-5.5,6.1-9,11.3-11.2c3.8-1.6,7.9-2.4,12.1-2.7
		c2.6-0.2,5.2-0.5,7.8-0.4c4.5,0.1,8.9,0.4,13.3,0.9c0.7,0.1,0.8,0.5,0.8,1.1c0,2.8-0.2,5.5-0.6,8.2c-0.4,3.9-1.1,7.7-1.6,11.6
		c-0.5,3.9-1.1,7.7-1.6,11.6c-0.3,2.1-0.4,4.2-0.5,6.3c-0.1,2.7-0.4,5.3-0.3,8c0.2,4.3,0.4,8.6,0.9,12.9c0.5,4.5,1,9.1,1.5,13.6
		c0.6,5.4,1.1,10.8,1.2,16.3c0.3,10.8-1.2,21.3-5.9,31.1c-0.1,0.2-0.2,0.5-0.4,0.5c-0.3,0.1-0.4-0.3-0.5-0.5
		c-1.3-2.3-2.5-4.7-3.5-7.2c-1.5-3.6-3.5-7-5.4-10.4c-2.2-4.1-4.6-8.1-6.8-12.3c-2.8-5.2-5.6-10.5-8.2-15.9
		c-4.2-8.7-8.1-17.6-11-26.9c-1.9-6-3.4-12.1-4.1-18.4C343.6,182.4,343.3,180.7,343.4,179.6z M365,174.8c5,0.2,10-4.2,11.7-8.2
		c0.9-2,0.2-3.8-1.7-4.7c-0.5-0.3-1.1-0.5-1.7-0.6c-4.6-1-9.1-0.6-13.5,1c-1.6,0.6-3.2,1.3-4.4,2.6c-1.4,1.4-1.6,2.9-0.5,4.5
		C357.4,173,360.8,174.7,365,174.8z"/>
	<path class="st0" d="M198,356.7c-7.4-0.1-14.7-1.1-21.7-3.4c-2-0.7-4-1.6-5.8-2.8c-0.9-0.6-0.9-0.8,0.1-1.3
		c3.1-1.4,6.3-2.1,9.6-2.8c6.8-1.4,13.6-2.9,20.1-5.5c5.1-2.1,9.4-5.3,13-9.5c3.7-4.4,7-9.1,11-13.2c1.3-1.4,2.7-2.7,4.7-3.2
		c0.8-0.2,1.5-0.2,2.4,0c6.1,1.4,9.3,5.7,10.8,11.4c1.1,4.2-0.5,7.7-3.1,11c-6.3,7.7-13.8,13.5-23.2,16.7c-4,1.4-8.1,2.2-12.4,2.5
		C201.6,356.7,199.8,356.7,198,356.7z"/>
	<path class="st0" d="M456.1,316.4c-2.1,2.2-4.3,4-6.6,5.6c-6.3,4.4-13,8.3-20.4,10.6c-5.2,1.6-10.6,2.7-16,3.5
		c-7,1.1-14,1.4-21,1.1c-3.8-0.1-7.6-0.6-11.3-1.9c-2.4-0.8-2.6-1.1-2.6-3.6c0-2.8,0.2-5.6,0.9-8.4c1-4.1,3.4-7.1,7.5-8.5
		c2.1-0.7,4.2-1.3,6.3-2c0.4-0.1,0.6,0,0.9,0.2c4.9,3.8,10.6,5.5,16.6,6.5c5,0.8,10,1.1,15,0.9c5.2-0.2,10.5-0.7,15.7-1.5
		c4.6-0.7,9.3-1.5,13.9-2.5C455.2,316.4,455.5,316.4,456.1,316.4z"/>
</g>
</svg>
