<?xml version="1.0" encoding="utf-8"?>
<!-- Generator: Adobe Illustrator 26.1.0, SVG Export Plug-In . SVG Version: 6.00 Build 0)  -->
<svg version="1.1" id="Layer_1" xmlns="http://www.w3.org/2000/svg" xmlns:xlink="http://www.w3.org/1999/xlink" x="0px" y="0px"
	 viewBox="0 0 448 512" style="enable-background:new 0 0 448 512;" xml:space="preserve">
<style type="text/css">
	.st0{fill:#08A4BD;}
</style>
<g>
	<path class="st0" d="M347.1,215.4c11.7-32.6,45.4-126.9,45.4-157.1c0-26.6-15.7-48.9-43.7-48.9c-44.6,0-84.6,131.7-97.1,163.1
		C242,144,196.6,0,156.6,0c-31.1,0-45.7,22.9-45.7,51.7c0,35.3,34.2,126.8,46.6,162c-6.3-2.3-13.1-4.3-20-4.3
		c-23.4,0-48.3,29.1-48.3,52.6c0,8.9,4.9,21.4,8,29.7c-36.9,10-51.1,34.6-51.1,71.7C46,435.6,114.4,512,210.6,512
		c118,0,191.4-88.6,191.4-202.9C402,266,395.1,227.1,347.1,215.4L347.1,215.4z M311.7,108c4-12.3,21.1-64.3,37.1-64.3
		c8.6,0,10.9,8.9,10.9,16c0,19.1-38.6,124.6-47.1,148l-34-6L311.7,108z M142.3,48.3c0-11.9,14.5-45.7,46.3,47.1l34.6,100.3
		c-15.6-1.3-27.7-3-35.4,1.4C176.9,168.3,142.3,77.4,142.3,48.3L142.3,48.3z M140,244c29.3,0,67.1,94.6,67.1,107.4
		c0,5.1-4.9,11.4-10.6,11.4c-20.9,0-76.9-76.9-76.9-97.7C119.7,257.4,132.3,244,140,244L140,244z M324.3,430.3
		c-29.1,32-66.3,48.6-109.7,48.6c-59.4,0-106.3-32.6-128.9-88.3c-17.1-43.4,3.8-68.3,20.6-68.3c11.4,0,54.3,60.3,54.3,73.1
		c0,4.9-7.7,8.3-11.7,8.3c-16.1,0-22.4-15.5-51.1-51.4c-29.7,29.7,20.5,86.9,58.3,86.9c26.1,0,43.1-24.2,38-42
		c3.7,0,8.3,0.3,11.7-0.6c1.1,27.1,9.1,59.4,41.7,61.7c0-0.9,2-7.1,2-7.4c0-17.4-10.6-32.6-10.6-50.3c0-28.3,21.7-55.7,43.7-71.7
		c8-6,17.7-9.7,27.1-13.1c9.7-3.7,20-8,27.4-15.4c-1.1-11.2-5.7-21.1-16.9-21.1c-27.7,0-120.6,4-120.6-39.7
		c0-6.7,0.1-13.1,17.4-13.1c32.3,0,114.3,8,138.3,29.1C373.4,271.7,379.6,368.8,324.3,430.3L324.3,430.3z M225.7,304.3
		c9.7,3.1,19.7,4,29.7,6c-7.4,5.4-14,12-20.3,19.1C232.3,320.9,228.9,312.6,225.7,304.3z"/>
</g>
</svg>
