<?xml version="1.0" encoding="utf-8"?>
<!-- Generator: Adobe Illustrator 26.1.0, SVG Export Plug-In . SVG Version: 6.00 Build 0)  -->
<svg version="1.1" id="Layer_1" xmlns="http://www.w3.org/2000/svg" xmlns:xlink="http://www.w3.org/1999/xlink" x="0px" y="0px"
	 viewBox="0 0 512 512" style="enable-background:new 0 0 512 512;" xml:space="preserve">
<style type="text/css">
	.st0{fill:#FFFFFF;}
</style>
<path class="st0" d="M512,256c0,141.4-114.6,256-256,256S0,397.4,0,256S114.6,0,256,0S512,114.6,512,256z M57.7,192.1l9.4,17.3
	c8.3,14.5,21.9,25.2,38,29.8l57,16.5c18.1,4.9,29.9,20.6,29.9,38.5v39.9c0,11,6.2,21,16,25c9.8,5.8,16,15.8,16,26.8v39
	c0,15.6,14.9,26.8,29.9,22.5c16.2-4.6,28.6-18.3,32.7-33.7l2.8-11.2c4.2-16.9,15.2-31.4,30.3-40.1l8.1-4.6
	c15-8.5,24.2-24.4,24.2-41.7v-8.2c0-12.8-5.1-25-14.1-34l-3.8-3.8c-9-9-21.3-15-34-15h-44c-10.2,0-21.2-2-30.9-7.5l-34.5-19.8
	c-4.3-2.4-7.6-6.4-9.1-11.1c-3.2-9.6,1.1-20,10.1-24.6l6-2.9c6.6-3.3,14.2-3.9,20.4-1.5l24.1,7.7c8.1,2.7,17.1-0.4,21.9-7.5
	c4.7-7.1,4.2-16.4-1.2-22.9l-13.6-16.2c-10-12-9.9-29.5,0.3-41.3l15.7-18.4c8.8-10.3,10.2-25,3.5-36.7l-2.4-4.2
	c-4.3-0.2-6.9-0.3-10.4-0.3C163.1,48,84.4,108.9,57.7,192.1L57.7,192.1z M437.6,154.5L412,164.8c-15.7,6.3-23.8,23.7-18.5,39.8
	l16.9,50.7c3.5,10.4,12,18.3,22.6,21l29.2,7.2c1.2-9,1.8-18.2,1.8-27.5C464,219.2,454.4,184.6,437.6,154.5L437.6,154.5z"/>
</svg>
