<?xml version="1.0" encoding="utf-8"?>
<!-- Generator: Adobe Illustrator 26.1.0, SVG Export Plug-In . SVG Version: 6.00 Build 0)  -->
<svg version="1.1" id="Layer_1" xmlns="http://www.w3.org/2000/svg" xmlns:xlink="http://www.w3.org/1999/xlink" x="0px" y="0px"
	 viewBox="0 0 3150 1800" style="enable-background:new 0 0 3150 1800;" xml:space="preserve">
<style type="text/css">
	.st0{fill:#0CA4BD;}
	.st1{fill:none;stroke:#0CA4BD;stroke-width:3;stroke-linecap:round;stroke-miterlimit:10;}
</style>
<g>
	<g>
		<path class="st0" d="M225.8,214.5c2.5,0,4.4,0.6,5.8,1.7c1.4,1.1,2.1,3,2.1,5.7v17.3h-2.6l-0.4-4.2c-0.7,0.7-1.6,1.4-2.8,2.1
			c-1.2,0.7-2.6,1.3-4.1,1.8c-1.5,0.5-3.1,0.7-4.6,0.7c-1.4,0-2.7-0.2-3.8-0.7c-1.1-0.5-1.9-1.2-2.5-2.1c-0.6-0.9-0.9-2.1-0.9-3.4
			v-2.9c0-1.8,0.5-3.1,1.6-4.1c1.1-1,2.7-1.5,4.7-1.5h12.1V222c0-1.5-0.4-2.6-1.1-3.3c-0.7-0.8-2.1-1.1-4.1-1.1H218
			c-2.5,0-4.5,0.1-6,0.4c-1.5,0.2-2.6,0.8-3.4,1.7c-0.8,0.9-1.3,2.3-1.5,4.2c-0.2,1.9-0.4,4.6-0.4,8c0,2.8,0.1,5.2,0.2,7
			c0.2,1.8,0.5,3.3,1,4.3c0.5,1,1.2,1.8,2.1,2.3c0.9,0.5,2.2,0.8,3.8,0.9c1.6,0.1,3.5,0.2,5.8,0.2h13.9v2.6
			c-2.3,0.1-4.6,0.2-6.9,0.2c-2.3,0.1-4.6,0.1-6.9,0.1c-2.9,0-5.4-0.1-7.4-0.3c-2-0.2-3.5-0.7-4.7-1.3c-1.2-0.7-2.1-1.6-2.7-3
			c-0.6-1.3-1-3-1.2-5.2c-0.2-2.1-0.3-4.8-0.3-7.9c0-3.1,0.1-5.6,0.2-7.7c0.2-2.1,0.5-3.7,1.1-5c0.6-1.3,1.4-2.2,2.4-2.9
			c1.1-0.7,2.5-1.1,4.2-1.4c1.8-0.2,4-0.4,6.6-0.4H225.8z M230.4,227l-11,0.2c-1.4,0-2.4,0.3-3.1,0.9c-0.6,0.6-1,1.5-1,2.6v2
			c0,1.4,0.4,2.4,1.1,3c0.7,0.6,1.8,1,3.2,1c1.2,0,2.4-0.2,3.8-0.5c1.3-0.3,2.6-0.8,3.8-1.4c1.2-0.6,2.3-1.3,3.2-2.1V227z"/>
	</g>
	<g>
		<path class="st0" d="M251.3,219c1.8,0,3.5,0.2,5.3,0.7c1.8,0.5,3.5,1.2,5.2,2.1l-0.2,2.3c-1.9-0.6-3.6-1.1-5-1.5
			c-1.5-0.4-3-0.6-4.6-0.6c-1.7,0-3.1,0.3-4.1,1c-1,0.6-1.8,1.8-2.3,3.3c-0.5,1.6-0.7,3.8-0.7,6.6c0,2.8,0.2,5,0.7,6.6
			c0.5,1.6,1.2,2.7,2.2,3.4c1,0.7,2.3,1,3.9,1c1.1,0,2.2-0.2,3.1-0.5c0.9-0.3,1.9-0.8,3-1.5c1.1-0.7,2.3-1.6,3.7-2.6l0.3,2.6
			c-1.7,1.5-3.4,2.7-5.2,3.6c-1.8,0.9-3.8,1.4-5.8,1.4c-3.4,0-5.8-1.1-7.3-3.4c-1.5-2.3-2.2-5.8-2.2-10.6c0-3.5,0.4-6.2,1.1-8.2
			s1.8-3.5,3.3-4.4C247.1,219.5,249,219,251.3,219z M264.6,207.8v38.6h-2.7l-0.4-4.7l-0.3-0.3V223l0.3-0.8c-0.1-1-0.2-2-0.2-2.9
			c0-0.9,0-1.8,0-2.9v-8.6H264.6z"/>
	</g>
	<g>
		<path class="st0" d="M284.6,219c3.8,0,6.6,0.7,8.4,2.1c1.8,1.4,2.7,3.5,2.7,6.2c0,2.4-0.4,4.2-1.4,5.5c-1,1.3-2.6,1.9-4.8,1.9
			h-15.5v-2.8h14.7c1.4,0,2.3-0.4,2.8-1.3c0.5-0.9,0.7-2,0.7-3.3c0-1.9-0.6-3.3-1.8-4.1c-1.2-0.8-3.1-1.2-5.6-1.2
			c-2.1,0-3.8,0.3-5.1,1c-1.3,0.7-2.1,1.8-2.6,3.3c-0.5,1.6-0.8,3.7-0.8,6.4c0,3,0.3,5.3,0.9,6.9c0.6,1.6,1.6,2.8,3,3.4
			c1.4,0.6,3.1,1,5.4,1c1.5,0,3.2-0.1,4.8-0.2c1.7-0.1,3.1-0.3,4.4-0.5l0.4,2.4c-0.8,0.3-1.8,0.5-3,0.7c-1.2,0.2-2.4,0.3-3.7,0.4
			c-1.3,0.1-2.4,0.2-3.4,0.2c-3,0-5.4-0.5-7.3-1.4c-1.8-0.9-3.2-2.4-4-4.5c-0.8-2.1-1.3-4.8-1.3-8.2c0-3.5,0.4-6.3,1.2-8.3
			c0.8-2,2.1-3.5,3.9-4.4S281.8,219,284.6,219z"/>
	</g>
	<g>
		<path class="st0" d="M326.2,219.7l-10.2,25.9c-0.1,0.3-0.3,0.5-0.5,0.6s-0.5,0.2-0.8,0.2h-3.3c-0.3,0-0.6-0.1-0.8-0.2
			c-0.2-0.2-0.4-0.4-0.5-0.6l-10.2-25.9h3.8l7.3,19.4c0.3,0.8,0.6,1.6,0.9,2.4c0.3,0.8,0.6,1.6,0.9,2.4h0.7c0.3-0.8,0.6-1.6,0.9-2.4
			c0.3-0.8,0.6-1.6,0.9-2.4l7.3-19.3H326.2z"/>
	</g>
	<g>
		<path class="st0" d="M351.5,246.5v2.8h-24.1v-2.8H351.5z"/>
	</g>
	<g>
		<path class="st0" d="M366.8,219c3.8,0,6.6,0.7,8.4,2.1c1.8,1.4,2.7,3.5,2.7,6.2c0,2.4-0.4,4.2-1.4,5.5c-1,1.3-2.6,1.9-4.8,1.9
			h-15.5v-2.8h14.7c1.4,0,2.3-0.4,2.8-1.3c0.5-0.9,0.7-2,0.7-3.3c0-1.9-0.6-3.3-1.8-4.1c-1.2-0.8-3.1-1.2-5.6-1.2
			c-2.1,0-3.8,0.3-5.1,1c-1.3,0.7-2.1,1.8-2.6,3.3c-0.5,1.6-0.8,3.7-0.8,6.4c0,3,0.3,5.3,0.9,6.9c0.6,1.6,1.6,2.8,3,3.4
			c1.4,0.6,3.1,1,5.4,1c1.5,0,3.2-0.1,4.8-0.2c1.7-0.1,3.1-0.3,4.4-0.5l0.4,2.4c-0.8,0.3-1.8,0.5-3,0.7c-1.2,0.2-2.4,0.3-3.7,0.4
			c-1.3,0.1-2.4,0.2-3.4,0.2c-3,0-5.4-0.5-7.3-1.4c-1.8-0.9-3.2-2.4-4-4.5c-0.8-2.1-1.3-4.8-1.3-8.2c0-3.5,0.4-6.3,1.2-8.3
			c0.8-2,2.1-3.5,3.9-4.4S363.9,219,366.8,219z"/>
	</g>
	<g>
		<path class="st0" d="M399.9,219.7v2.9h-17.4V220l5.2-0.3H399.9z M390.8,211.6v28.1c0,1.4,0.3,2.4,1,3c0.6,0.6,1.6,0.9,3,0.9h4.4
			l0.4,2.6c-0.6,0.1-1.2,0.3-1.9,0.4c-0.7,0.1-1.4,0.2-2.1,0.2c-0.7,0-1.2,0.1-1.6,0.1c-2.2,0-3.8-0.6-4.9-1.7
			c-1.1-1.1-1.7-2.8-1.7-5v-28.6H390.8z"/>
	</g>
	<g>
		<path class="st0" d="M409.3,207.8l0.1,11.1c0,1.1,0,2.2-0.1,3.1c-0.1,1-0.2,1.9-0.3,2.7l0.4,0.8v20.9h-3.5v-38.6H409.3z
			 M421.4,219c4.8,0,7.2,2.4,7.2,7.3v20.1h-3.5v-19.1c0-1.9-0.4-3.3-1.1-4.1c-0.7-0.8-1.9-1.2-3.5-1.2c-1.8,0-3.6,0.4-5.3,1.2
			c-1.7,0.8-3.8,2-6.2,3.6l-0.1-2.6c2.1-1.6,4.2-2.9,6.3-3.9C417.3,219.5,419.3,219,421.4,219z"/>
	</g>
	<g>
		<path class="st0" d="M448.7,219c3,0,5.4,0.5,7.2,1.4c1.8,0.9,3.1,2.4,3.9,4.5c0.8,2.1,1.2,4.8,1.2,8.2c0,3.4-0.4,6.2-1.2,8.2
			c-0.8,2.1-2.1,3.5-3.9,4.5c-1.8,0.9-4.2,1.4-7.2,1.4c-3,0-5.4-0.5-7.2-1.4c-1.8-0.9-3.1-2.4-3.9-4.5c-0.8-2.1-1.2-4.8-1.2-8.2
			c0-3.4,0.4-6.2,1.2-8.2c0.8-2.1,2.1-3.5,3.9-4.5C443.3,219.5,445.7,219,448.7,219z M448.7,222.1c-2.2,0-3.9,0.3-5.1,1
			c-1.3,0.7-2.1,1.8-2.7,3.4c-0.5,1.6-0.8,3.8-0.8,6.6c0,2.8,0.3,5,0.8,6.6c0.5,1.6,1.4,2.8,2.7,3.4c1.2,0.7,3,1,5.1,1
			c2.1,0,3.8-0.3,5.1-1c1.3-0.7,2.2-1.8,2.7-3.4c0.5-1.6,0.8-3.8,0.8-6.6c0-2.8-0.3-5-0.8-6.6c-0.5-1.6-1.4-2.7-2.7-3.4
			C452.5,222.4,450.8,222.1,448.7,222.1z"/>
	</g>
	<g>
		<path class="st0" d="M477.5,219c1.1,0,2.3,0,3.6,0.1c1.3,0.1,2.5,0.2,3.8,0.3c1.2,0.1,2.4,0.2,3.5,0.4l-0.3,2.6
			c-1.7-0.1-3.3-0.2-5.1-0.2c-1.7-0.1-3.4-0.1-5.1-0.1c-1.8,0-3.2,0-4.2,0.1c-1,0.1-1.8,0.5-2.3,1.1c-0.5,0.6-0.7,1.6-0.7,3
			c0,1.6,0.3,2.7,1,3.2c0.7,0.6,1.7,1,3.1,1.2l8.2,1.5c2.1,0.4,3.6,1.1,4.6,2.2c1,1.1,1.5,2.7,1.5,4.9c0,2.2-0.4,3.9-1.2,5
			c-0.8,1.1-2,1.8-3.7,2.1c-1.7,0.3-3.7,0.5-6.2,0.5c-1.1,0-2.5,0-4.3-0.1c-1.8-0.1-3.8-0.3-5.9-0.6l0.3-2.5c1,0,2,0.1,3,0.1
			c1,0.1,2,0.1,3.1,0.1c1,0,2.1,0,3.3,0c2.1,0,3.8-0.2,5-0.4c1.2-0.2,2.1-0.6,2.6-1.3c0.5-0.7,0.8-1.7,0.8-3c0-1.5-0.4-2.6-1.2-3.1
			c-0.8-0.6-1.9-1-3.2-1.2l-8.2-1.5c-1.4-0.3-2.5-0.7-3.4-1.3c-0.9-0.6-1.5-1.3-2-2.3c-0.4-1-0.6-2.2-0.6-3.7c0-2.1,0.4-3.7,1.1-4.8
			c0.7-1,1.9-1.7,3.4-2.1C473.2,219.1,475.1,219,477.5,219z"/>
	</g>
</g>
<g>
	<g>
		<path class="st0" d="M2716.1,211.2c1.8,0,3.5,0.2,5.3,0.7c1.8,0.5,3.5,1.2,5.2,2.1l-0.2,2.3c-1.9-0.6-3.6-1.1-5-1.5
			c-1.5-0.4-3-0.6-4.6-0.6c-1.7,0-3.1,0.3-4.1,1c-1,0.6-1.8,1.8-2.3,3.3c-0.5,1.6-0.7,3.8-0.7,6.6c0,2.8,0.2,5,0.7,6.6
			c0.5,1.6,1.2,2.7,2.2,3.4c1,0.7,2.3,1,3.9,1c1.1,0,2.2-0.2,3.1-0.5c0.9-0.3,1.9-0.8,3-1.5c1.1-0.7,2.3-1.6,3.7-2.6l0.3,2.6
			c-1.7,1.5-3.4,2.7-5.2,3.6c-1.8,0.9-3.8,1.4-5.8,1.4c-3.4,0-5.8-1.1-7.3-3.4c-1.5-2.3-2.2-5.8-2.2-10.6c0-3.5,0.4-6.2,1.1-8.2
			c0.7-2,1.8-3.5,3.3-4.4C2711.9,211.6,2713.8,211.2,2716.1,211.2z M2729.4,200v38.6h-2.7l-0.4-4.7l-0.3-0.3v-18.5l0.3-0.8
			c-0.1-1-0.2-2-0.2-2.9c0-0.9,0-1.8,0-2.9V200H2729.4z"/>
	</g>
	<g>
		<path class="st0" d="M2749.4,211.2c3.8,0,6.6,0.7,8.4,2.1c1.8,1.4,2.7,3.5,2.7,6.2c0,2.4-0.4,4.2-1.4,5.5c-1,1.3-2.6,1.9-4.8,1.9
			h-15.5v-2.8h14.7c1.4,0,2.3-0.4,2.8-1.3c0.5-0.9,0.7-2,0.7-3.3c0-1.9-0.6-3.3-1.8-4.1c-1.2-0.8-3.1-1.2-5.6-1.2
			c-2.1,0-3.8,0.3-5.1,1c-1.3,0.7-2.1,1.8-2.6,3.3c-0.5,1.6-0.8,3.7-0.8,6.4c0,3,0.3,5.3,0.9,6.9c0.6,1.6,1.6,2.8,3,3.4
			c1.4,0.6,3.1,1,5.4,1c1.5,0,3.2-0.1,4.8-0.2c1.7-0.1,3.1-0.3,4.4-0.5l0.4,2.4c-0.8,0.3-1.8,0.5-3,0.7c-1.2,0.2-2.4,0.3-3.7,0.4
			s-2.4,0.2-3.4,0.2c-3,0-5.4-0.5-7.3-1.4c-1.8-0.9-3.2-2.4-4-4.5c-0.8-2.1-1.3-4.8-1.3-8.2c0-3.5,0.4-6.3,1.2-8.3
			c0.8-2,2.1-3.5,3.9-4.4C2744.3,211.6,2746.6,211.2,2749.4,211.2z"/>
	</g>
	<g>
		<path class="st0" d="M2776.8,211.2c1.1,0,2.3,0,3.6,0.1c1.3,0.1,2.5,0.2,3.8,0.3c1.2,0.1,2.4,0.2,3.5,0.4l-0.3,2.6
			c-1.7-0.1-3.3-0.2-5.1-0.2s-3.4-0.1-5.1-0.1c-1.8,0-3.2,0-4.2,0.1c-1,0.1-1.8,0.5-2.3,1.1c-0.5,0.6-0.7,1.6-0.7,3
			c0,1.6,0.3,2.7,1,3.2c0.7,0.6,1.7,1,3.1,1.2l8.2,1.5c2.1,0.4,3.6,1.1,4.6,2.2c1,1.1,1.5,2.7,1.5,4.9c0,2.2-0.4,3.9-1.2,5
			c-0.8,1.1-2,1.8-3.7,2.1c-1.7,0.3-3.7,0.5-6.2,0.5c-1.1,0-2.5,0-4.3-0.1c-1.8-0.1-3.8-0.3-5.9-0.6l0.3-2.5c1,0,2,0.1,3,0.1
			c1,0.1,2,0.1,3.1,0.1c1,0,2.1,0,3.3,0c2.1,0,3.8-0.2,5-0.4c1.2-0.2,2.1-0.6,2.6-1.3c0.5-0.7,0.8-1.7,0.8-3c0-1.5-0.4-2.6-1.2-3.1
			c-0.8-0.6-1.9-1-3.2-1.2l-8.2-1.5c-1.4-0.3-2.5-0.7-3.4-1.3c-0.9-0.6-1.5-1.3-2-2.3c-0.4-1-0.6-2.2-0.6-3.7c0-2.1,0.4-3.7,1.1-4.8
			c0.7-1,1.9-1.7,3.4-2.1C2772.5,211.3,2774.4,211.2,2776.8,211.2z"/>
	</g>
	<g>
		<path class="st0" d="M2798.8,200.6c0.8,0,1.2,0.4,1.2,1.2v3.3c0,0.8-0.4,1.2-1.2,1.2h-1.7c-0.8,0-1.2-0.4-1.2-1.2v-3.3
			c0-0.8,0.4-1.2,1.2-1.2H2798.8z M2799.7,211.9v26.8h-3.4v-26.8H2799.7z"/>
	</g>
	<g>
		<path class="st0" d="M2811.9,226.3l2.2,0.3c-0.8,0.7-1.3,1.5-1.5,2.4c-0.3,0.9-0.2,1.7,0.2,2.5c0.4,0.7,1.3,1.2,2.7,1.4l10.3,1.7
			c2.4,0.4,4.1,1.1,5,2.3c0.9,1.2,1.4,2.8,1.4,5c0,2-0.4,3.6-1.2,4.8c-0.8,1.2-2.1,2-3.9,2.5c-1.8,0.5-4.3,0.8-7.3,0.8
			c-2.4,0-4.3-0.1-5.9-0.4s-2.9-0.7-3.9-1.4c-1-0.6-1.7-1.4-2.1-2.5c-0.4-1-0.6-2.3-0.6-3.8c0-1.2,0.1-2.2,0.4-3.1
			c0.3-0.8,0.8-1.6,1.4-2.2c0.7-0.6,1.6-1.3,2.7-1.8l2.9-1.6l1.9,0.6l-2.7,1.9c-0.8,0.6-1.5,1.1-1.9,1.7c-0.5,0.6-0.8,1.2-1,1.8
			c-0.2,0.7-0.3,1.5-0.3,2.5c0,1.3,0.3,2.4,0.8,3.1c0.6,0.8,1.5,1.3,2.8,1.6c1.3,0.3,3.2,0.4,5.5,0.4c2.3,0,4.1-0.2,5.4-0.5
			c1.3-0.3,2.2-0.8,2.8-1.6c0.6-0.8,0.8-1.8,0.8-3.1c0-1-0.1-1.8-0.4-2.4c-0.2-0.6-0.7-1-1.4-1.4c-0.7-0.3-1.7-0.6-3-0.8l-10.2-1.5
			c-1.1-0.2-2.1-0.6-2.7-1.1c-0.7-0.6-1.2-1.2-1.4-2c-0.3-0.8-0.4-1.6-0.2-2.3c0.1-0.8,0.4-1.5,0.8-2.3
			C2810.7,227.2,2811.2,226.7,2811.9,226.3z M2819.4,211.2c2.8,0,4.9,0.3,6.6,0.9s2.8,1.5,3.5,2.8c0.7,1.2,1.1,2.8,1.1,4.8
			c0,1.9-0.4,3.5-1.1,4.7c-0.7,1.3-1.9,2.2-3.5,2.8c-1.6,0.6-3.8,0.9-6.5,0.9c-2.8,0-5-0.3-6.6-0.9c-1.6-0.6-2.8-1.5-3.5-2.8
			c-0.7-1.2-1.1-2.8-1.1-4.7c0-1.9,0.4-3.5,1.1-4.8c0.7-1.2,1.9-2.2,3.5-2.8C2814.5,211.5,2816.7,211.2,2819.4,211.2z M2819.4,214
			c-2.9,0-5,0.5-6.2,1.4c-1.2,0.9-1.8,2.3-1.8,4.3c0,2,0.6,3.4,1.8,4.3c1.2,0.9,3.2,1.4,6.2,1.4s5-0.5,6.1-1.4
			c1.1-0.9,1.7-2.3,1.7-4.3c0-2-0.6-3.4-1.7-4.3C2824.4,214.4,2822.4,214,2819.4,214z M2833.7,211.9l-0.2,2l-6.7,0.4l-1.9-2.5
			H2833.7z"/>
	</g>
	<g>
		<path class="st0" d="M2842.6,211.9l0.3,5.1l0.3,0.8v20.9h-3.5v-26.8H2842.6z M2855.2,211.2c4.8,0,7.2,2.4,7.2,7.3v20.1h-3.5v-19.1
			c0-1.9-0.4-3.3-1.1-4.1c-0.7-0.8-1.9-1.2-3.5-1.2c-1.8,0-3.6,0.4-5.3,1.3c-1.7,0.8-3.8,2-6.2,3.6l-0.2-2.6c2.2-1.7,4.3-3,6.4-3.9
			C2851.1,211.7,2853.1,211.2,2855.2,211.2z"/>
	</g>
	<g>
		<path class="st0" d="M2882.1,211.2c3.8,0,6.6,0.7,8.4,2.1c1.8,1.4,2.7,3.5,2.7,6.2c0,2.4-0.4,4.2-1.4,5.5c-1,1.3-2.6,1.9-4.8,1.9
			h-15.5v-2.8h14.7c1.4,0,2.3-0.4,2.8-1.3c0.5-0.9,0.7-2,0.7-3.3c0-1.9-0.6-3.3-1.8-4.1c-1.2-0.8-3.1-1.2-5.6-1.2
			c-2.1,0-3.8,0.3-5.1,1s-2.1,1.8-2.6,3.3c-0.5,1.6-0.8,3.7-0.8,6.4c0,3,0.3,5.3,0.9,6.9c0.6,1.6,1.6,2.8,3,3.4c1.4,0.6,3.1,1,5.4,1
			c1.5,0,3.2-0.1,4.8-0.2c1.7-0.1,3.1-0.3,4.4-0.5l0.4,2.4c-0.8,0.3-1.8,0.5-3,0.7s-2.4,0.3-3.7,0.4c-1.3,0.1-2.4,0.2-3.4,0.2
			c-3,0-5.4-0.5-7.3-1.4c-1.8-0.9-3.2-2.4-4-4.5c-0.8-2.1-1.3-4.8-1.3-8.2c0-3.5,0.4-6.3,1.2-8.3c0.8-2,2.1-3.5,3.9-4.4
			C2877,211.6,2879.3,211.2,2882.1,211.2z"/>
	</g>
	<g>
		<path class="st0" d="M2903.6,211.9l0.4,5.1l0.3,0.8v20.9h-3.5v-26.8H2903.6z M2917,211.2l-0.4,3.3h-1.3c-1.7,0-3.4,0.4-5.1,1.1
			c-1.7,0.8-3.7,1.8-6,3.2l-0.3-2.3c2.1-1.7,4.1-3,6.1-3.9c2-1,4-1.4,5.9-1.4H2917z"/>
	</g>
</g>
<g>
	<g>
		<path class="st0" d="M2716.1,282.8c1.8,0,3.5,0.2,5.3,0.7c1.8,0.5,3.5,1.2,5.2,2.1l-0.2,2.3c-1.9-0.6-3.6-1.1-5-1.5
			c-1.5-0.4-3-0.6-4.6-0.6c-1.7,0-3.1,0.3-4.1,1c-1,0.6-1.8,1.8-2.3,3.3c-0.5,1.6-0.7,3.8-0.7,6.6c0,2.8,0.2,5,0.7,6.6
			c0.5,1.6,1.2,2.7,2.2,3.4c1,0.7,2.3,1,3.9,1c1.1,0,2.2-0.2,3.1-0.5c0.9-0.3,1.9-0.8,3-1.5c1.1-0.7,2.3-1.6,3.7-2.6l0.3,2.6
			c-1.7,1.5-3.4,2.7-5.2,3.6c-1.8,0.9-3.8,1.4-5.8,1.4c-3.4,0-5.8-1.1-7.3-3.4c-1.5-2.3-2.2-5.8-2.2-10.6c0-3.5,0.4-6.2,1.1-8.2
			c0.7-2,1.8-3.5,3.3-4.4C2711.9,283.2,2713.8,282.8,2716.1,282.8z M2729.4,271.6v38.6h-2.7l-0.4-4.7l-0.3-0.3v-18.5l0.3-0.8
			c-0.1-1-0.2-2-0.2-2.9c0-0.9,0-1.8,0-2.9v-8.6H2729.4z"/>
	</g>
	<g>
		<path class="st0" d="M2749.4,282.8c3.8,0,6.6,0.7,8.4,2.1c1.8,1.4,2.7,3.5,2.7,6.2c0,2.4-0.4,4.2-1.4,5.5c-1,1.3-2.6,1.9-4.8,1.9
			h-15.5v-2.8h14.7c1.4,0,2.3-0.4,2.8-1.3c0.5-0.9,0.7-2,0.7-3.3c0-1.9-0.6-3.3-1.8-4.1c-1.2-0.8-3.1-1.2-5.6-1.2
			c-2.1,0-3.8,0.3-5.1,1c-1.3,0.7-2.1,1.8-2.6,3.3c-0.5,1.6-0.8,3.7-0.8,6.4c0,3,0.3,5.3,0.9,6.9c0.6,1.6,1.6,2.8,3,3.4
			c1.4,0.6,3.1,1,5.4,1c1.5,0,3.2-0.1,4.8-0.2c1.7-0.1,3.1-0.3,4.4-0.5l0.4,2.4c-0.8,0.3-1.8,0.5-3,0.7c-1.2,0.2-2.4,0.3-3.7,0.4
			s-2.4,0.2-3.4,0.2c-3,0-5.4-0.5-7.3-1.4c-1.8-0.9-3.2-2.4-4-4.5c-0.8-2.1-1.3-4.8-1.3-8.2c0-3.5,0.4-6.3,1.2-8.3
			c0.8-2,2.1-3.5,3.9-4.4C2744.3,283.2,2746.6,282.8,2749.4,282.8z"/>
	</g>
	<g>
		<path class="st0" d="M2791,283.5l-10.2,25.9c-0.1,0.3-0.3,0.5-0.5,0.6s-0.5,0.2-0.8,0.2h-3.3c-0.3,0-0.6-0.1-0.8-0.2
			c-0.2-0.2-0.4-0.4-0.5-0.6l-10.2-25.9h3.8l7.3,19.4c0.3,0.8,0.6,1.6,0.9,2.4c0.3,0.8,0.6,1.6,0.9,2.4h0.7c0.3-0.8,0.6-1.6,0.9-2.4
			c0.3-0.8,0.6-1.6,0.9-2.4l7.3-19.3H2791z"/>
	</g>
	<g>
		<path class="st0" d="M2807.2,282.8c3.8,0,6.6,0.7,8.4,2.1c1.8,1.4,2.7,3.5,2.7,6.2c0,2.4-0.4,4.2-1.4,5.5c-1,1.3-2.6,1.9-4.8,1.9
			h-15.5v-2.8h14.7c1.4,0,2.3-0.4,2.8-1.3c0.5-0.9,0.7-2,0.7-3.3c0-1.9-0.6-3.3-1.8-4.1c-1.2-0.8-3.1-1.2-5.6-1.2
			c-2.1,0-3.8,0.3-5.1,1s-2.1,1.8-2.6,3.3c-0.5,1.6-0.8,3.7-0.8,6.4c0,3,0.3,5.3,0.9,6.9c0.6,1.6,1.6,2.8,3,3.4c1.4,0.6,3.1,1,5.4,1
			c1.5,0,3.2-0.1,4.8-0.2c1.7-0.1,3.1-0.3,4.4-0.5l0.4,2.4c-0.8,0.3-1.8,0.5-3,0.7s-2.4,0.3-3.7,0.4c-1.3,0.1-2.4,0.2-3.4,0.2
			c-3,0-5.4-0.5-7.3-1.4c-1.8-0.9-3.2-2.4-4-4.5c-0.8-2.1-1.3-4.8-1.3-8.2c0-3.5,0.4-6.3,1.2-8.3c0.8-2,2.1-3.5,3.9-4.4
			C2802,283.2,2804.3,282.8,2807.2,282.8z"/>
	</g>
	<g>
		<path class="st0" d="M2829.5,271.6l-0.1,31.9c0,1.3,0.3,2.3,1,2.9c0.7,0.7,1.7,1,2.9,1h2.8l0.4,2.6c-0.3,0.1-0.7,0.3-1.2,0.4
			c-0.5,0.1-1.1,0.2-1.7,0.2c-0.6,0-1.1,0.1-1.5,0.1c-1.9,0-3.4-0.6-4.5-1.7c-1.1-1.1-1.7-2.7-1.7-4.7v-32.7H2829.5z"/>
	</g>
	<g>
		<path class="st0" d="M2852.7,282.8c3,0,5.4,0.5,7.2,1.4c1.8,0.9,3.1,2.4,3.9,4.5c0.8,2.1,1.2,4.8,1.2,8.2c0,3.4-0.4,6.2-1.2,8.2
			c-0.8,2.1-2.1,3.5-3.9,4.5s-4.2,1.4-7.2,1.4c-3,0-5.4-0.5-7.2-1.4c-1.8-0.9-3.1-2.4-3.9-4.5c-0.8-2.1-1.2-4.8-1.2-8.2
			c0-3.4,0.4-6.2,1.2-8.2c0.8-2.1,2.1-3.5,3.9-4.5C2847.4,283.2,2849.8,282.8,2852.7,282.8z M2852.7,285.8c-2.2,0-3.9,0.3-5.1,1
			c-1.3,0.7-2.1,1.8-2.7,3.4c-0.5,1.6-0.8,3.8-0.8,6.6c0,2.8,0.3,5,0.8,6.6c0.5,1.6,1.4,2.8,2.7,3.4c1.2,0.7,3,1,5.1,1
			c2.1,0,3.8-0.3,5.1-1s2.2-1.8,2.7-3.4c0.5-1.6,0.8-3.8,0.8-6.6c0-2.8-0.3-5-0.8-6.6c-0.5-1.6-1.4-2.7-2.7-3.4
			S2854.9,285.8,2852.7,285.8z"/>
	</g>
	<g>
		<path class="st0" d="M2875.8,283.5l0.4,5.4l0.2,0.5V307l-0.2,0.7c0.1,1,0.2,2,0.2,2.9s0,1.8,0,2.9v8.1h-3.5v-38H2875.8z
			 M2887.2,282.8c3.4,0,5.8,1.2,7.2,3.5c1.4,2.3,2.2,5.9,2.2,10.6c0,3.4-0.3,6.2-1,8.2c-0.7,2-1.8,3.5-3.3,4.4
			c-1.5,0.9-3.4,1.4-5.7,1.4c-1.8,0-3.5-0.2-5.3-0.7c-1.7-0.5-3.5-1.2-5.2-2.2l0.2-2.2c1.9,0.6,3.6,1.1,5,1.5c1.5,0.4,3,0.6,4.6,0.6
			c1.7,0,3.1-0.3,4.1-1c1-0.6,1.8-1.8,2.3-3.3c0.5-1.6,0.7-3.8,0.7-6.6c0-2.7-0.2-4.9-0.7-6.5c-0.5-1.6-1.2-2.8-2.2-3.5
			c-1-0.7-2.3-1.1-3.9-1.1c-1.5,0-3.1,0.4-4.6,1.2c-1.5,0.8-3.3,2-5.4,3.6l-0.2-2.5c1.1-1.1,2.3-2,3.5-2.8c1.2-0.8,2.5-1.4,3.8-1.8
			C2884.6,283,2885.9,282.8,2887.2,282.8z"/>
	</g>
	<g>
		<path class="st0" d="M2915.2,282.8c3.8,0,6.6,0.7,8.4,2.1c1.8,1.4,2.7,3.5,2.7,6.2c0,2.4-0.4,4.2-1.4,5.5c-1,1.3-2.6,1.9-4.8,1.9
			h-15.5v-2.8h14.7c1.4,0,2.3-0.4,2.8-1.3c0.5-0.9,0.7-2,0.7-3.3c0-1.9-0.6-3.3-1.8-4.1c-1.2-0.8-3.1-1.2-5.6-1.2
			c-2.1,0-3.8,0.3-5.1,1s-2.1,1.8-2.6,3.3c-0.5,1.6-0.8,3.7-0.8,6.4c0,3,0.3,5.3,0.9,6.9c0.6,1.6,1.6,2.8,3,3.4c1.4,0.6,3.1,1,5.4,1
			c1.5,0,3.2-0.1,4.8-0.2c1.7-0.1,3.1-0.3,4.4-0.5l0.4,2.4c-0.8,0.3-1.8,0.5-3,0.7s-2.4,0.3-3.7,0.4c-1.3,0.1-2.4,0.2-3.4,0.2
			c-3,0-5.4-0.5-7.3-1.4c-1.8-0.9-3.2-2.4-4-4.5c-0.8-2.1-1.3-4.8-1.3-8.2c0-3.5,0.4-6.3,1.2-8.3c0.8-2,2.1-3.5,3.9-4.4
			C2910.1,283.2,2912.4,282.8,2915.2,282.8z"/>
	</g>
	<g>
		<path class="st0" d="M2936.6,283.5l0.4,5.1l0.3,0.8v20.9h-3.5v-26.8H2936.6z M2950,282.8l-0.4,3.3h-1.3c-1.7,0-3.4,0.4-5.1,1.1
			c-1.7,0.8-3.7,1.8-6,3.2l-0.3-2.3c2.1-1.7,4.1-3,6.1-3.9c2-1,4-1.4,5.9-1.4H2950z"/>
	</g>
</g>
<g>
	<g>
		<path class="st0" d="M2716.1,355.4c1.8,0,3.5,0.2,5.3,0.7c1.8,0.5,3.5,1.2,5.2,2.1l-0.2,2.3c-1.9-0.6-3.6-1.1-5-1.5
			c-1.5-0.4-3-0.6-4.6-0.6c-1.7,0-3.1,0.3-4.1,1c-1,0.6-1.8,1.8-2.3,3.3c-0.5,1.6-0.7,3.8-0.7,6.6c0,2.8,0.2,5,0.7,6.6
			c0.5,1.6,1.2,2.7,2.2,3.4c1,0.7,2.3,1,3.9,1c1.1,0,2.2-0.2,3.1-0.5c0.9-0.3,1.9-0.8,3-1.5c1.1-0.7,2.3-1.6,3.7-2.6l0.3,2.6
			c-1.7,1.5-3.4,2.7-5.2,3.6c-1.8,0.9-3.8,1.4-5.8,1.4c-3.4,0-5.8-1.1-7.3-3.4c-1.5-2.3-2.2-5.8-2.2-10.6c0-3.5,0.4-6.2,1.1-8.2
			c0.7-2,1.8-3.5,3.3-4.4C2711.9,355.9,2713.8,355.4,2716.1,355.4z M2729.4,344.2v38.6h-2.7l-0.4-4.7l-0.3-0.3v-18.5l0.3-0.8
			c-0.1-1-0.2-2-0.2-2.9c0-0.9,0-1.8,0-2.9v-8.6H2729.4z"/>
	</g>
	<g>
		<path class="st0" d="M2741.5,356.1l0.4,5.1l0.3,0.8v20.9h-3.5v-26.8H2741.5z M2754.8,355.4l-0.4,3.3h-1.3c-1.7,0-3.4,0.4-5.1,1.1
			c-1.7,0.8-3.7,1.8-6,3.2l-0.3-2.3c2.1-1.7,4.1-3,6.1-3.9c2-1,4-1.4,5.9-1.4H2754.8z"/>
	</g>
	<g>
		<path class="st0" d="M2770.3,355.4c3.8,0,6.6,0.7,8.4,2.1c1.8,1.4,2.7,3.5,2.7,6.2c0,2.4-0.4,4.2-1.4,5.5c-1,1.3-2.6,1.9-4.8,1.9
			h-15.5v-2.8h14.7c1.4,0,2.3-0.4,2.8-1.3c0.5-0.9,0.7-2,0.7-3.3c0-1.9-0.6-3.3-1.8-4.1c-1.2-0.8-3.1-1.2-5.6-1.2
			c-2.1,0-3.8,0.3-5.1,1c-1.3,0.7-2.1,1.8-2.6,3.3c-0.5,1.6-0.8,3.7-0.8,6.4c0,3,0.3,5.3,0.9,6.9c0.6,1.6,1.6,2.8,3,3.4
			c1.4,0.6,3.1,1,5.4,1c1.5,0,3.2-0.1,4.8-0.2c1.7-0.1,3.1-0.3,4.4-0.5l0.4,2.4c-0.8,0.3-1.8,0.5-3,0.7c-1.2,0.2-2.4,0.3-3.7,0.4
			s-2.4,0.2-3.4,0.2c-3,0-5.4-0.5-7.3-1.4c-1.8-0.9-3.2-2.4-4-4.5c-0.8-2.1-1.3-4.8-1.3-8.2c0-3.5,0.4-6.3,1.2-8.3
			c0.8-2,2.1-3.5,3.9-4.4C2765.1,355.9,2767.4,355.4,2770.3,355.4z"/>
	</g>
	<g>
		<path class="st0" d="M2808.2,366.5l-0.1,2.6l-13.1,0.1c-1.4,0-2.4,0.4-3.1,1.1s-1,1.7-1,3v2.3c0,1.5,0.4,2.6,1.2,3.4
			c0.8,0.7,1.9,1.1,3.5,1.1c1.2,0,2.5-0.2,3.9-0.6c1.4-0.4,2.8-1.1,4.2-1.9c1.4-0.8,2.6-1.8,3.7-3v2.7c-0.4,0.6-1.1,1.2-1.9,1.8
			c-0.8,0.7-1.8,1.3-2.9,1.9c-1.1,0.6-2.3,1.1-3.6,1.5c-1.3,0.4-2.7,0.6-4.1,0.6c-1.5,0-2.9-0.3-4-0.8c-1.1-0.6-2-1.4-2.7-2.5
			c-0.6-1.1-1-2.4-1-3.9V373c0-2.1,0.6-3.6,1.8-4.8c1.2-1.1,3-1.7,5.2-1.7H2808.2z M2801.5,355.4c1.8,0,3.4,0.3,4.7,0.8
			c1.3,0.5,2.2,1.4,2.9,2.6c0.7,1.2,1,2.8,1,4.8v19.2h-2.8l-0.6-5.8l-0.2-0.5v-12.9c0-1.7-0.4-3-1.2-3.9s-2.3-1.3-4.5-1.3
			c-1.6,0-3.5,0.1-5.6,0.2s-4.2,0.3-6.2,0.6l-0.3-2.6c1.2-0.2,2.6-0.4,4-0.6s2.8-0.3,4.4-0.4C2798.5,355.5,2800,355.4,2801.5,355.4z
			"/>
	</g>
	<g>
		<path class="st0" d="M2822,356.1l0.3,5.1l0.3,0.8v20.9h-3.5v-26.8H2822z M2833.4,355.4c2.2,0,4,0.6,5.2,1.8
			c1.2,1.2,1.8,3.1,1.8,5.5v20.1h-3.4v-19.1c0-1.9-0.4-3.2-1.2-4c-0.8-0.8-2-1.2-3.6-1.2c-1,0-2,0.2-3,0.5c-1,0.3-2,0.9-3.1,1.6
			c-1.1,0.7-2.5,1.6-4,2.8l-0.2-2.5c2-1.8,3.9-3.1,5.8-4C2829.6,355.9,2831.5,355.4,2833.4,355.4z M2851.4,355.4
			c2.3,0,4,0.6,5.2,1.9c1.2,1.3,1.8,3.1,1.8,5.5v20.1h-3.5v-19.1c0-1.8-0.4-3.1-1.2-4c-0.7-0.8-1.9-1.3-3.6-1.3
			c-1.1,0-2.1,0.2-3.1,0.5c-1,0.4-2,0.9-3.1,1.6c-1.1,0.7-2.4,1.6-3.9,2.7l-0.2-2.5c2-1.8,3.9-3.1,5.8-4
			C2847.6,355.9,2849.5,355.4,2851.4,355.4z"/>
	</g>
	<g>
		<path class="st0" d="M2878.1,355.4c3.8,0,6.6,0.7,8.4,2.1c1.8,1.4,2.7,3.5,2.7,6.2c0,2.4-0.4,4.2-1.4,5.5c-1,1.3-2.6,1.9-4.8,1.9
			h-15.5v-2.8h14.7c1.4,0,2.3-0.4,2.8-1.3c0.5-0.9,0.7-2,0.7-3.3c0-1.9-0.6-3.3-1.8-4.1c-1.2-0.8-3.1-1.2-5.6-1.2
			c-2.1,0-3.8,0.3-5.1,1s-2.1,1.8-2.6,3.3c-0.5,1.6-0.8,3.7-0.8,6.4c0,3,0.3,5.3,0.9,6.9c0.6,1.6,1.6,2.8,3,3.4c1.4,0.6,3.1,1,5.4,1
			c1.5,0,3.2-0.1,4.8-0.2c1.7-0.1,3.1-0.3,4.4-0.5l0.4,2.4c-0.8,0.3-1.8,0.5-3,0.7s-2.4,0.3-3.7,0.4c-1.3,0.1-2.4,0.2-3.4,0.2
			c-3,0-5.4-0.5-7.3-1.4c-1.8-0.9-3.2-2.4-4-4.5c-0.8-2.1-1.3-4.8-1.3-8.2c0-3.5,0.4-6.3,1.2-8.3c0.8-2,2.1-3.5,3.9-4.4
			C2873,355.9,2875.3,355.4,2878.1,355.4z"/>
	</g>
	<g>
		<path class="st0" d="M2899.6,356.1l0.4,5.1l0.3,0.8v20.9h-3.5v-26.8H2899.6z M2912.9,355.4l-0.4,3.3h-1.3c-1.7,0-3.4,0.4-5.1,1.1
			c-1.7,0.8-3.7,1.8-6,3.2l-0.3-2.3c2.1-1.7,4.1-3,6.1-3.9c2-1,4-1.4,5.9-1.4H2912.9z"/>
	</g>
</g>
<g>
	<g>
		<path class="st0" d="M2761.9,1473l-0.1,31.9c0,1.3,0.3,2.3,1,2.9c0.7,0.7,1.7,1,2.9,1h2.8l0.4,2.6c-0.3,0.1-0.7,0.3-1.2,0.4
			c-0.5,0.1-1.1,0.2-1.7,0.2c-0.6,0-1.1,0.1-1.5,0.1c-1.9,0-3.4-0.6-4.5-1.7c-1.1-1.1-1.7-2.7-1.7-4.7V1473H2761.9z"/>
	</g>
	<g>
		<path class="st0" d="M2784.8,1484.2c3.8,0,6.6,0.7,8.4,2.1c1.8,1.4,2.7,3.5,2.7,6.2c0,2.4-0.4,4.2-1.4,5.5c-1,1.3-2.6,1.9-4.8,1.9
			h-15.5v-2.8h14.7c1.4,0,2.3-0.4,2.8-1.3c0.5-0.9,0.7-2,0.7-3.3c0-1.9-0.6-3.3-1.8-4.1c-1.2-0.8-3.1-1.2-5.6-1.2
			c-2.1,0-3.8,0.3-5.1,1c-1.3,0.7-2.1,1.8-2.6,3.3c-0.5,1.6-0.8,3.7-0.8,6.4c0,3,0.3,5.3,0.9,6.9c0.6,1.6,1.6,2.8,3,3.4
			c1.4,0.6,3.1,1,5.4,1c1.5,0,3.2-0.1,4.8-0.2c1.7-0.1,3.1-0.3,4.4-0.5l0.4,2.4c-0.8,0.3-1.8,0.5-3,0.7c-1.2,0.2-2.4,0.3-3.7,0.4
			s-2.4,0.2-3.4,0.2c-3,0-5.4-0.5-7.3-1.4c-1.8-0.9-3.2-2.4-4-4.5c-0.8-2.1-1.3-4.8-1.3-8.2c0-3.5,0.4-6.3,1.2-8.3
			c0.8-2,2.1-3.5,3.9-4.4C2779.7,1484.6,2782,1484.2,2784.8,1484.2z"/>
	</g>
	<g>
		<path class="st0" d="M2817.9,1484.8v2.9h-17.4v-2.6l5.2-0.3H2817.9z M2808.9,1476.8v28.1c0,1.4,0.3,2.4,1,3c0.6,0.6,1.6,0.9,3,0.9
			h4.4l0.4,2.6c-0.6,0.1-1.2,0.3-1.9,0.4s-1.4,0.2-2.1,0.2c-0.7,0-1.2,0.1-1.6,0.1c-2.2,0-3.8-0.6-4.9-1.7c-1.1-1.1-1.7-2.8-1.7-5
			v-28.6H2808.9z"/>
	</g>
	<g>
		<path class="st0" d="M2825.6,1471.8c0.5,0,0.8,0.1,1,0.3c0.2,0.2,0.3,0.5,0.3,1v3.4c0,0.9-0.1,1.8-0.2,2.6
			c-0.1,0.9-0.3,1.7-0.5,2.6c-0.2,0.8-0.5,1.7-0.9,2.4l-1.6-0.5c0.1-1.1,0.2-2.1,0.3-3c0.1-0.9,0.1-1.9,0.1-3.2c-0.7,0-1-0.4-1-1.1
			l0.1-3.2c0-0.5,0.1-0.8,0.3-1c0.2-0.2,0.6-0.3,1-0.3H2825.6z"/>
	</g>
	<g>
		<path class="st0" d="M2843.3,1484.2c1.1,0,2.3,0,3.6,0.1c1.3,0.1,2.5,0.2,3.8,0.3c1.2,0.1,2.4,0.2,3.5,0.4l-0.3,2.6
			c-1.7-0.1-3.3-0.2-5.1-0.2s-3.4-0.1-5.1-0.1c-1.8,0-3.2,0-4.2,0.1c-1,0.1-1.8,0.5-2.3,1.1c-0.5,0.6-0.7,1.6-0.7,3
			c0,1.6,0.3,2.7,1,3.2c0.7,0.6,1.7,1,3.1,1.2l8.2,1.5c2.1,0.4,3.6,1.1,4.6,2.2c1,1.1,1.5,2.7,1.5,4.9c0,2.2-0.4,3.9-1.2,5
			c-0.8,1.1-2,1.8-3.7,2.1c-1.7,0.3-3.7,0.5-6.2,0.5c-1.1,0-2.5,0-4.3-0.1c-1.8-0.1-3.8-0.3-5.9-0.6l0.3-2.5c1,0,2,0.1,3,0.1
			c1,0.1,2,0.1,3.1,0.1c1,0,2.1,0,3.3,0c2.1,0,3.8-0.2,5-0.4c1.2-0.2,2.1-0.6,2.6-1.3c0.5-0.7,0.8-1.7,0.8-3c0-1.5-0.4-2.6-1.2-3.1
			c-0.8-0.6-1.9-1-3.2-1.2l-8.2-1.5c-1.4-0.3-2.5-0.7-3.4-1.3c-0.9-0.6-1.5-1.3-2-2.3c-0.4-1-0.6-2.2-0.6-3.7c0-2.1,0.4-3.7,1.1-4.8
			c0.7-1,1.9-1.7,3.4-2.1C2839,1484.3,2841,1484.2,2843.3,1484.2z"/>
	</g>
	<g>
		<path class="st0" d="M2769.6,1550.4c0.7,0,1.6,0,2.5,0.1c1,0.1,1.9,0.2,2.9,0.4s1.9,0.4,2.8,0.7l-0.5,2.3
			c-1.1-0.1-2.4-0.3-3.8-0.3c-1.4-0.1-2.5-0.1-3.4-0.1c-2.3,0-4.2,0.3-5.5,1c-1.4,0.6-2.4,1.8-3,3.4c-0.6,1.6-0.9,3.8-0.9,6.6
			c0,2.8,0.3,5.1,0.9,6.7c0.6,1.6,1.6,2.8,3,3.4c1.4,0.6,3.2,1,5.5,1c0.6,0,1.3,0,2.2-0.1c0.9,0,1.8-0.1,2.8-0.2
			c1-0.1,1.9-0.2,2.8-0.3l0.4,2.4c-1.3,0.4-2.7,0.7-4.3,0.9c-1.5,0.2-3,0.3-4.6,0.3c-3,0-5.4-0.5-7.3-1.4s-3.2-2.4-4-4.4
			c-0.8-2-1.2-4.8-1.2-8.2c0-3.4,0.4-6.2,1.2-8.2c0.8-2.1,2.2-3.5,4-4.4C2764.1,1550.8,2766.5,1550.4,2769.6,1550.4z"/>
	</g>
	<g>
		<path class="st0" d="M2795.6,1550.4c3,0,5.4,0.5,7.2,1.4c1.8,0.9,3.1,2.4,3.9,4.5c0.8,2.1,1.2,4.8,1.2,8.2c0,3.4-0.4,6.2-1.2,8.2
			c-0.8,2.1-2.1,3.5-3.9,4.5c-1.8,0.9-4.2,1.4-7.2,1.4s-5.4-0.5-7.2-1.4s-3.1-2.4-3.9-4.5c-0.8-2.1-1.2-4.8-1.2-8.2
			c0-3.4,0.4-6.2,1.2-8.2c0.8-2.1,2.1-3.5,3.9-4.5C2790.3,1550.8,2792.7,1550.4,2795.6,1550.4z M2795.6,1553.4c-2.2,0-3.9,0.3-5.1,1
			s-2.1,1.8-2.7,3.4c-0.5,1.6-0.8,3.8-0.8,6.6c0,2.8,0.3,5,0.8,6.6c0.5,1.6,1.4,2.8,2.7,3.4s3,1,5.1,1c2.1,0,3.8-0.3,5.1-1
			c1.3-0.7,2.2-1.8,2.7-3.4c0.5-1.6,0.8-3.8,0.8-6.6c0-2.8-0.3-5-0.8-6.6c-0.5-1.6-1.4-2.7-2.7-3.4
			C2799.5,1553.8,2797.8,1553.4,2795.6,1553.4z"/>
	</g>
	<g>
		<path class="st0" d="M2818.8,1551l0.3,5.1l0.3,0.8v20.9h-3.5V1551H2818.8z M2831.3,1550.4c4.8,0,7.2,2.4,7.2,7.3v20.1h-3.5v-19.1
			c0-1.9-0.4-3.3-1.1-4.1c-0.7-0.8-1.9-1.2-3.5-1.2c-1.8,0-3.6,0.4-5.3,1.3c-1.7,0.8-3.8,2-6.2,3.6l-0.2-2.6c2.2-1.7,4.3-3,6.4-3.9
			C2827.3,1550.8,2829.3,1550.4,2831.3,1550.4z"/>
	</g>
	<g>
		<path class="st0" d="M2850.6,1551l0.3,5.1l0.3,0.8v20.9h-3.5V1551H2850.6z M2863.2,1550.4c4.8,0,7.2,2.4,7.2,7.3v20.1h-3.5v-19.1
			c0-1.9-0.4-3.3-1.1-4.1c-0.7-0.8-1.9-1.2-3.5-1.2c-1.8,0-3.6,0.4-5.3,1.3c-1.7,0.8-3.8,2-6.2,3.6l-0.2-2.6c2.2-1.7,4.3-3,6.4-3.9
			C2859.1,1550.8,2861.1,1550.4,2863.2,1550.4z"/>
	</g>
	<g>
		<path class="st0" d="M2890.1,1550.4c3.8,0,6.6,0.7,8.4,2.1c1.8,1.4,2.7,3.5,2.7,6.2c0,2.4-0.4,4.2-1.4,5.5c-1,1.3-2.6,1.9-4.8,1.9
			h-15.5v-2.8h14.7c1.4,0,2.3-0.4,2.8-1.3c0.5-0.9,0.7-2,0.7-3.3c0-1.9-0.6-3.3-1.8-4.1c-1.2-0.8-3.1-1.2-5.6-1.2
			c-2.1,0-3.8,0.3-5.1,1c-1.3,0.7-2.1,1.8-2.6,3.3c-0.5,1.6-0.8,3.7-0.8,6.4c0,3,0.3,5.3,0.9,6.9c0.6,1.6,1.6,2.8,3,3.4
			c1.4,0.6,3.1,1,5.4,1c1.5,0,3.2-0.1,4.8-0.2c1.7-0.1,3.1-0.3,4.4-0.5l0.4,2.4c-0.8,0.3-1.8,0.5-3,0.7c-1.2,0.2-2.4,0.3-3.7,0.4
			s-2.4,0.2-3.4,0.2c-3,0-5.4-0.5-7.3-1.4c-1.8-0.9-3.2-2.4-4-4.5c-0.8-2.1-1.3-4.8-1.3-8.2c0-3.5,0.4-6.3,1.2-8.3
			c0.8-2,2.1-3.5,3.9-4.4C2885,1550.8,2887.3,1550.4,2890.1,1550.4z"/>
	</g>
	<g>
		<path class="st0" d="M2920.1,1550.4c0.7,0,1.6,0,2.5,0.1c1,0.1,1.9,0.2,2.9,0.4c1,0.2,1.9,0.4,2.8,0.7l-0.5,2.3
			c-1.1-0.1-2.4-0.3-3.8-0.3s-2.5-0.1-3.4-0.1c-2.3,0-4.2,0.3-5.5,1c-1.4,0.6-2.4,1.8-3,3.4c-0.6,1.6-0.9,3.8-0.9,6.6
			c0,2.8,0.3,5.1,0.9,6.7c0.6,1.6,1.6,2.8,3,3.4c1.4,0.6,3.2,1,5.5,1c0.6,0,1.3,0,2.2-0.1c0.9,0,1.8-0.1,2.8-0.2
			c1-0.1,1.9-0.2,2.8-0.3l0.4,2.4c-1.3,0.4-2.8,0.7-4.3,0.9c-1.5,0.2-3,0.3-4.6,0.3c-3,0-5.4-0.5-7.3-1.4c-1.8-0.9-3.2-2.4-4-4.4
			c-0.8-2-1.2-4.8-1.2-8.2c0-3.4,0.4-6.2,1.2-8.2c0.8-2.1,2.2-3.5,4-4.4C2914.6,1550.8,2917,1550.4,2920.1,1550.4z"/>
	</g>
	<g>
		<path class="st0" d="M2950,1551v2.9h-17.4v-2.6l5.2-0.3H2950z M2941,1543v28.1c0,1.4,0.3,2.4,1,3c0.6,0.6,1.6,0.9,3,0.9h4.4
			l0.4,2.6c-0.6,0.1-1.2,0.3-1.9,0.4s-1.4,0.2-2.1,0.2c-0.7,0-1.2,0.1-1.6,0.1c-2.2,0-3.8-0.6-4.9-1.7c-1.1-1.1-1.7-2.8-1.7-5V1543
			H2941z"/>
	</g>
</g>
<g>
	<g>
		<g>
			<path class="st0" d="M216.4,801v174.1H200V801H216.4z M307,874.6V889h-92.6v-14.4H307z M320.6,801v174.1h-16.4V801H320.6z"/>
		</g>
		<g>
			<path class="st0" d="M377.8,801.2c3.5,0,5.3,1.8,5.3,5.3v14.9c0,3.5-1.8,5.3-5.3,5.3h-7.6c-3.5,0-5.3-1.8-5.3-5.3v-14.9
				c0-3.5,1.8-5.3,5.3-5.3H377.8z M381.9,852.7v122.4h-15.6V852.7H381.9z"/>
		</g>
		<g>
			<path class="st0" d="M434.6,948.1c2.2,0,3.7,0.5,4.7,1.5c0.9,1,1.4,2.6,1.4,4.8v16.1c0,4.2-0.3,8.4-1,12.6
				c-0.7,4.2-1.5,8.3-2.5,12.4c-1,4-2.3,7.9-3.8,11.6l-7.6-2.5c0.7-5,1.2-9.7,1.5-13.9c0.3-4.2,0.5-9.4,0.5-15.6
				c-3.2,0-4.7-1.8-4.5-5.5v-15.1c0-2.2,0.5-3.8,1.6-4.8c1.1-1,2.6-1.5,4.7-1.5H434.6z"/>
		</g>
		<g>
			<path class="st0" d="M550.4,801.2c3.5,0,5.3,1.8,5.3,5.3v14.9c0,3.5-1.8,5.3-5.3,5.3h-7.6c-3.5,0-5.3-1.8-5.3-5.3v-14.9
				c0-3.5,1.8-5.3,5.3-5.3H550.4z M554.4,852.7v122.4h-15.6V852.7H554.4z"/>
		</g>
		<g>
			<path class="st0" d="M605.4,792.9c2.2,0,3.7,0.5,4.7,1.4c0.9,0.9,1.4,2.5,1.4,4.7v15.4c-0.2,4-0.5,8-1,12
				c-0.5,4-1.3,7.9-2.4,11.7c-1.1,3.9-2.4,7.6-3.9,11.1l-7.3-2.3c0.5-5,0.9-9.5,1.3-13.5c0.3-3.9,0.5-8.9,0.5-14.8
				c-3,0-4.5-1.7-4.5-5l0.3-14.6c0-2.2,0.5-3.7,1.5-4.7c1-0.9,2.6-1.4,4.8-1.4H605.4z"/>
		</g>
		<g>
			<path class="st0" d="M662.1,852.7l1.3,23.2l1.5,3.8v95.4H649V852.7H662.1z M714.6,849.7c10.3,0,18.2,2.8,23.7,8.5
				c5.5,5.6,8.3,14,8.3,25.1v91.8h-15.4v-87.5c0-8.6-1.8-14.7-5.4-18.4c-3.6-3.7-9-5.5-16.3-5.5c-4.7,0-9.3,0.8-13.7,2.3
				c-4.5,1.5-9.3,3.9-14.4,7.2c-5.1,3.3-11.2,7.5-18.3,12.7l-1-11.6c9.1-8.1,17.9-14.2,26.5-18.3
				C697.2,851.7,705.9,849.7,714.6,849.7z M796.6,849.7c10.4,0,18.4,2.9,24,8.6c5.5,5.7,8.3,14,8.3,25v91.8H813v-87.5
				c-0.2-8.2-1.9-14.3-5.3-18.2c-3.4-3.9-8.8-5.8-16.4-5.8c-4.9,0-9.5,0.8-14,2.4c-4.5,1.6-9.2,4-14.3,7.3c-5,3.3-11,7.4-17.9,12.5
				l-1-11.6c9.1-8.1,18-14.2,26.6-18.3C779.4,851.7,788,849.7,796.6,849.7z"/>
		</g>
		<g>
			<path class="st0" d="M966.4,849.7c5.2,0,10.7,0.2,16.5,0.5c5.8,0.3,11.6,0.8,17.3,1.3c5.7,0.5,11.1,1.1,16.1,1.8l-1.5,11.9
				c-7.6-0.5-15.3-0.9-23.2-1.1c-7.9-0.3-15.6-0.4-23.2-0.4c-8.1-0.2-14.5,0-19.3,0.6c-4.8,0.6-8.3,2.3-10.6,5s-3.4,7.4-3.4,13.7
				c0,7.2,1.6,12.2,4.8,14.8c3.2,2.6,7.9,4.5,14.1,5.7l37.6,7.1c9.4,1.9,16.4,5.2,21.1,10.1c4.6,4.9,6.9,12.4,6.9,22.5
				c0,10.3-1.9,17.8-5.5,22.7c-3.7,4.9-9.3,8.1-16.9,9.7c-7.6,1.6-17,2.4-28.3,2.4c-4.9,0-11.4-0.2-19.6-0.5
				c-8.2-0.3-17.2-1.3-27.1-2.8l1.3-11.6c4.5,0.2,9.1,0.4,13.6,0.6c4.5,0.3,9.2,0.4,14,0.5c4.8,0.1,9.8,0.1,15,0.1
				c9.6-0.2,17.2-0.7,22.7-1.6c5.5-0.9,9.5-2.9,11.9-5.9c2.4-3,3.5-7.6,3.5-13.6c0-7.1-1.9-11.9-5.7-14.4c-3.8-2.5-8.6-4.4-14.5-5.5
				l-37.3-6.8c-6.2-1.3-11.4-3.3-15.4-5.9c-4-2.6-7-6.1-9-10.6c-1.9-4.5-2.9-10-2.9-16.8c0-9.8,1.7-17,5-21.8
				c3.4-4.8,8.5-7.9,15.4-9.5C946.8,850.2,955.6,849.5,966.4,849.7z"/>
		</g>
		<g>
			<path class="st0" d="M1103.1,849.7c17.5,0,30.3,3.2,38.5,9.6c8.2,6.4,12.3,15.9,12.5,28.5c0.2,10.9-1.9,19.3-6.3,25.2
				c-4.4,5.9-11.7,8.8-21.9,8.8h-70.9v-12.6h67.4c6.2,0,10.4-2,12.6-6.1c2.2-4,3.2-9.1,3-15.1c-0.2-8.7-2.9-15-8.3-18.8
				c-5.4-3.8-14-5.7-25.7-5.7c-9.8,0-17.5,1.5-23.2,4.5c-5.7,3-9.8,8.1-12.1,15.3c-2.4,7.1-3.5,16.9-3.5,29.1
				c0,13.6,1.4,24.2,4.3,31.7c2.9,7.5,7.4,12.7,13.6,15.6c6.2,2.9,14.4,4.4,24.5,4.4c7.1,0,14.4-0.3,22.1-0.9
				c7.7-0.6,14.3-1.3,20.1-2.1l1.8,10.8c-3.5,1.3-8,2.4-13.5,3.3c-5.5,0.8-11.1,1.5-16.9,2c-5.8,0.5-11,0.8-15.5,0.8
				c-13.8,0-24.8-2.1-33.2-6.4c-8.3-4.3-14.4-11.2-18.3-20.7c-3.9-9.5-5.8-22-5.8-37.5c0-16,1.9-28.6,5.7-37.8
				c3.8-9.2,9.7-15.9,17.8-19.9C1079.6,851.7,1090.2,849.7,1103.1,849.7z"/>
		</g>
		<g>
			<path class="st0" d="M1204.3,798.5v48.9c0,5.2-0.1,9.8-0.3,13.9c-0.2,4-0.7,8.2-1.5,12.4l1.5,3.8l0.3,92.8l-15.9-0.8v-171H1204.3
				z M1251.2,849.7c15.5,0,26.7,4.9,33.7,14.8c7,9.8,10.5,26.3,10.5,49.3c0,10.9-0.9,20.4-2.6,28.5c-1.8,8.1-4.7,14.8-8.7,20.1
				c-4,5.3-9.4,9.3-16.1,11.9c-6.7,2.6-15.1,3.9-25,3.9c-4.2,0-8.6-0.2-13.2-0.5c-4.6-0.3-9.3-0.9-14-1.6c-4.7-0.8-9.4-1.6-14-2.6
				c-4.6-1-9-2.3-13.2-3.8l12.9-10.8c5,1.3,9.9,2.5,14.6,3.4c4.7,0.9,9.2,1.5,13.6,1.8c4.4,0.3,8.7,0.4,13.1,0.4
				c8.7,0,15.8-1.6,21.1-4.8c5.3-3.2,9.1-8.5,11.5-15.9c2.4-7.4,3.5-17.3,3.5-29.8c0-12.3-1-22.1-2.9-29.4
				c-1.9-7.3-5.3-12.6-10-15.8c-4.7-3.2-11.3-4.8-19.7-4.8c-7.1,0-13.9,2-20.6,5.9c-6.6,4-14.3,9.4-23.1,16.3l-1-11.4
				c5.4-5.4,10.8-9.9,16.1-13.5c5.4-3.6,10.9-6.4,16.5-8.5C1239.8,850.7,1245.5,849.7,1251.2,849.7z"/>
		</g>
		<g>
			<path class="st0" d="M1419.5,900.4l-0.3,12.1l-59.8,0.5c-6.4,0.2-11.1,1.9-14,5.2c-2.9,3.3-4.4,7.9-4.4,13.7v10.6
				c0,6.9,1.8,12,5.3,15.4c3.5,3.4,8.9,5,16.1,5c5.4,0.2,11.3-0.8,17.8-2.8c6.5-2,12.9-5,19.3-8.8c6.4-3.9,12-8.4,16.9-13.6v12.4
				c-2,2.5-4.9,5.3-8.7,8.3s-8.2,6-13.1,8.8c-5,2.9-10.4,5.2-16.4,7.1c-6,1.8-12.2,2.8-18.5,2.8c-7.1,0-13.2-1.3-18.4-3.8
				c-5.2-2.5-9.3-6.3-12.2-11.2c-2.9-5-4.4-11-4.4-18v-14.1c0-9.4,2.8-16.7,8.5-21.8c5.6-5.1,13.6-7.7,23.8-7.7H1419.5z
				 M1388.7,849.7c8.4,0,15.5,1.2,21.3,3.7c5.8,2.4,10.2,6.4,13.2,11.9c3,5.5,4.5,12.8,4.5,22.1v87.8h-12.6l-2.5-26.7l-1-2.3v-58.8
				c0-7.7-1.8-13.6-5.4-17.7c-3.6-4-10.5-6.1-20.6-6.1c-7.4,0-16,0.3-25.7,1c-9.8,0.7-19.3,1.5-28.5,2.5l-1.5-11.9
				c5.7-1,11.8-1.9,18.2-2.6c6.4-0.8,13-1.4,19.9-2C1374.9,850,1381.8,849.7,1388.7,849.7z"/>
		</g>
		<g>
			<path class="st0" d="M1508.5,849.7c5.2,0,10.7,0.2,16.5,0.5c5.8,0.3,11.6,0.8,17.3,1.3c5.7,0.5,11.1,1.1,16.1,1.8l-1.5,11.9
				c-7.6-0.5-15.3-0.9-23.2-1.1c-7.9-0.3-15.6-0.4-23.2-0.4c-8.1-0.2-14.5,0-19.3,0.6c-4.8,0.6-8.3,2.3-10.6,5s-3.4,7.4-3.4,13.7
				c0,7.2,1.6,12.2,4.8,14.8c3.2,2.6,7.9,4.5,14.1,5.7l37.6,7.1c9.4,1.9,16.4,5.2,21.1,10.1c4.6,4.9,6.9,12.4,6.9,22.5
				c0,10.3-1.9,17.8-5.5,22.7c-3.7,4.9-9.3,8.1-16.9,9.7s-17,2.4-28.3,2.4c-4.9,0-11.4-0.2-19.6-0.5c-8.2-0.3-17.2-1.3-27.1-2.8
				l1.3-11.6c4.5,0.2,9.1,0.4,13.6,0.6c4.5,0.3,9.2,0.4,14,0.5c4.8,0.1,9.8,0.1,15,0.1c9.6-0.2,17.2-0.7,22.7-1.6
				c5.5-0.9,9.5-2.9,11.9-5.9c2.4-3,3.5-7.6,3.5-13.6c0-7.1-1.9-11.9-5.7-14.4c-3.8-2.5-8.6-4.4-14.5-5.5l-37.3-6.8
				c-6.2-1.3-11.4-3.3-15.4-5.9c-4-2.6-7-6.1-9-10.6c-1.9-4.5-2.9-10-2.9-16.8c0-9.8,1.7-17,5-21.8c3.4-4.8,8.5-7.9,15.4-9.5
				C1488.9,850.2,1497.7,849.5,1508.5,849.7z"/>
		</g>
		<g>
			<path class="st0" d="M1662.1,852.7v13.1h-79.5V854l24-1.3H1662.1z M1620.8,815.9v128.7c0,6.2,1.5,10.8,4.4,13.6
				c2.9,2.9,7.4,4.3,13.5,4.3h19.9l2,11.9c-2.5,0.7-5.4,1.2-8.7,1.6c-3.3,0.4-6.4,0.7-9.5,0.9c-3,0.2-5.5,0.3-7.3,0.3
				c-9.9,0-17.5-2.6-22.6-7.8c-5.1-5.2-7.7-12.8-7.7-22.7V815.9H1620.8z"/>
		</g>
		<g>
			<path class="st0" d="M1702.2,801.2c3.5,0,5.3,1.8,5.3,5.3v14.9c0,3.5-1.8,5.3-5.3,5.3h-7.6c-3.5,0-5.3-1.8-5.3-5.3v-14.9
				c0-3.5,1.8-5.3,5.3-5.3H1702.2z M1706.3,852.7v122.4h-15.6V852.7H1706.3z"/>
		</g>
		<g>
			<path class="st0" d="M1837.5,900.4l-0.3,12.1l-59.8,0.5c-6.4,0.2-11.1,1.9-14,5.2c-2.9,3.3-4.4,7.9-4.4,13.7v10.6
				c0,6.9,1.8,12,5.3,15.4c3.5,3.4,8.9,5,16.1,5c5.4,0.2,11.3-0.8,17.8-2.8c6.5-2,12.9-5,19.3-8.8c6.4-3.9,12-8.4,16.9-13.6v12.4
				c-2,2.5-4.9,5.3-8.7,8.3s-8.2,6-13.1,8.8c-5,2.9-10.4,5.2-16.4,7.1c-6,1.8-12.2,2.8-18.5,2.8c-7.1,0-13.2-1.3-18.4-3.8
				c-5.2-2.5-9.3-6.3-12.2-11.2c-2.9-5-4.4-11-4.4-18v-14.1c0-9.4,2.8-16.7,8.5-21.8c5.6-5.1,13.6-7.7,23.8-7.7H1837.5z
				 M1806.7,849.7c8.4,0,15.5,1.2,21.3,3.7c5.8,2.4,10.2,6.4,13.2,11.9c3,5.5,4.5,12.8,4.5,22.1v87.8h-12.6l-2.5-26.7l-1-2.3v-58.8
				c0-7.7-1.8-13.6-5.4-17.7c-3.6-4-10.5-6.1-20.6-6.1c-7.4,0-16,0.3-25.7,1c-9.8,0.7-19.3,1.5-28.5,2.5l-1.5-11.9
				c5.7-1,11.8-1.9,18.2-2.6c6.4-0.8,13-1.4,19.9-2C1792.9,850,1799.8,849.7,1806.7,849.7z"/>
		</g>
		<g>
			<path class="st0" d="M1900.5,852.7l1.3,23.2l1.3,3.8v95.4h-15.9V852.7H1900.5z M1958,849.7c22,0,33,11.2,33,33.6v91.8h-15.9
				v-87.5c0-8.7-1.7-14.9-5-18.5c-3.4-3.6-8.7-5.4-16.1-5.4c-8.2,0-16.3,1.9-24.2,5.8c-7.9,3.9-17.3,9.3-28.3,16.4l-0.8-11.9
				c9.9-7.7,19.6-13.7,29.1-17.9C1939.4,851.8,1948.8,849.7,1958,849.7z"/>
		</g>
		<g>
			<path class="st0" d="M2047.3,948.1c2.2,0,3.8,0.5,4.8,1.5c1,1,1.5,2.6,1.5,4.8v14.4c0,2.4-0.5,4-1.5,4.9c-1,0.9-2.6,1.4-4.8,1.4
				h-4.3c-2.4,0-4-0.5-4.9-1.4c-0.9-0.9-1.4-2.6-1.4-4.9v-14.4c0-2.2,0.5-3.8,1.4-4.8c0.9-1,2.6-1.5,4.9-1.5H2047.3z M2053.1,799.7
				v80.2l-1.5,42.6h-12.9l-1.8-42.6v-80.2H2053.1z"/>
		</g>
	</g>
</g>
<g>
	<g>
		<path class="st0" d="M277.7,1554.7h-69.9c-4.3,0-7.8-3.5-7.8-7.8v-43.5c0-4.3,3.5-7.8,7.8-7.8h69.9c4.3,0,7.8,3.5,7.8,7.8v43.5
			C285.5,1551.2,282,1554.7,277.7,1554.7z"/>
	</g>
	<line class="st1" x1="235.6" y1="1525.1" x2="1441.8" y2="1525.1"/>
</g>
<line class="st1" x1="2718" y1="1450.3" x2="2718" y2="1600"/>
<g>
	<g>
		<path class="st0" d="M5023.6,3341.6c0,0.5-0.3,1-1,1c-0.6,0-1-0.4-1-0.9c0-0.5,0.4-1,1-1S5023.6,3341.1,5023.6,3341.6z"/>
	</g>
	<g>
		<rect x="5021.7" y="3343.1" class="st0" width="1.9" height="6.3"/>
	</g>
	<g>
		<path class="st0" d="M5028.2,3343.2c-1,0-1.6,0.6-1.8,1h0l-0.1-0.8h-1.7c0,0.5,0,1.2,0,1.9v4.2h1.9v-3.4c0-0.2,0-0.3,0-0.5
			c0.1-0.3,0.4-0.8,0.9-0.8c0.7,0,1,0.6,1,1.4v3.3h1.9v-3.6C5030.4,3344,5029.4,3343.2,5028.2,3343.2z"/>
	</g>
</g>
</svg>
